<?xml version="1.0" encoding="UTF-8" standalone="no"?>
<svg
   xmlns:dc="http://purl.org/dc/elements/1.1/"
   xmlns:cc="http://creativecommons.org/ns#"
   xmlns:rdf="http://www.w3.org/1999/02/22-rdf-syntax-ns#"
   xmlns:svg="http://www.w3.org/2000/svg"
   xmlns="http://www.w3.org/2000/svg"
   xmlns:sodipodi="http://sodipodi.sourceforge.net/DTD/sodipodi-0.dtd"
   xmlns:inkscape="http://www.inkscape.org/namespaces/inkscape"
   width="210mm"
   height="210mm"
   viewBox="0 0 210 210"
   version="1.1"
   id="svg8"
   inkscape:version="1.0.2 (e86c8708, 2021-01-15)">
  <defs
     id="defs2" />
  <sodipodi:namedview
     id="base"
     pagecolor="#787878"
     bordercolor="#666666"
     borderopacity="1.0"
     inkscape:pageopacity="0.95294118"
     inkscape:pageshadow="2"
     inkscape:zoom="0.56022649"
     inkscape:cx="403.89442"
     inkscape:cy="431.2316"
     inkscape:document-units="mm"
     inkscape:current-layer="layer1"
     inkscape:document-rotation="0"
     showgrid="false"
     inkscape:window-width="1252"
     inkscape:window-height="872"
     inkscape:window-x="0"
     inkscape:window-y="0"
     inkscape:window-maximized="0" />
  <metadata
     id="metadata5">
    <rdf:RDF>
      <cc:Work
         rdf:about="">
        <dc:format>image/svg+xml</dc:format>
        <dc:type
           rdf:resource="http://purl.org/dc/dcmitype/StillImage" />
        <dc:title></dc:title>
      </cc:Work>
    </rdf:RDF>
  </metadata>
  <g
     inkscape:label="Layer 1"
     inkscape:groupmode="layer"
     id="layer1">
    <path
       style="fill:#ffffff;fill-opacity:1;stroke-width:0.214736"
       d="m 95.328975,206.74854 c -0.03954,-0.0395 -1.564103,-0.12208 -3.387976,-0.18348 -1.823875,-0.0614 -4.185825,-0.16384 -5.248772,-0.22764 -1.062945,-0.0639 -4.396736,-0.21163 -7.408416,-0.32853 -9.153021,-0.35523 -20.475066,-0.83529 -25.124175,-1.06527 -8.936392,-0.44206 -9.544766,-0.54192 -10.674859,-1.75223 -0.379748,-0.40671 -4.356706,-8.2898 -4.356706,-8.63583 0,-0.0508 -0.579789,-1.31718 -1.28842,-2.81428 -0.708631,-1.49712 -1.288419,-2.76141 -1.288419,-2.80957 0,-0.0482 -0.347803,-0.83687 -0.772895,-1.75269 -0.425092,-0.9158 -1.641942,-3.59774 -2.704114,-5.95984 -1.062168,-2.3621 -2.308784,-5.10142 -2.770259,-6.08737 -0.461471,-0.98595 -0.839039,-1.8241 -0.839039,-1.86253 0,-0.0384 -0.613445,-1.35764 -1.363211,-2.93156 -2.266513,-4.7579 -4.005205,-8.69719 -4.005205,-9.07441 0,-0.13866 -0.387179,-1.05272 -0.860395,-2.03128 -1.20936,-2.50079 -2.790127,-6.95753 -2.790127,-7.86635 0,-0.41996 0.193548,-1.14295 0.430105,-1.60665 0.463523,-0.90858 0.910499,-1.28864 10.091989,-8.58125 5.805276,-4.61097 6.934437,-5.50817 17.071563,-13.56448 5.167536,-4.10682 13.299303,-10.56458 18.322223,-14.55036 0.983122,-0.78013 2.819124,-2.24331 4.079995,-3.25154 1.260872,-1.0082 4.829068,-3.84134 7.929322,-6.29585 3.100265,-2.45451 5.636839,-4.550223 5.636839,-4.657142 0,-0.35445 -5.903285,-5.697772 -8.93551,-8.08791 l -0.873814,-0.688788 -1.441445,1.085278 c -3.132695,2.358655 -7.738248,4.952916 -13.014467,7.330922 -0.954208,0.430066 -3.822298,1.228731 -4.412494,1.228731 -0.931074,0 -2.707918,-0.687273 -3.441077,-1.330998 -1.304394,-1.145264 -1.690915,-2.139601 -1.736436,-4.46689 -0.02199,-1.121994 -0.04732,-2.057947 -0.05647,-2.079884 -0.0089,-0.02192 -1.039723,0.968446 -2.290183,2.200849 -2.764318,2.724405 -5.382468,4.721122 -7.695266,5.868743 -2.364859,1.173459 -3.166729,1.388429 -5.196429,1.393159 -1.536309,0.003 -1.912186,-0.0786 -3.153368,-0.68965 -2.614034,-1.286885 -4.13153,-3.532278 -4.898426,-7.248068 -0.373849,-1.8114 -0.422792,-2.642393 -0.32774,-5.565141 0.06146,-1.889682 0.175646,-3.646732 0.253764,-3.904542 0.12211,-0.403012 -0.01907,-0.549662 -1.006617,-1.045663 -2.882276,-1.447592 -5.74949,-4.118479 -7.393592,-6.887303 C 17.537471,74.538118 15.896357,70.749925 15.65583,69.66352 15.590454,69.368259 15.433023,68.740146 15.305971,68.267728 14.368762,64.782891 13.952132,57.193166 14.51514,53.86118 c 0.619084,-3.663855 0.81281,-4.642826 1.356014,-6.852369 3.400236,-13.830904 12.193994,-25.824173 21.640222,-29.513784 2.700081,-1.054622 3.483909,-1.194049 6.663058,-1.185155 3.271877,0.0089 4.536141,0.26986 6.764198,1.394865 1.065469,0.53799 1.642227,0.928228 3.46372,2.343559 l 0.564786,0.438848 1.886397,-2.486568 C 63.288583,9.5181413 69.620573,3.9537024 74.428516,2.5559977 c 1.7822,-0.5181015 4.616679,-0.3802239 5.982718,0.291016 2.082973,1.0235223 3.584209,2.9913271 4.507238,5.9080576 0.438358,1.3851647 0.485383,1.9602857 0.485383,5.9358697 0,2.743489 -0.104898,4.928003 -0.278262,5.797889 -0.153042,0.767687 -0.382705,1.927264 -0.51036,2.576838 -0.37256,1.895839 -1.24373,5.534104 -1.825343,7.623149 -1.516949,5.448579 -5.229985,15.363922 -7.960925,21.258938 -0.765991,1.653463 -1.438232,3.25449 -1.493861,3.557817 -0.08002,0.436138 0.155073,0.851652 1.123687,1.986307 0.673657,0.78915 1.315409,1.434808 1.426112,1.434808 0.110702,0 0.894637,-0.596757 1.74207,-1.326126 2.769464,-2.383597 5.810382,-4.524498 7.621487,-5.365761 4.69368,-2.180205 8.280573,-2.244685 10.613915,-0.190783 2.385637,2.099913 2.706819,5.613989 0.990653,10.838681 -0.865538,2.635092 -3.082582,6.875153 -4.892921,9.357663 -0.818205,1.121995 -1.742784,2.39573 -2.054627,2.830519 l -0.566972,0.790519 1.897943,2.608476 c 3.643634,5.007731 4.434415,6.14421 6.946403,9.983094 1.39109,2.125905 2.725896,4.079348 2.966236,4.340987 0.42118,0.458525 0.58143,0.475684 4.42986,0.474485 2.19607,-6.35e-4 4.1346,-0.05556 4.30784,-0.122119 0.17324,-0.06656 0.67377,-0.714832 1.11229,-1.440802 1.71749,-2.843331 5.1246,-7.787506 8.71658,-12.648935 l 2.34151,-3.169009 -1.38433,-1.877299 c -2.22037,-3.011059 -3.14003,-4.462068 -4.43922,-7.004037 -2.53317,-4.95636 -3.44142,-9.802634 -2.37253,-12.659452 1.19638,-3.197632 4.73878,-4.535728 8.93166,-3.373819 3.44135,0.953649 5.97792,2.482161 10.64951,6.417341 1.02986,0.867521 1.96726,1.543927 2.08311,1.503149 0.35243,-0.124042 2.59631,-2.814275 2.59631,-3.11276 0,-0.153476 -0.27685,-0.885408 -0.61524,-1.626526 -0.3384,-0.741115 -0.88023,-1.927263 -1.20406,-2.635893 -0.32384,-0.70863 -0.77915,-1.769903 -1.01181,-2.35839 -0.23269,-0.588488 -0.66729,-1.603113 -0.96578,-2.254741 -0.29849,-0.651617 -0.68656,-1.571296 -0.86235,-2.043713 -0.1758,-0.472418 -0.40708,-1.052212 -0.51397,-1.288416 -0.18767,-0.414766 -0.94018,-2.452855 -2.0614,-5.58315 -3.68216,-10.280047 -5.68059,-20.631681 -5.02001,-26.002846 0.60435,-4.9137998 2.14208,-7.6832151 5.06096,-9.1146685 1.52564,-0.7481957 4.18935,-0.8455815 6.26015,-0.2288712 4.59113,1.3672938 11.00551,7.0425345 17.13574,15.1611407 2.24736,2.976317 1.95796,2.787487 2.9896,1.950699 1.57307,-1.275958 3.28315,-2.25099 5.00302,-2.852579 1.53543,-0.537075 1.95042,-0.587784 4.7946,-0.585786 3.56408,0.0022 4.8247,0.266254 7.70623,1.612352 2.90078,1.355092 5.27885,3.085367 8.08867,5.885296 6.26954,6.247467 10.39638,14.140881 12.96842,24.804726 0.55859,2.315961 1.2948,7.558245 1.29674,9.23367 0.002,2.269737 -0.51897,7.554763 -0.94325,9.557295 -1.52464,7.196153 -5.06555,12.462482 -10.21998,15.199975 -1.32287,0.702566 -1.39343,0.779211 -1.35066,1.466729 0.29163,4.686812 0.28973,6.673823 -0.008,8.455968 -0.9525,5.700599 -3.79351,8.73902 -8.19709,8.76667 -3.9347,0.0247 -7.70788,-2.135299 -13.3185,-7.624358 l -1.93746,-1.895479 0.005,2.111097 c 0.005,1.97852 -0.0359,2.177016 -0.64416,3.161029 -1.21741,1.969519 -3.53499,2.960461 -5.7524,2.459616 -3.82526,-0.864041 -11.96243,-5.111492 -16.82327,-8.78144 l -0.89207,-0.673508 -0.71846,0.592095 c -3.87486,3.193253 -9.21321,8.02481 -9.08888,8.225999 0.10781,0.174456 3.55631,2.954309 10.4104,8.391949 5.90226,4.68249 12.79342,10.15704 18.78947,14.92692 15.15544,12.05619 22.78692,18.12292 27.87503,22.15956 3.02497,2.39985 5.69264,4.67515 5.92816,5.05622 0.69445,1.12364 0.76274,2.2102 0.23821,3.78974 -0.72873,2.19441 -1.47499,4.0599 -2.2752,5.6875 -0.40645,0.82673 -0.875,1.938 -1.04117,2.46947 -0.46464,1.48603 -1.87862,4.6554 -4.71985,10.57939 -0.77981,1.62593 -1.41784,2.99721 -1.41784,3.04728 0,0.0501 -0.38654,0.92385 -0.85896,1.94172 -0.47241,1.01789 -0.85893,1.88757 -0.85893,1.93265 0,0.0451 -0.39581,0.93321 -0.87959,1.97361 -1.03203,2.21954 -1.67969,3.63121 -2.34562,5.11269 -0.95758,2.13032 -1.56731,3.46717 -2.38483,5.22867 -0.45763,0.98611 -0.83206,1.82173 -0.83206,1.85696 0,0.0353 -0.54112,1.20936 -1.2025,2.60919 -0.66136,1.39984 -1.63593,3.46317 -2.1657,4.58515 -1.70387,3.60865 -2.29188,4.05099 -5.75811,4.33166 -3.4014,0.27542 -14.914,0.80315 -31.67366,1.45191 -3.01168,0.11658 -6.29715,0.26433 -7.30104,0.32832 -2.02203,0.12891 -8.45209,0.38708 -9.12631,0.36643 -1.18998,-0.0365 -1.83345,-0.31534 -2.54519,-1.10315 -1.69935,-1.88096 -1.20684,-4.32564 1.20171,-5.96496 0.5027,-0.34216 3.23157,-2.25453 6.06415,-4.24969 2.83256,-1.99518 5.58926,-3.87255 6.12597,-4.17194 1.52119,-0.84855 9.35572,-6.20925 10.36582,-7.09268 1.73883,-1.52084 5.519,-4.28687 6.03587,-4.41659 1.01435,-0.25459 3.48882,0.0617 5.79622,0.74076 1.28547,0.37834 2.68493,0.70766 3.10992,0.73182 l 0.7727,0.044 2.19329,-6.54946 c 1.20632,-3.60221 2.19848,-6.70728 2.20482,-6.90014 0.009,-0.28318 -0.63961,-0.10379 -3.37059,0.93175 -1.86014,0.70536 -3.57536,1.36587 -3.81157,1.46782 -0.2362,0.102 -1.78231,0.67959 -3.43579,1.28364 -1.65347,0.60405 -3.19958,1.18447 -3.43577,1.28982 -0.23622,0.10535 -2.02389,0.78191 -3.97264,1.50346 -1.94872,0.72155 -3.88135,1.44655 -4.29473,1.61114 -1.0944,0.43575 -6.63221,2.52046 -9.12631,3.43562 -1.18104,0.43336 -2.26242,0.89912 -2.40305,1.03503 -0.36693,0.35462 -1.03524,3.07083 -1.46088,5.93764 -0.48443,3.26262 -0.854,4.55621 -1.5319,5.36184 -0.77255,0.91813 -1.59427,1.29583 -2.80717,1.29027 -2.13773,-0.0101 -3.07574,-0.81742 -6.85304,-5.90054 -1.05319,-1.41727 -2.21605,-3.10831 -2.58416,-3.75789 -1.74108,-3.07237 -2.67824,-3.10458 -4.41174,-0.1517 -0.93633,1.59498 -3.1979,4.70787 -5.337277,7.34639 -1.866768,2.3023 -3.958004,3.05109 -5.920408,2.11988 -1.408034,-0.66816 -1.801508,-1.55771 -2.457856,-5.55668 -0.872766,-5.3175 -1.209393,-6.50473 -1.953489,-6.88951 -0.314654,-0.16273 -2.150778,-0.88617 -4.080274,-1.60766 -1.929495,-0.72149 -4.667745,-1.74534 -6.085006,-2.27521 -1.417262,-0.52987 -3.301573,-1.23156 -4.187361,-1.55932 -0.885788,-0.32776 -2.81842,-1.05538 -4.294738,-1.61696 -1.476318,-0.56158 -3.263998,-1.23846 -3.972629,-1.5042 -3.060682,-1.14771 -6.599183,-2.4952 -8.643141,-3.29139 -1.9354,-0.75391 -2.201052,-0.81113 -2.201052,-0.47415 0,0.52356 4.219031,13.10861 4.483066,13.37264 0.212801,0.2128 2.211441,-0.22409 5.180079,-1.13234 0.829523,-0.25379 2.014276,-0.4277 2.920318,-0.42867 1.747105,-0.002 1.811628,0.0323 5.454303,2.8973 3.904545,3.07087 11.542814,8.41361 12.551068,8.7791 0.230087,0.0834 1.099772,0.63646 1.932632,1.229 0.832846,0.59255 3.495223,2.47561 5.916388,4.18458 2.421147,1.70899 4.677814,3.30772 5.014794,3.55273 0.9042,0.65742 1.508,2.16958 1.344013,3.36598 -0.140725,1.02676 -0.909559,2.22811 -1.697018,2.65171 -0.491011,0.26415 -2.018476,0.60441 -2.145036,0.47784 z m -13.595244,-8.08201 c -0.186911,-0.44228 -2.089121,-1.85647 -6.959378,-5.17395 -2.539264,-1.72966 -5.389891,-3.71222 -6.334735,-4.40571 -0.944845,-0.69346 -2.008015,-1.3245 -2.362598,-1.40228 -0.440935,-0.0968 -1.900157,0.17504 -4.616835,0.85985 -2.18467,0.5507 -4.40698,1.00538 -4.938454,1.01041 -1.284597,0.0122 -2.4117,-0.55851 -3.118969,-1.57911 -0.368667,-0.53199 -2.063387,-5.25985 -4.670435,-13.02943 -3.736214,-11.13475 -4.093387,-12.32833 -4.110136,-13.7348 -0.01473,-1.23949 0.06807,-1.65629 0.424409,-2.13409 0.878846,-1.17866 1.5106,-1.48056 3.063237,-1.46381 1.477679,0.0159 2.975066,0.52365 14.639263,4.96359 1.712521,0.65186 3.741783,1.42147 4.50947,1.71021 0.767676,0.28874 1.733991,0.65821 2.147364,0.82102 0.413371,0.16282 1.959469,0.75031 3.435787,1.30554 1.476307,0.55523 4.133672,1.57234 5.905248,2.26026 1.771578,0.68792 5.057047,1.93701 7.301051,2.77576 6.18566,2.31204 6.328689,2.37586 7.0951,3.165 0.556999,0.57351 0.91733,1.35906 1.634183,3.5626 0.505791,1.55478 0.949291,2.86941 0.985542,2.92144 0.118542,0.17009 0.638064,-0.50339 1.232501,-1.59775 1.129154,-2.07873 3.175344,-4.4183 4.419304,-5.05291 0.4263,-0.21749 1.5641,-0.5553 2.52843,-0.75071 1.62791,-0.32984 1.88004,-0.33005 3.52491,-0.003 1.02941,0.20481 2.17413,0.59774 2.73249,0.93793 1.22365,0.74554 3.20506,3.09895 4.16129,4.94256 0.40768,0.786 0.84876,1.42909 0.98017,1.42909 0.13141,0 0.65604,-1.21848 1.16584,-2.7077 1.36957,-4.00083 1.46961,-4.10291 5.50861,-5.62109 1.122,-0.42173 3.87599,-1.45686 6.11999,-2.30028 2.244,-0.84342 4.90138,-1.85586 5.90526,-2.24985 1.00389,-0.39401 3.66125,-1.40853 5.90526,-2.2545 2.24399,-0.84595 4.41821,-1.66972 4.83156,-1.83057 3.31143,-1.28857 6.64674,-2.54243 10.5221,-3.95563 1.3582,-0.49528 2.66274,-0.98338 2.89894,-1.08465 4.49687,-1.92798 6.56677,-1.93997 8.01106,-0.0464 0.49671,0.65122 0.57677,0.95785 0.5668,2.17083 -0.0101,1.24862 -0.49426,2.85208 -4.17093,13.8184 -4.65948,13.89778 -4.60714,13.78534 -6.72539,14.448 l -1.11732,0.34954 -4.44603,-1.09984 c -2.99447,-0.74078 -4.64199,-1.05273 -5.04629,-0.95548 -0.33017,0.0795 -1.13177,0.52554 -1.78135,0.99137 -1.85729,1.33192 -5.83645,4.09099 -9.23367,6.40241 -2.88164,1.96064 -4.8756,3.56142 -4.6799,3.7571 0.0449,0.0449 2.39658,-0.0572 5.22601,-0.22671 2.82942,-0.16959 6.9804,-0.40869 9.2244,-0.53134 2.244,-0.12265 5.67442,-0.31709 7.62315,-0.43209 1.94874,-0.11502 5.15,-0.26976 7.11395,-0.3439 1.96394,-0.0742 3.66668,-0.19607 3.78387,-0.27096 0.17901,-0.11435 2.20111,-4.20644 2.20111,-4.45433 0,-0.0451 0.34835,-0.83138 0.77409,-1.7472 0.73389,-1.57862 1.06025,-2.28585 2.45287,-5.31564 0.32572,-0.70863 0.99948,-2.15809 1.49725,-3.22104 0.49776,-1.06295 1.19442,-2.56074 1.54813,-3.32842 0.35371,-0.76768 1.94958,-4.19811 3.5464,-7.62315 1.59681,-3.42504 3.24102,-6.95209 3.65381,-7.83789 0.41276,-0.88578 0.9918,-2.14199 1.28677,-2.79157 0.29494,-0.64958 0.65826,-1.32601 0.80736,-1.50316 0.30736,-0.36518 2.06237,-4.39194 2.47562,-5.68019 0.21126,-0.65852 0.21417,-0.86798 0.0131,-0.93504 -0.36498,-0.12166 -15.63182,-12.24553 -17.82697,-14.15696 -0.99642,-0.86762 -2.92905,-2.41715 -4.29474,-3.44338 -2.96875,-2.23084 -10.75887,-8.32379 -13.3599,-10.44931 -1.02183,-0.83503 -2.423,-1.96286 -3.11368,-2.50626 -0.69069,-0.54341 -4.348,-3.44741 -8.12737,-6.45331 -3.77937,-3.0059 -8.21812,-6.52318 -9.8639,-7.81617 -4.83341,-3.79736 -5.96607,-4.83765 -6.65614,-6.11344 -0.71526,-1.32237 -0.8482,-2.773017 -0.34584,-3.773804 0.80877,-1.611232 4.1139,-5.0896 9.3501,-9.840219 1.41725,-1.285831 2.60508,-2.452316 2.63957,-2.592203 0.0345,-0.139887 -0.86072,-1.102017 -1.9894,-2.138062 -1.69565,-1.556507 -2.10671,-1.838481 -2.36616,-1.623131 -0.94781,0.7866 -8.0904,10.568086 -10.83287,14.835166 -1.91165,2.974369 -2.20007,3.121634 -6.72559,3.434374 -3.95254,0.273109 -3.2402,0.272959 -7.16616,8.9e-4 -4.489054,-0.31023 -5.241042,-0.665694 -6.622504,-3.130141 -0.862828,-1.539249 -4.075419,-6.106393 -7.081329,-10.067102 -1.423489,-1.875636 -2.903155,-3.832407 -3.288147,-4.348403 -0.384983,-0.516005 -0.771515,-0.937509 -0.858939,-0.936704 -0.187647,0.0018 -3.954797,3.390075 -4.175978,3.756057 -0.09307,0.153978 0.654507,0.985266 1.932631,2.149085 9.574576,8.718359 11.01631,10.568327 10.241793,13.141857 -0.54487,1.81042 -1.276236,2.54703 -7.251371,7.30332 -6.802588,5.41494 -10.880194,8.66158 -18.299703,14.57044 -8.837575,7.03821 -11.639121,9.23478 -15.246297,11.95395 -1.88969,1.42446 -4.160523,3.23295 -5.046311,4.01882 -0.885789,0.78588 -2.77011,2.3498 -4.187372,3.47538 -9.513451,7.55553 -13.254077,10.4981 -13.570152,10.67498 -0.603324,0.33764 -0.17985,1.4934 2.726337,7.44087 1.949489,3.98951 4.079615,8.49426 4.079615,8.62741 0,0.0507 0.628105,1.40462 1.395788,3.00873 0.767683,1.6041 1.395787,2.94287 1.395787,2.97505 0,0.0557 0.789563,1.75433 2.790644,6.00342 0.500589,1.06295 1.178376,2.51242 1.506188,3.22105 0.327811,0.70864 0.978022,2.10979 1.444892,3.11369 0.466882,1.00389 1.649391,3.61295 2.627805,5.79788 0.978412,2.18494 1.913906,4.08182 2.078865,4.21524 0.179189,0.14495 1.745565,0.29724 3.89102,0.37831 1.975105,0.0746 5.185514,0.2298 7.134248,0.34482 1.948736,0.115 5.379156,0.31229 7.623149,0.43844 2.243994,0.12613 6.157567,0.35657 8.69683,0.51205 2.539264,0.15551 4.879543,0.29526 5.200625,0.3106 0.391432,0.0188 0.546405,-0.0605 0.470341,-0.24051 z M 61.646828,160.71161 c -5.293505,-1.53289 -8.76891,-4.71756 -10.377469,-9.50938 -2.001976,-5.9638 0.314755,-12.7133 5.57034,-16.22844 1.892268,-1.26563 3.43676,-1.87629 5.908352,-2.33607 5.365496,-0.9981 11.475857,1.94344 14.380004,6.92256 1.421056,2.43639 1.813281,4.02589 1.801619,7.30105 -0.0089,2.49664 -0.07175,2.95758 -0.59467,4.36285 -1.483247,3.98569 -4.014209,6.79932 -7.640658,8.49398 -2.796134,1.30667 -6.544556,1.71826 -9.047518,0.99345 z m 6.462254,-8.06793 c 4.43911,-2.41377 4.595823,-9.00948 0.275686,-11.60297 -1.567559,-0.94105 -3.33841,-1.28706 -4.812886,-0.94039 -2.724546,0.64056 -4.483892,2.19786 -5.218301,4.61903 -0.865122,2.85212 0.215379,5.86448 2.751183,7.67013 0.983312,0.70019 2.429242,1.02502 4.229399,0.95017 1.302508,-0.0542 1.844627,-0.19012 2.774919,-0.69597 z m 76.991498,8.36009 c -4.23402,-0.86489 -6.17316,-1.82386 -8.59953,-4.25272 -2.77637,-2.7792 -4.17729,-6.09421 -4.17729,-9.88463 0,-2.54736 0.33764,-4.05519 1.39563,-6.23245 2.21702,-4.56245 5.86226,-7.23 11.01503,-8.06072 1.4598,-0.23534 2.07978,-0.2379 3.43579,-0.0141 5.72338,0.94416 9.65943,4.04547 11.70889,9.22574 0.57269,1.44752 0.66051,1.96573 0.74557,4.40012 0.11048,3.16217 -0.18386,4.65202 -1.38524,7.01116 -1.95706,3.84307 -5.10447,6.30319 -9.6082,7.5101 -1.47643,0.39566 -3.42428,0.5236 -4.53065,0.29761 z m 4.64569,-8.38098 c 1.57023,-0.85463 2.61605,-2.14443 3.19253,-3.93725 0.57672,-1.7936 0.48418,-3.16265 -0.32753,-4.84506 -0.97459,-2.02001 -2.55031,-3.2345 -4.86319,-3.7483 -1.04657,-0.2325 -1.42043,-0.21963 -2.65963,0.0916 -3.26413,0.81992 -5.24891,3.30431 -5.24891,6.57012 0,2.94559 1.6568,5.31655 4.44562,6.3619 1.32286,0.49584 4.1058,0.24459 5.46111,-0.49307 z M 36.958927,93.080807 c 0.689916,-0.348268 1.967526,-1.205197 2.839135,-1.904273 2.208484,-1.771338 6.680328,-6.453553 8.469727,-8.868159 0.228837,-0.308779 0.992753,-1.323406 1.697589,-2.254733 2.02962,-2.681748 3.764817,-5.28729 3.76437,-5.652494 -2.12e-4,-0.184548 -0.494334,-0.672166 -1.097999,-1.083623 l -1.097596,-0.748095 -1.093144,1.284937 c -4.24712,4.992298 -9.300735,8.520301 -13.993798,9.769299 -0.943,0.250967 -1.764369,0.506075 -1.82526,0.566929 -0.244698,0.24448 -0.564231,5.433575 -0.421144,6.839217 0.196766,1.932964 0.494219,2.684199 1.062816,2.684199 0.242499,0 1.005388,-0.284936 1.695304,-0.633204 z m 139.756663,0.05207 c 0.31945,-0.487537 0.38006,-1.06658 0.37647,-3.596846 -0.002,-1.658667 -0.0796,-3.553341 -0.17149,-4.210396 l -0.16723,-1.194648 -2.00105,-0.562429 c -2.3764,-0.667925 -3.52029,-1.176237 -5.79958,-2.577137 -2.81883,-1.732519 -5.97671,-4.567896 -8.31146,-7.462605 l -0.77929,-0.96621 -1.20701,0.831306 c -0.66386,0.457218 -1.20702,0.903548 -1.20702,0.99185 0,0.231812 3.99836,5.879895 5.48847,7.753017 4.30414,5.41042 8.26171,9.195912 11.36062,10.86662 1.58371,0.853824 1.93066,0.872119 2.41857,0.127478 z M 61.990375,89.097222 c 3.367089,-1.844949 5.909745,-3.529292 5.911319,-3.915851 0.0011,-0.307329 -2.343124,-2.203845 -2.724535,-2.204042 -0.339083,-1.88e-4 -1.760997,0.816678 -2.399033,1.378212 -1.048673,0.922891 -4.487185,6.352162 -4.023014,6.352162 0.162863,0 1.618736,-0.724718 3.235263,-1.610481 z m 90.733355,1.467069 c 0,-0.22257 -2.48364,-4.132096 -3.38753,-5.332372 -0.44472,-0.590521 -1.13465,-1.23744 -1.53317,-1.437599 -0.39855,-0.20015 -0.82659,-0.465896 -0.95122,-0.590529 -0.12464,-0.124633 -0.38365,-0.226596 -0.57559,-0.226596 -0.3532,0 -2.83472,1.809172 -2.96323,2.160366 -0.0803,0.219608 3.43936,2.563126 5.65285,3.763796 0.82672,0.448442 1.88967,1.034239 2.36209,1.301783 0.86416,0.489381 1.3958,0.626933 1.3958,0.361151 z M 76.446945,78.309814 c 1.265011,-1.1498 2.420816,-2.205841 2.568445,-2.346765 0.147641,-0.140934 0.268421,-0.412218 0.268421,-0.602867 0,-0.29526 -2.61853,-3.569291 -8.462045,-10.58035 -1.00649,-1.207594 -1.351119,-1.495617 -1.541634,-1.288417 -0.204856,0.222776 -3.046477,5.183484 -4.684296,8.177518 l -0.450945,0.824372 0.751573,0.608342 c 2.700898,2.186149 9.137062,7.298652 9.188374,7.29867 0.03415,9e-6 1.097084,-0.940712 2.362107,-2.090503 z m 63.285215,0.149138 c 0.94485,-0.773762 2.99826,-2.408711 4.56315,-3.633214 1.5649,-1.224512 2.84526,-2.333972 2.84526,-2.465467 0,-0.131495 -0.13648,-0.433939 -0.30327,-0.672094 -0.52796,-0.75374 -4.42093,-7.633841 -4.42093,-7.813128 0,-0.09441 -0.13335,-0.282235 -0.29632,-0.417505 -0.23911,-0.198433 -1.08111,0.698486 -4.35986,4.644236 -5.33877,6.424824 -5.86645,7.108379 -5.74057,7.43641 0.10947,0.285401 3.24591,3.222249 4.56279,4.27251 0.6173,0.492306 0.79937,0.546468 1.08669,0.323236 0.18985,-0.147473 1.11823,-0.901222 2.06306,-1.674984 z M 34.017508,76.512469 c 1.413633,-0.294866 4.228088,-1.605953 5.628408,-2.621923 2.389426,-1.733601 4.830855,-4.43844 7.588846,-8.407594 0.745547,-1.072976 1.293781,-1.60912 2.039617,-1.994641 0.561002,-0.289973 1.019993,-0.612037 1.019993,-0.715691 0,-0.180262 0.785187,0.102446 2.323763,0.836763 0.392269,0.187214 0.908086,0.614041 1.146241,0.948514 0.513316,0.720888 3.713594,3.172989 4.141116,3.172989 0.163576,0 0.5302,-0.410678 0.814713,-0.912629 1.9537,-3.446805 3.664313,-6.534785 4.461115,-8.053206 l 0.929959,-1.772157 -0.431172,-0.482573 c -0.23714,-0.265417 -1.787021,-2.028681 -3.444181,-3.91836 -1.657157,-1.889689 -3.520309,-3.861769 -4.140333,-4.382418 -1.646892,-1.382901 -1.721225,-1.668049 -1.721225,-6.603023 0,-4.393223 -0.127934,-5.520079 -0.995755,-8.77034 -0.772442,-2.893044 -1.852506,-4.884653 -3.621081,-6.677199 -1.804129,-1.828591 -3.214551,-2.467174 -5.464838,-2.474293 -1.440663,-0.0045 -3.365156,0.363689 -3.561562,0.681479 -0.05915,0.09564 0.225511,0.784393 0.632565,1.530431 1.209837,2.217334 1.491493,3.65649 1.484238,7.5838 -0.0089,4.685503 -0.754678,8.641113 -2.566889,13.610156 -0.414332,1.136096 -0.857717,2.355511 -0.985294,2.709827 -0.546607,1.518053 -3.677264,7.375938 -5.022521,9.39784 -1.970701,2.961906 -5.659129,6.654337 -7.599882,7.608093 -0.767685,0.377272 -1.85643,0.799832 -2.419438,0.939039 -0.563006,0.139207 -1.069679,0.327574 -1.125942,0.418605 -0.05627,0.09105 0.04827,0.538148 0.232277,0.993594 2.377545,5.884556 5.93527,8.339852 10.657262,7.354917 z M 182.57211,75.958513 c 1.75343,-0.851659 3.42825,-2.67825 4.59768,-5.014307 1.24055,-2.478108 1.2664,-2.926961 0.18022,-3.128633 -2.67112,-0.495956 -6.03969,-2.990186 -8.66968,-6.419411 -6.07018,-7.914818 -10.28592,-19.392106 -10.27921,-27.984987 0.003,-3.681018 0.48972,-5.764158 1.88018,-8.04508 0.27268,-0.447285 0.44562,-0.894391 0.38432,-0.993578 -0.33111,-0.535758 -3.92228,-0.893767 -5.39632,-0.537967 -3.7767,0.911588 -6.57125,4.984498 -7.94438,11.578479 -0.26641,1.279341 -0.35605,2.814249 -0.35112,6.012618 0.008,5.048264 -0.11104,5.491175 -1.86676,6.961188 -1.06073,0.888087 -6.98433,7.427756 -7.55337,8.338899 -0.28102,0.450013 -0.36995,0.253143 2.54624,5.636736 0.97025,1.791207 2.82485,4.971095 3.09143,5.300611 0.26498,0.32753 3.52694,-1.96757 4.37298,-3.076797 0.51175,-0.670932 2.45215,-1.794339 3.09927,-1.794339 0.10836,0 0.75792,0.329453 1.44336,0.732116 1.01255,0.594841 1.45676,1.055334 2.36897,2.455742 3.52609,5.413346 8.29115,9.388637 12.55062,10.470479 1.69618,0.430808 4.08163,0.219269 5.54557,-0.491769 z M 86.092525,67.569841 c 1.975608,-2.917148 3.620211,-6.330305 4.03529,-8.374734 0.177325,-0.873381 -0.174011,-0.912861 -1.717699,-0.193029 -2.034886,0.948889 -7.408405,5.34555 -7.408405,6.061625 0,0.388822 3.241477,4.385075 3.556869,4.385075 0.143801,0 0.834075,-0.845522 1.533945,-1.878937 z m 42.663195,-0.247254 c 0.89948,-1.110363 1.63539,-2.138071 1.63539,-2.2838 0,-0.145738 -0.60945,-0.831672 -1.35434,-1.524326 -3.5292,-3.281662 -7.87932,-5.886309 -7.87932,-4.717758 0,0.633052 0.91037,3.203775 1.66188,4.692842 1.46211,2.897036 3.58988,6.020793 4.02991,5.916254 0.1491,-0.03543 1.00701,-0.972866 1.90648,-2.083212 z M 24.218811,59.302483 c 2.545423,-2.230012 4.483486,-4.91792 6.591518,-9.141817 3.170188,-6.352156 4.907613,-13.045806 4.612798,-17.771382 -0.114139,-1.829449 -0.400539,-2.666783 -0.91215,-2.666783 -0.168989,0 -1.196078,0.745747 -2.282421,1.657202 -2.234647,1.874903 -3.422897,3.521807 -5.443162,7.544142 -2.308956,4.597106 -3.544221,8.593092 -4.597931,14.873927 -0.294315,1.754313 -0.310915,5.124754 -0.0289,5.866515 0.299746,0.788389 0.85959,0.690077 2.060245,-0.361804 z m 164.876849,0.536842 c 0.41632,-1.417282 0.25643,-5.850535 -0.30012,-8.321045 -1.67264,-7.424823 -3.62199,-12.340789 -6.78088,-17.100236 -1.0011,-1.508334 -4.5708,-4.695543 -5.25906,-4.695543 -0.57878,0 -0.8407,1.136409 -0.83637,3.628881 0.0126,7.247198 4.18355,18.221044 9.04977,23.810065 2.26007,2.595785 3.84807,3.626275 4.12666,2.677878 z M 68.002017,48.849778 c 0.178766,-0.345679 0.766695,-1.674367 1.306527,-2.952636 0.539832,-1.27827 1.113387,-2.614023 1.274564,-2.968339 0.161178,-0.354315 0.434385,-1.030729 0.607146,-1.503156 0.17275,-0.472418 0.672395,-1.825255 1.11034,-3.006314 0.944723,-2.547769 2.610072,-7.506333 3.029035,-9.01893 1.117751,-4.035423 1.355583,-5.051768 2.110559,-9.01894 0.472941,-2.485217 0.747589,-6.510223 0.540669,-7.923808 -0.425535,-2.9070442 -0.730092,-3.1535856 -2.681192,-2.170436 -2.293877,1.15588 -4.995422,3.472621 -8.11794,6.96164 -3.199852,3.575415 -7.653681,9.345176 -7.653681,9.915027 0,0.101663 0.326171,1.177889 0.724813,2.391691 1.227593,3.737865 1.662927,6.535785 1.735754,11.156072 l 0.04966,3.151263 2.644622,2.807675 c 1.454545,1.544235 2.72325,2.807695 2.819357,2.807695 0.09608,0 0.321004,-0.282826 0.499757,-0.628504 z m 78.666913,-2.184504 2.60817,-2.705642 0.10212,-3.811172 c 0.0562,-2.096141 0.20959,-4.357345 0.34098,-5.024887 0.63091,-3.205376 0.97237,-4.573871 1.54941,-6.209781 l 0.62611,-1.775026 -1.23026,-1.768128 C 145.08595,17.351839 137.2663,9.7838258 134.53234,9.7567158 c -0.63467,-0.0063 -0.83258,0.4269642 -1.15392,2.5260352 -0.21845,1.427003 -0.21798,2.23634 0.002,4.182473 0.91102,8.044455 3.24705,16.308429 7.63237,27.00042 1.65672,4.039297 2.63682,6.072197 2.87992,5.97339 0.0921,-0.03749 1.34128,-1.285656 2.7758,-2.77376 z"
       id="path867" />
    <path
       style="fill:#d900d6;fill-opacity:1;stroke-width:10.1262;paint-order:stroke fill markers"
       d="m 62.89969,197.67875 c -7.581224,-0.44034 -13.896574,-0.91314 -14.034113,-1.05068 -0.137536,-0.13755 -3.130849,-6.49436 -6.651803,-14.12627 -3.520952,-7.63191 -8.056995,-17.36895 -10.080094,-21.63785 -2.0231,-4.26891 -3.603139,-7.82697 -3.511205,-7.90678 0.572696,-0.49728 27.960197,-22.2612 42.467697,-33.74764 19.278988,-15.26431 20.771621,-16.56109 21.248249,-18.46014 0.6461,-2.574242 -0.195928,-3.904026 -6.131979,-9.684079 L 80.39026,85.402 82.315571,83.52199 c 1.058921,-1.034015 2.009018,-1.784346 2.111325,-1.667416 1.029392,1.176514 8.909691,12.105026 10.301808,14.286694 0.99448,1.558501 2.316457,3.026911 2.937734,3.263116 1.960437,0.745356 7.891882,1.123556 11.831352,0.754396 4.57068,-0.428299 4.74204,-0.576759 11.03625,-9.561074 2.34541,-3.347822 4.76628,-6.706093 5.37973,-7.462812 l 1.11536,-1.375859 1.951,1.70066 1.95099,1.700679 -5.98675,6.072066 c -5.6597,5.740339 -5.98677,6.179557 -5.98677,8.039626 0,1.288664 0.37192,2.440364 1.07788,3.337864 0.98392,1.25084 14.80749,12.43139 35.60797,28.79984 17.11812,13.47069 26.84713,21.39937 26.84713,21.87911 0,0.42232 -4.64629,10.53172 -17.62712,38.35308 -1.83226,3.92704 -2.57102,5.03684 -3.46875,5.21098 -1.5642,0.30342 -30.83475,1.80893 -31.0468,1.59686 -0.14199,-0.14197 12.3983,-9.09135 14.41841,-10.2897 0.35194,-0.20877 2.82681,0.11626 5.49971,0.72229 5.67738,1.28725 6.73305,1.04978 8.1978,-1.84406 1.70674,-3.37192 8.38786,-24.05926 8.38786,-25.97207 0,-3.91395 -3.17269,-4.48939 -10.09179,-1.83034 -2.37892,0.91423 -11.69269,4.45185 -20.69726,7.86139 -9.00459,3.40953 -16.83378,6.49361 -17.39822,6.85349 -0.56445,0.35988 -1.53647,2.01858 -2.16003,3.68599 -0.92938,2.48512 -1.22893,2.89127 -1.66167,2.25296 -3.82652,-5.64428 -4.90893,-6.38179 -9.41112,-6.41233 -3.475,-0.0236 -4.77198,0.70668 -7.422014,4.17899 -0.904072,1.1846 -1.806503,2.21638 -2.005417,2.29285 -0.198903,0.0764 -0.836957,-1.16456 -1.41789,-2.75784 -1.247636,-3.42176 -0.297011,-2.88085 -14.725895,-8.37919 -33.612386,-12.80849 -33.741641,-12.84221 -35.138142,-9.16914 -0.657021,1.7281 0.317694,5.42506 4.913126,18.63479 3.337134,9.59272 3.640124,10.24109 5.11423,10.94404 1.441765,0.68753 1.939359,0.66116 6.229025,-0.33008 3.797746,-0.87759 4.8703,-0.96867 5.78516,-0.49126 1.094519,0.57115 11.202241,7.54134 13.529045,9.32949 l 1.165518,0.8957 -2.387306,-0.0732 c -1.313016,-0.0403 -8.590125,-0.43349 -16.17135,-0.87382 z m 7.675104,-37.73379 c 2.840918,-1.23155 5.623061,-3.9384 7.209174,-7.01407 1.823296,-3.5356 1.778148,-8.86495 -0.107755,-12.7196 -2.474353,-5.05739 -8.640701,-8.52557 -14.024571,-7.88794 -4.915606,0.58219 -9.605361,3.7312 -11.766699,7.90094 -1.414457,2.72883 -1.723021,8.14707 -0.648249,11.3829 1.462047,4.40182 5.785246,8.20051 10.728247,9.42667 2.132008,0.52887 6.009154,0.0386 8.609853,-1.0889 z M 153.146,159.38997 c 13.3598,-6.65637 8.39259,-27.02976 -6.57598,-26.9719 -6.00704,0.0233 -10.38,2.81135 -13.00998,8.29494 -1.52227,3.17396 -1.83968,6.73112 -0.90194,10.10742 0.82118,2.95661 3.49481,6.37103 6.33007,8.08396 4.91404,2.96882 8.89946,3.10551 14.15783,0.48558 z"
       id="path869" />
    <path
       style="fill:#d900d6;fill-opacity:1;stroke-width:10.9203;paint-order:stroke fill markers"
       d="m 134.64966,77.74387 c -2.45494,-2.129894 -2.57232,-2.342463 -1.79817,-3.256514 0.45553,-0.537844 2.68184,-3.191026 4.94737,-5.895981 l 4.11912,-4.918087 2.2758,3.864006 c 1.25168,2.125206 2.28644,4.145237 2.29947,4.488952 0.0185,0.488468 -4.97961,4.864131 -8.68134,7.600175 -0.29472,0.217846 -1.71775,-0.629303 -3.16225,-1.882551 z"
       id="path871" />
    <path
       style="fill:#d900d6;fill-opacity:1;stroke-width:10.9203;paint-order:stroke fill markers"
       d="m 175.00747,75.352372 c -3.25977,-1.519844 -6.43777,-4.243577 -8.75651,-7.504851 -2.41062,-3.390451 -4.37095,-5.136327 -5.77115,-5.139798 -0.58181,-0.0018 -2.35517,1.061587 -3.94081,2.362278 -3.38763,2.778871 -3.1242,2.918928 -6.55695,-3.486277 l -2.43696,-4.547149 4.75633,-5.299192 4.75635,-5.299191 v -3.91657 c 0,-5.454535 0.76064,-9.033019 2.76206,-12.994233 2.03331,-4.024343 4.07531,-5.479437 7.61443,-5.425936 1.29481,0.01957 2.47187,0.153286 2.61573,0.297138 0.14385,0.143849 -0.16911,1.054384 -0.69549,2.023409 -1.43844,2.648152 -1.29199,11.452265 0.28339,17.036512 3.14304,11.141087 10.38806,21.980486 16.06338,24.032707 1.15563,0.417872 1.92492,1.043409 1.92492,1.565185 0,0.969117 -2.40013,4.440703 -4.13383,5.979281 -1.69108,1.500734 -5.63001,1.647751 -8.48489,0.316687 z"
       id="path873" />
    <path
       style="fill:#d900d6;fill-opacity:1;stroke-width:10.9203;paint-order:stroke fill markers"
       d="m 69.194883,76.182076 -4.814202,-3.78932 0.936234,-1.549815 c 0.514928,-0.852392 1.653912,-2.826287 2.531076,-4.386425 l 1.594844,-2.836621 4.323578,5.208302 c 2.377968,2.864569 4.532893,5.592919 4.78872,6.06302 0.358222,0.658228 -0.110808,1.340342 -2.040452,2.967436 l -2.505595,2.112762 z"
       id="path875" />
    <path
       style="fill:#d900d6;fill-opacity:1;stroke-width:10.9203;paint-order:stroke fill markers"
       d="m 29.513632,76.034298 c -1.912576,-0.703246 -5.797461,-5.379125 -5.797461,-6.977894 0,-0.527019 0.777949,-1.147975 1.976408,-1.577549 1.139943,-0.408594 3.426275,-2.182097 5.40218,-4.190444 2.690653,-2.734845 4.073543,-4.782629 6.444495,-9.543016 4.043762,-8.119049 5.344581,-12.962548 5.378818,-20.027593 0.02084,-4.301691 -0.177637,-5.909518 -0.891352,-7.220651 -1.182817,-2.172886 -1.205086,-2.104353 0.778348,-2.395459 2.754702,-0.404303 4.946966,0.521801 7.144224,3.018017 2.707982,3.07643 3.808385,6.676502 4.191468,13.712782 l 0.315615,5.797082 4.667081,5.199743 4.66708,5.199741 -2.448995,4.55091 c -3.395342,6.309495 -3.281994,6.228628 -5.766491,4.113871 -2.825232,-2.404774 -4.329947,-3.133813 -5.738472,-2.780293 -0.653174,0.163935 -2.553489,2.081369 -4.222923,4.26096 -3.370957,4.40108 -5.8963,6.613219 -9.326452,8.169717 -2.207797,1.001834 -5.119057,1.298427 -6.773571,0.690076 z"
       id="path877" />
    <path
       style="fill:#ff9b00;fill-opacity:1;stroke-width:10.9203;paint-order:stroke fill markers"
       d="m 22.371277,59.377374 c -0.585926,-1.494239 0.187572,-7.265978 1.650116,-12.312903 1.801997,-6.218324 5.020596,-12.250632 8.003482,-15.000161 2.396725,-2.20922 2.424834,-2.219058 2.953706,-1.033812 0.365346,0.818771 0.346701,2.481362 -0.05905,5.265192 -1.160716,7.96366 -4.841645,16.198461 -9.436944,21.111878 -2.332822,2.49431 -2.791716,2.784838 -3.11131,1.969806 z"
       id="path879" />
    <path
       style="fill:#ff9b00;fill-opacity:1;stroke-width:10.9203;paint-order:stroke fill markers"
       d="m 185.67107,57.238292 c -3.13239,-3.42734 -5.90643,-8.599131 -7.72414,-14.400514 -1.60805,-5.132276 -2.28827,-10.659458 -1.48666,-12.08009 0.51146,-0.906436 0.80339,-0.740812 3.35958,1.906034 3.23295,3.347603 5.65158,8.018371 7.55711,14.593969 1.50809,5.204084 2.279,11.945683 1.42628,12.472692 -0.30035,0.185622 -1.70983,-0.935818 -3.13217,-2.492091 z"
       id="path881" />
    <path
       style="fill:#ff9b00;fill-opacity:1;stroke-width:10.9203;paint-order:stroke fill markers"
       d="m 144.10054,152.58575 c -3.89547,-1.64476 -5.21689,-6.55289 -2.60119,-9.66148 2.84364,-3.37946 6.92545,-3.52125 9.72069,-0.33766 3.3775,3.84678 1.24792,9.51324 -3.91255,10.41063 -0.86962,0.15124 -2.31275,-0.0339 -3.20695,-0.41149 z"
       id="path883" />
    <path
       style="fill:#ff9b00;fill-opacity:1;stroke-width:10.9203;paint-order:stroke fill markers"
       d="m 60.292877,151.03732 c -1.462124,-1.46212 -1.791942,-2.19447 -1.791942,-3.97898 0,-2.9168 1.142721,-4.96882 3.350445,-6.01645 2.247709,-1.06661 3.644665,-1.087 5.588903,-0.0816 2.449173,1.26651 3.709656,3.28205 3.709656,5.93177 0,1.97359 -0.289137,2.64246 -1.791942,4.14526 -1.578421,1.57843 -2.118501,1.79194 -4.532559,1.79194 -2.414059,0 -2.954136,-0.21351 -4.532561,-1.79194 z"
       id="path885" />
  </g>
</svg>
