<?xml version="1.0" encoding="UTF-8" standalone="no"?>
<svg
   xmlns:dc="http://purl.org/dc/elements/1.1/"
   xmlns:cc="http://creativecommons.org/ns#"
   xmlns:rdf="http://www.w3.org/1999/02/22-rdf-syntax-ns#"
   xmlns:svg="http://www.w3.org/2000/svg"
   xmlns="http://www.w3.org/2000/svg"
   xmlns:sodipodi="http://sodipodi.sourceforge.net/DTD/sodipodi-0.dtd"
   xmlns:inkscape="http://www.inkscape.org/namespaces/inkscape"
   width="210mm"
   height="220mm"
   viewBox="0 0 210 220"
   version="1.1"
   id="svg8"
   inkscape:version="1.0.2 (e86c8708, 2021-01-15)">
  <defs
     id="defs2" />
  <sodipodi:namedview
     id="base"
     pagecolor="#000000"
     bordercolor="#666666"
     borderopacity="1.0"
     inkscape:pageopacity="1"
     inkscape:pageshadow="2"
     inkscape:zoom="0.39160853"
     inkscape:cx="552.19389"
     inkscape:cy="662.20659"
     inkscape:document-units="mm"
     inkscape:current-layer="layer2"
     inkscape:document-rotation="0"
     showgrid="false"
     inkscape:window-width="1252"
     inkscape:window-height="872"
     inkscape:window-x="0"
     inkscape:window-y="0"
     inkscape:window-maximized="0" />
  <metadata
     id="metadata5">
    <rdf:RDF>
      <cc:Work
         rdf:about="">
        <dc:format>image/svg+xml</dc:format>
        <dc:type
           rdf:resource="http://purl.org/dc/dcmitype/StillImage" />
        <dc:title></dc:title>
      </cc:Work>
    </rdf:RDF>
  </metadata>
  <g
     inkscape:groupmode="layer"
     id="layer2"
     inkscape:label="Layer 2">
    <path
       style="fill:#8c8c8c;fill-opacity:1;stroke:#000000;stroke-width:0.26458300000000001px;stroke-linecap:butt;stroke-linejoin:miter;stroke-opacity:1"
       d="m 17.742427,209.82349 c 2.37708,-5.00898 6.98391,-9.2844 11.571149,-12.34256 2.152438,-1.43496 4.066548,-3.79831 6.556984,-4.62846 3.927739,-1.30924 7.960394,-3.44346 11.956854,-4.24275 2.945339,-0.58907 4.768236,-2.47214 8.485507,-1.54282 2.917923,0.72948 3.667974,5.3526 5.399871,5.78557 0.748376,0.1871 1.54478,-0.055 2.314228,0 3.216585,0.22976 6.429108,0.17147 9.642623,0.38571 2.78447,0.18563 5.364274,0.70119 8.099806,1.15711 0.629563,0.10493 0.69392,-0.37021 0.771409,-0.3857 11.427706,-2.28555 -7.729641,3.4012 11.956854,-2.31423 4.388273,-1.27402 2.601235,-1.63103 6.171278,-1.92853 1.54882,-0.12906 3.90263,-0.25597 5.39987,0.38571 1.13391,0.48596 1.78723,1.35733 3.08564,1.54282 3.41082,0.48726 6.9861,1.16193 10.41403,1.54282 0.74174,0.0824 9.02718,-0.22975 9.25692,0 0.0909,0.0909 -0.12857,0.3857 0,0.3857 0.12857,0 -0.0909,-0.29479 0,-0.3857 0.15105,-0.15105 2.8524,-0.77141 3.47135,-0.77141 3.54796,0 6.9619,0.69042 10.41403,0 0.63036,-0.12607 1.33166,0.23874 1.92852,0 0.86081,-0.34433 1.46208,-1.17761 2.31423,-1.54282 0.17529,-0.0751 2.00547,-0.46265 2.31423,-0.77141 0.97017,-0.97017 1.87597,-3.25221 3.08564,-3.85705 0.61927,-0.30964 1.25265,-0.62122 1.92853,-0.77141 1.51629,-0.33696 1.61765,0.22259 3.08564,0.3857 2.45685,0.27299 4.89713,-0.34367 7.32839,0.38571 2.47718,0.74315 8.95292,5.09587 10.79974,6.94269 0.32779,0.32778 0.39419,0.88767 0.77141,1.15711 1.16969,0.83549 2.66103,1.13118 3.85705,1.92853 3.30183,2.20122 5.39369,5.39163 7.7141,8.48551 0.21819,0.29091 0.62816,0.43716 0.77141,0.7714 0.25824,0.60257 0.2056,1.29818 0.3857,1.92853 0.27392,0.95871 3.67855,4.71771 1.54282,5.78557 -1.02601,0.51301 -13.88538,-1.15711 -13.88538,-1.15711 -51.05206,-0.34119 -117.64908,0.001 -158.139023,0.77141 -0.22999,-0.115 0.114995,-0.54142 0,-0.77141 -0.498593,-0.99719 -0.37538,-0.73011 -0.77141,-2.31423 z"
       id="path907"
       sodipodi:nodetypes="cssssscsscssssssssssssssssssssssssccsc" />
  </g>
  <g
     inkscape:label="Layer 1"
     inkscape:groupmode="layer"
     id="layer1">
    <path
       style="fill:#ffffff;stroke-width:0.218883;fill-opacity:1"
       d="m 189.87809,215.05724 c -1.28499,-0.38735 -1.87889,-1.079 -3.24694,-3.78136 -2.86573,-5.66076 -5.88768,-9.49054 -10.24003,-12.97737 -2.18755,-1.75253 -4.01477,-2.79862 -8.0273,-4.59565 -3.98696,-1.78558 -12.20764,-4.69518 -13.26561,-4.69518 -0.23836,0 -0.57631,0.38678 -0.89168,1.02052 -1.16667,2.34448 -3.46812,4.22566 -6.31907,5.16514 -2.6031,0.85782 -4.06487,1.11423 -10.83867,1.90127 -4.46997,0.51936 -17.17801,0.18322 -23.95281,-0.63359 -6.17114,-0.74402 -9.55204,-0.92459 -12.80463,-0.68388 -1.805788,0.13363 -4.071223,0.33875 -5.034306,0.45581 -4.575922,0.55623 -6.536921,0.7001 -11.819659,0.86722 -12.26457,0.38796 -21.470574,-0.59573 -26.156467,-2.79492 -1.954945,-0.91749 -3.785957,-2.66696 -4.579229,-4.3753 -0.450568,-0.97031 -0.619972,-1.14115 -1.131524,-1.14115 -1.681393,0 -14.4213,4.87195 -18.038006,6.89803 -1.711747,0.95892 -4.653454,3.31011 -6.502966,5.19756 -2.7919,2.84916 -4.798902,5.75952 -7.177324,10.40785 -1.228021,2.40001 -1.760942,2.97376 -3.096044,3.33327 -1.344451,0.36202 -2.358795,0.0637 -3.386189,-0.99581 -1.596701,-1.64665 -1.520433,-3.10927 0.352594,-6.7618 2.244271,-4.37648 4.490631,-7.58284 7.629105,-10.88947 l 2.005429,-2.11287 -0.404191,-0.95148 c -0.777672,-1.83067 -3.117017,-9.51463 -4.088025,-13.42779 -0.209106,-0.8427 -0.706126,-2.6649 -1.104488,-4.04933 -1.094095,-3.80232 -1.837474,-7.21281 -3.0534,-14.00848 -0.323995,-1.81077 -0.813454,-7.13058 -0.917307,-9.96999 -0.11969,-3.27237 0.173088,-5.79755 1.050786,-9.06293 1.048577,-3.90112 3.467607,-6.86509 7.036059,-8.62109 1.113821,-0.5481 2.911602,-1.30634 3.995071,-1.68499 1.083469,-0.37864 2.055715,-0.77001 2.160546,-0.86972 0.20097,-0.19115 0.06983,-1.02531 -0.842577,-5.3597 -0.593586,-2.81982 -1.547992,-7.62889 -1.867892,-9.41195 -0.10799,-0.60193 -0.353926,-1.93164 -0.546523,-2.95492 -0.192597,-1.02327 -0.439788,-2.40223 -0.549314,-3.06435 -0.109527,-0.66212 -0.315824,-1.89334 -0.458437,-2.73603 -0.351547,-2.07727 -0.35638,-10.762374 -0.007,-12.585754 1.177571,-6.14566 2.760459,-10.28774 5.604263,-14.66513 3.774098,-5.809373 9.684555,-11.29526 16.753576,-15.550101 2.486819,-1.496815 8.739453,-4.595645 11.375548,-5.637767 0.899402,-0.355559 1.706315,-0.781724 1.793139,-0.947035 0.08683,-0.165309 0.33097,-0.886592 0.542544,-1.60285 0.730269,-2.472251 2.448226,-3.584207 6.58724,-4.263629 1.416118,-0.232458 3.461232,-0.612401 4.544701,-0.84432 1.083468,-0.231917 2.659423,-0.541387 3.502121,-0.68771 2.283704,-0.396532 4.894553,-0.867497 6.128712,-1.105545 1.785952,-0.344479 5.718699,-0.837379 8.645861,-1.083604 1.504818,-0.12658 3.917998,-0.335328 5.362623,-0.463885 1.53966,-0.137014 5.79681,-0.194996 10.28748,-0.140117 10.06017,0.122944 16.79447,0.757158 24.84317,2.339649 0.66212,0.130182 2.31317,0.428217 3.66901,0.662301 1.35583,0.234084 3.27653,0.616781 4.26821,0.85044 0.99168,0.233659 2.7651,0.579065 3.94093,0.767566 3.94421,0.632313 5.28567,1.720492 6.32614,5.131715 0.28204,0.924678 0.34813,0.977784 2.08238,1.673366 0.9851,0.39511 3.42968,1.518321 5.4324,2.496023 2.00273,0.977705 3.71859,1.729891 3.81302,1.671526 0.0944,-0.05837 0.2342,-0.823343 0.31058,-1.69995 0.1483,-1.702061 0.43472,-4.523845 0.78387,-7.722542 0.21091,-1.932261 0.72028,-6.825575 1.11645,-10.725246 0.38589,-3.798482 0.63452,-6.146634 0.86657,-8.184223 0.12875,-1.130533 0.1834,-2.106206 0.12144,-2.168166 -0.062,-0.06196 -1.56658,-0.19043 -3.34359,-0.28549 -6.39319,-0.342002 -10.20963,-1.489568 -12.53728,-3.769837 -1.36635,-1.338534 -1.85245,-2.534051 -1.84012,-4.525627 0.008,-1.357072 0.1166,-1.848251 0.6242,-2.833727 2.71106,-5.263364 12.21167,-9.430091 27.48566,-12.0545133 0.66212,-0.113767 2.74442,-0.356352 4.62734,-0.539077 7.27009,-0.705516 14.17311,-0.241692 18.11077,1.2168883 6.10565,2.261641 7.66253,7.51982 3.52261,11.897175 -2.87939,3.044534 -8.8282,5.938685 -16.52045,8.03736 -0.48154,0.131377 -1.11725,0.307484 -1.41268,0.391346 -0.67355,0.191197 -0.76619,0.551989 -1.21177,4.719236 -0.19309,1.805781 -0.44493,4.145088 -0.55965,5.198461 -0.11472,1.053372 -0.30134,2.777072 -0.41471,3.830445 -0.11337,1.053372 -0.36535,3.343431 -0.55996,5.089019 -0.19461,1.745589 -0.44335,4.011023 -0.55276,5.034299 -0.10942,1.023277 -0.30165,2.746977 -0.42718,3.830445 -0.12554,1.083469 -0.37806,3.348904 -0.56115,5.0343 -0.4599,4.233254 -0.70495,6.45257 -0.96674,8.755302 -0.12317,1.083469 -0.28722,2.623203 -0.36455,3.42163 l -0.1406,1.451686 1.30067,1.831552 c 6.33651,8.922791 8.44268,19.053051 6.41056,30.833495 -0.658,3.81452 -2.07807,11.13094 -3.03757,15.6501 -0.23004,1.08347 -0.57293,2.72069 -0.76198,3.63827 -0.18905,0.91758 -0.39921,1.8129 -0.46701,1.9896 -0.17288,0.4505 0.19321,0.67903 2.1949,1.37019 7.28323,2.51479 10.2659,5.75149 11.70453,12.70138 1.26693,6.12044 -0.44353,20.09778 -3.83436,31.33322 -0.29614,0.98125 -0.82609,2.90194 -1.17768,4.26821 -0.35158,1.36628 -0.90234,3.32136 -1.22391,4.34463 -0.32157,1.02328 -0.66982,2.20525 -0.77389,2.6266 -0.27679,1.12067 -1.70475,5.20719 -2.0588,5.89185 -0.29626,0.57291 -0.26394,0.63081 1.23858,2.21834 2.42255,2.55961 3.92028,4.4849 5.69522,7.32103 2.04386,3.26583 3.59936,6.46791 3.78925,7.80038 0.25084,1.76021 -0.83596,3.54031 -2.50219,4.0984 -0.84191,0.28198 -1.19246,0.28763 -2.03767,0.0328 z m -52.49898,-25.39856 c 5.17874,-0.4596 8.05569,-0.96734 9.47099,-1.67149 0.90227,-0.44891 1.72581,-2.03609 1.86756,-3.59928 l 0.1212,-1.33669 -1.18164,0.11652 c -5.11143,0.50405 -9.0167,0.61296 -13.39946,0.37368 -20.96289,-1.14451 -25.44475,-1.52524 -26.34579,-2.2381 -0.34909,-0.27618 -8.459192,-0.26917 -8.976624,0.008 -1.04588,0.55974 -4.218633,0.87788 -14.512989,1.45529 -15.580064,0.87387 -18.182254,0.89279 -25.335658,0.18419 -1.129924,-0.11193 -1.149133,-0.10398 -1.149133,0.47553 0,0.99259 0.659342,2.92462 1.229209,3.60187 0.971799,1.15492 3.202804,1.71768 9.53797,2.40592 3.80205,0.41305 16.088029,0.28645 21.299117,-0.21946 8.203434,-0.79643 8.743621,-0.85673 9.630836,-1.07516 1.130292,-0.27826 6.305192,-0.27939 7.442002,-0.002 0.48155,0.11766 1.81126,0.31475 2.95492,0.43796 1.14366,0.12322 2.96586,0.32631 4.04933,0.4513 6.80873,0.78551 18.11218,1.09203 23.29816,0.63178 z m 40.67655,-0.49003 c 0.14212,-0.39301 0.31321,-1.15636 0.38021,-1.69634 0.1529,-1.23222 0.41718,-2.24164 1.20259,-4.59334 0.34175,-1.02328 0.79033,-2.59923 0.99685,-3.50212 0.20652,-0.90289 0.84751,-3.51307 1.42443,-5.80039 3.25926,-12.92218 4.37221,-22.69101 3.16428,-27.77418 -0.84037,-3.5364 -2.09218,-4.73503 -6.52669,-6.24945 l -1.26728,-0.43278 -0.20221,0.48369 c -0.11122,0.26602 -0.41146,1.6164 -0.66721,3.00084 -1.18339,6.40594 -1.79232,9.29258 -2.97814,14.11792 -0.87643,3.56634 -0.79412,3.28691 -2.3857,8.09866 -3.13217,9.4693 -6.31725,13.21814 -13.44877,15.82923 -1.2415,0.45455 -1.65748,0.71034 -1.70671,1.04942 -0.0574,0.39538 0.17143,0.50637 1.93595,0.93911 2.45625,0.60239 9.68187,2.95549 11.48098,3.73891 0.24077,0.10484 1.76747,0.75119 3.39268,1.43633 1.6252,0.68513 3.29965,1.4266 3.721,1.6477 1.05228,0.55218 1.18772,0.52542 1.48374,-0.29321 z M 31.694719,188.44351 c 1.251362,-0.55106 2.81694,-1.2044 3.479059,-1.45185 0.66212,-0.24745 1.302352,-0.52393 1.422737,-0.6144 0.410766,-0.3087 10.062791,-3.46263 12.115472,-3.9589 2.80945,-0.67924 2.942535,-1.14024 0.566954,-1.96389 -3.435016,-1.19098 -7.852351,-4.14454 -9.573153,-6.40089 -0.724427,-0.94989 -2.589114,-4.42644 -2.449208,-4.56635 0.06217,-0.0622 -0.270798,-1.28521 -0.739926,-2.71788 -1.602785,-4.89473 -2.622752,-8.29516 -2.88227,-9.60908 -0.142666,-0.72232 -0.451918,-2.05203 -0.687226,-2.95492 -0.694499,-2.66483 -1.291208,-5.46255 -2.030757,-9.52139 -0.197415,-1.08347 -0.447048,-2.41318 -0.554738,-2.95491 -0.107691,-0.54174 -0.256419,-1.35952 -0.330509,-1.81729 -0.07409,-0.45777 -0.267851,-0.8834 -0.430579,-0.94585 -0.767085,-0.29436 -5.244295,1.76462 -6.197268,2.85 -1.402188,1.597 -2.384375,5.93468 -2.161052,9.54397 0.491516,7.94379 1.151857,14.34895 1.681145,16.30675 0.130183,0.48154 0.331161,1.24962 0.446615,1.70685 0.115454,0.45723 0.611219,2.13168 1.101702,3.721 0.49048,1.58933 0.974257,3.28368 1.075059,3.76522 0.253269,1.2099 1.212449,4.49144 1.878332,6.42612 0.304905,0.88589 0.687652,2.36335 0.850549,3.28324 0.331557,1.87233 0.663595,2.87639 0.951216,2.87639 0.105954,0 1.216483,-0.45088 2.467846,-1.00194 z m 41.01742,-12.57019 c 16.458733,-0.79749 21.877512,-1.19231 23.871279,-1.73929 1.434225,-0.39348 2.270954,-0.44813 6.861112,-0.44813 4.57041,0 5.40258,0.0539 6.61875,0.42851 1.69079,0.52083 3.86476,0.71702 17.26006,1.55763 6.21994,0.39032 15.69309,0.50273 17.94837,0.21298 7.61546,-0.97843 13.23306,-3.05169 15.15125,-5.5918 1.55421,-2.05812 2.4181,-3.95651 4.03406,-8.86474 0.70145,-2.13057 2.26982,-7.93394 2.69148,-9.95916 0.43479,-2.08834 1.97781,-9.83424 2.39812,-12.03854 0.2525,-1.32424 0.70759,-3.58968 1.01129,-5.0343 0.30371,-1.44463 0.64714,-3.11908 0.76318,-3.721 0.28697,-1.48855 0.75721,-3.7452 1.29991,-6.23816 4.04318,-18.57283 4.52259,-24.19158 2.67121,-31.306954 -2.52864,-9.71822 -10.25983,-17.911845 -22.79226,-24.155547 -4.40315,-2.193665 -6.38474,-3.01843 -6.71385,-2.794395 -0.2378,0.161873 -0.41861,0.636522 -1.292,3.391597 -1.24169,3.916881 -3.61209,5.357275 -7.28945,4.429491 -0.67949,-0.171435 -2.02342,-0.421581 -2.98651,-0.555881 -4.37002,-0.609391 -5.15236,-0.722708 -7.00424,-1.014518 -3.42614,-0.539876 -4.51952,-0.722779 -7.66089,-1.281534 -5.01161,-0.891412 -5.58344,-0.970831 -8.09865,-1.124787 -8.98786,-0.550148 -17.735894,-0.13667 -24.18424,1.143075 -0.90163,0.178939 -2.576082,0.464079 -3.721004,0.633645 -1.14492,0.169567 -2.721906,0.41294 -3.504411,0.540829 -0.782505,0.127888 -2.555454,0.376519 -3.939886,0.552514 -3.096179,0.393595 -4.874602,0.679678 -6.019271,0.968284 -3.46901,0.874641 -6.047902,-0.712132 -7.214975,-4.439324 -0.307673,-0.982588 -0.671059,-2.150747 -0.807528,-2.59591 -0.136467,-0.445165 -0.365394,-0.854391 -0.508723,-0.909391 -0.669441,-0.25689 -10.429476,4.516902 -13.640558,6.671816 -4.109089,2.757553 -8.588026,6.884546 -11.099334,10.227166 -2.57771,3.43102 -4.376537,7.50837 -5.388981,12.21505 -0.377001,1.75261 -0.46363,2.90831 -0.464991,6.203224 -0.0015,3.86337 0.08197,4.7132 0.925496,9.41195 0.118867,0.66212 0.36644,2.04108 0.550168,3.06436 0.183728,1.02327 0.433031,2.35298 0.554007,2.95491 0.120977,0.60193 0.415777,2.07939 0.655109,3.28324 0.239335,1.20385 0.686,3.37079 0.992589,4.81542 0.306591,1.44462 0.79745,3.8578 1.090801,5.36262 0.293351,1.50482 0.8289,4.21349 1.190109,6.01927 0.361208,1.80578 0.764473,3.87422 0.896142,4.59653 3.557207,19.51397 6.581884,28.48365 10.427498,30.92279 3.512246,2.22769 9.600399,3.83288 15.933342,4.20094 3.864,0.22457 4.013637,0.22467 8.53642,0.006 z m -0.87553,-14.12914 c -4.232716,-0.50568 -9.14271,-1.68575 -14.227367,-3.41941 -2.512895,-0.85679 -3.594998,-1.47827 -4.597425,-2.64042 -0.684967,-0.7941 -2.232753,-3.71138 -3.45569,-6.5133 -0.532298,-1.21957 -1.644228,-4.99516 -1.998319,-6.78536 -0.50281,-2.54208 -1.002136,-7.6841 -1.002136,-10.31991 0,-1.31106 -0.148302,-4.47491 -0.329563,-7.03077 -0.306411,-4.32061 -0.469575,-5.84285 -0.990776,-9.24355 -0.110704,-0.72231 -0.356288,-2.44601 -0.545742,-3.83044 -0.189456,-1.38444 -0.434381,-3.10814 -0.54428,-3.83045 -0.109899,-0.72231 -0.312658,-2.81777 -0.450579,-4.65656 -0.396039,-5.280154 0.156191,-8.456704 2.012293,-11.575144 1.225287,-2.0586 4.9562,-5.56093 8.400096,-7.88544 1.594248,-1.07607 5.937546,-3.35443 7.442007,-3.90385 0.601927,-0.21983 1.19291,-0.46909 1.313296,-0.553927 0.201277,-0.141839 6.143471,-2.167995 7.660889,-2.612193 3.323579,-0.97292 12.366537,-2.97095 15.978428,-3.530414 13.008787,-2.014991 21.077519,-2.027417 33.379599,-0.0514 1.86597,0.29972 3.73741,0.629679 4.15876,0.733241 0.42135,0.103562 1.35708,0.300659 2.07939,0.437995 2.1361,0.406143 8.09698,1.804623 9.41195,2.208135 0.36116,0.110825 1.49387,0.457806 2.51715,0.771071 8.34844,2.555782 14.28678,5.599992 19.04987,9.765652 3.68641,3.22403 5.01019,5.1299 6.02821,8.67891 0.55458,1.93335 0.57556,2.19164 0.46114,5.676984 -0.12686,3.8644 -0.24018,4.94616 -1.13921,10.87459 -0.31036,2.04655 -0.65715,4.36124 -0.77066,5.14374 -0.43973,3.03148 -0.87278,8.14571 -0.9823,11.60078 -0.27318,8.61776 -0.96891,13.61569 -2.52895,18.16725 -0.72586,2.11777 -0.65104,1.94315 -2.1887,5.10818 -1.39812,2.87779 -2.59208,4.27286 -4.42767,5.17347 -2.07481,1.01797 -8.67062,2.86322 -13.83006,3.86912 -2.43897,0.47551 -12.06222,0.5574 -15.6501,0.13318 -1.26405,-0.14945 -3.72648,-0.42039 -5.47206,-0.60209 -4.61896,-0.48079 -8.46542,-1.02461 -11.15393,-1.57696 -1.6973,-0.34871 -2.28601,-0.32011 -5.481152,0.2663 -3.465061,0.63594 -8.126257,1.16421 -16.30675,1.84809 -5.940099,0.49658 -8.361236,0.51807 -11.819659,0.1049 z m 13.242395,-7.53662 c 4.032912,-0.23607 8.95777,-0.60127 10.944129,-0.81156 4.575137,-0.48435 11.031547,-0.48196 15.431227,0.006 11.45641,1.26988 21.049,1.53135 25.39037,0.69208 4.22663,-0.81709 10.70146,-2.65486 11.4752,-3.25704 0.1717,-0.13363 0.77699,-1.22794 1.34508,-2.43179 2.46498,-5.22352 3.24728,-9.70191 3.59413,-20.57496 0.11011,-3.45181 0.47559,-7.63299 0.96621,-11.05357 0.11223,-0.78251 0.3666,-2.50621 0.56526,-3.83045 0.99667,-6.64347 1.18633,-8.21763 1.3508,-11.2113 0.20728,-3.772984 -0.32776,-5.277124 -2.72002,-7.646734 -4.30718,-4.26639 -9.45225,-6.92215 -19.20325,-9.91224 -0.9664,-0.29634 -4.78848,-1.24153 -6.67592,-1.65094 -0.90289,-0.19584 -2.0356,-0.44857 -2.51714,-0.56161 -0.48155,-0.11304 -2.156,-0.44242 -3.72101,-0.73195 -2.7488,-0.50854 -3.78163,-0.6782 -7.77033,-1.27637 -2.5993,-0.389802 -17.590296,-0.384549 -20.137198,0.007 -1.023276,0.15734 -2.845473,0.43506 -4.049327,0.61716 -5.804554,0.878 -15.181958,3.02424 -19.808873,4.53373 -6.914743,2.25587 -11.94711,5.07702 -15.665509,8.78211 -2.47649,2.46765 -2.720627,3.09482 -2.720627,6.989154 0,2.91323 0.479961,7.07664 1.970862,17.09625 0.373322,2.50891 0.874611,9.73439 0.874611,12.60647 0,2.95087 0.510971,8.43911 1.005081,10.79538 0.626361,2.98695 2.877483,8.67207 3.677096,9.28637 0.563662,0.43303 7.557684,2.49718 10.530162,3.10777 1.352292,0.27778 6.108275,0.798 7.66089,0.83797 0.481542,0.0124 4.175185,-0.17062 8.208096,-0.40669 z M 68.291913,152.1543 c -2.277,-0.57777 -4.564984,-2.38756 -5.904999,-4.67085 -1.067845,-1.81953 -1.37493,-3.08178 -1.612166,-6.62673 -0.124995,-1.86773 -0.319365,-4.4301 -0.431934,-5.69415 -0.112569,-1.26405 -0.352062,-5.05619 -0.532207,-8.42698 -0.328639,-6.14941 -0.484706,-7.9181 -1.110566,-12.58575 -0.185632,-1.38443 -0.425589,-3.20663 -0.533235,-4.04933 -0.107649,-0.84269 -0.407128,-2.66489 -0.66551,-4.04932 -0.607638,-3.25578 -0.540476,-6.526584 0.170791,-8.317544 0.621855,-1.56581 2.368743,-3.67703 4.140188,-5.00365 0.823583,-0.61677 2.872442,-1.71655 4.923457,-2.6428 6.680881,-3.0171 7.876128,-3.36425 11.667354,-3.38874 2.520606,-0.0163 2.946556,0.0357 3.730842,0.45566 2.046095,1.0955 3.619355,3.59343 4.388616,6.96797 0.32001,1.4038 0.396171,2.64091 0.384044,6.238154 -0.01913,5.67382 -0.394461,8.05931 -2.823998,17.94837 -1.539259,6.26531 -1.966393,8.28788 -2.704141,12.80463 -0.137642,0.8427 -0.450299,2.71414 -0.69479,4.15877 -0.244492,1.44462 -0.637697,3.80856 -0.873793,5.25318 -0.81558,4.99043 -1.240252,6.43165 -2.412333,8.18686 -0.456129,0.68306 -1.259531,1.55087 -1.785338,1.92848 -1.942035,1.39466 -5.163954,2.06093 -7.320282,1.51377 z m 2.960695,-8.18171 c 0.357514,-0.91496 0.640939,-2.17213 0.925245,-4.10405 0.281698,-1.9142 0.361415,-2.40736 1.043735,-6.45703 0.965275,-5.72906 1.485714,-8.62746 1.798099,-10.01388 0.518622,-2.30174 0.69498,-3.04442 1.702239,-7.1684 1.431872,-5.86247 1.83698,-7.81492 2.335527,-11.25629 0.538348,-3.71611 0.354774,-8.981894 -0.36111,-10.358374 -0.492285,-0.94654 -3.454398,-0.0942 -9.267442,2.66675 -3.03229,1.44019 -4.359323,2.47182 -4.68175,3.639554 -0.127613,0.46217 -0.05326,1.5339 0.228312,3.29089 0.548544,3.42289 0.768464,4.91425 1.191142,8.07758 0.193026,1.44462 0.436528,3.26682 0.541113,4.04933 0.104584,0.7825 0.289531,5.01788 0.410995,9.41195 0.25692,9.29428 0.535514,13.42341 1.018997,15.1029 0.190607,0.66211 0.447764,1.54859 0.571459,1.96994 0.493584,1.68133 2.059111,2.38864 2.543439,1.14913 z m 59.682292,7.67094 c -2.14795,-0.19756 -3.33189,-0.54691 -4.80285,-1.41719 -2.05428,-1.21538 -2.70931,-1.84759 -2.98847,-2.88432 -0.384,-1.42607 0.1229,-2.93608 2.66152,-7.92833 1.67035,-3.28479 3.78087,-6.5931 7.38974,-11.58369 4.36068,-6.03024 5.57042,-7.33072 7.88571,-8.47722 4.05073,-2.00587 7.69349,0.29417 8.58637,5.42145 0.49012,2.81445 -0.0145,8.58819 -1.22354,13.9999 -0.18827,0.8427 -0.43047,1.97542 -0.53822,2.51715 -0.39825,2.0023 -1.33107,4.5345 -2.02675,5.50178 -2.6643,3.70443 -8.12665,5.47744 -14.94351,4.85047 z m 5.65194,-7.83076 c 1.78585,-0.37839 2.86347,-0.99601 3.16167,-1.81206 0.3974,-1.08751 0.99684,-3.58756 1.58711,-6.61926 0.10547,-0.54173 0.29552,-1.50961 0.42232,-2.15084 0.1268,-0.64124 0.29612,-2.01893 0.37627,-3.06156 0.12892,-1.67728 0.10823,-1.85817 -0.17959,-1.57015 -0.56707,0.56744 -6.41051,8.35504 -7.5529,10.06579 -1.36297,2.04109 -2.91961,4.709 -2.91961,5.0039 0,0.4813 3.1004,0.56887 5.10473,0.14418 z m 32.31332,-76.078625 c 0.1126,-1.136736 0.36384,-3.495003 0.55832,-5.240592 0.19447,-1.745588 0.44866,-4.060272 0.56485,-5.14374 0.44644,-4.162851 1.16737,-10.694386 1.53414,-13.899044 0.11712,-1.023276 0.30742,-2.789025 0.4229,-3.923888 0.11548,-1.134862 0.30935,-2.855979 0.43081,-3.824703 0.12147,-0.968724 0.22085,-1.887022 0.22085,-2.040662 0,-0.360185 -0.54527,-0.349595 -1.64148,0.03188 -1.00648,0.350249 -0.99711,0.320247 -1.40686,4.504194 -0.13558,1.384432 -0.34225,3.354375 -0.45926,4.377651 -0.117,1.023276 -0.3606,3.337959 -0.54132,5.143741 -0.3375,3.372266 -0.56868,5.590661 -0.98086,9.41195 -0.48954,4.538548 -0.8597,8.153317 -0.99845,9.750093 l -0.14349,1.651439 0.92033,0.831469 c 0.5462,0.493458 1.00052,0.75129 1.11757,0.634239 0.10848,-0.108476 0.28936,-1.127287 0.40195,-2.264025 z M 74.682082,65.560347 c 3.569588,-0.354572 11.854413,-1.469577 14.880235,-2.002637 1.47677,-0.260166 11.274613,-0.644701 11.590123,-0.454878 0.11245,0.06765 3.01811,0.102512 6.45704,0.07747 6.27278,-0.04568 8.0857,0.09178 14.13236,1.071525 1.88947,0.306155 7.4581,1.039817 11.60077,1.528391 4.62872,0.545895 4.22968,0.548445 4.44959,-0.02844 0.10949,-0.287207 0.61425,-1.586886 1.12169,-2.888173 0.50744,-1.301288 0.86817,-2.507878 0.80162,-2.681312 -0.0679,-0.176992 -0.40741,-0.315333 -0.77384,-0.315333 -0.35906,0 -1.22007,-0.147746 -1.91336,-0.328324 -0.69329,-0.180578 -1.4974,-0.328324 -1.78691,-0.328324 -0.50246,0 -0.51105,0.02343 -0.18882,0.515206 1.20372,1.837106 0.12637,4.447318 -2.01213,4.875016 -1.66767,0.333536 -3.31134,-0.707352 -3.76245,-2.382633 -0.30762,-1.14242 0.19205,-2.551045 1.1816,-3.331066 0.3818,-0.300959 0.59569,-0.548371 0.4753,-0.549805 -0.12038,-0.0015 -0.95761,-0.157267 -1.8605,-0.346296 -8.46594,-1.772426 -21.23006,-2.857208 -29.227372,-2.483937 -8.413022,0.392674 -14.259338,0.997157 -19.911764,2.05879 -0.963083,0.180887 -2.120425,0.391294 -2.57187,0.467573 -0.451445,0.07628 -0.82081,0.178632 -0.82081,0.227452 0,0.04882 0.33822,0.426983 0.751599,0.84036 2.002863,2.002865 0.626928,5.363855 -2.194996,5.361704 -2.430553,-0.0018 -3.763935,-1.951709 -2.955617,-4.322113 0.215523,-0.632023 0.333122,-1.149591 0.26133,-1.150149 -0.07179,-6.56e-4 -0.967752,0.157747 -1.991028,0.351786 -1.023276,0.19404 -2.08212,0.393367 -2.352987,0.442951 -0.599264,0.109695 -0.620399,0.501197 -0.08465,1.567987 0.224313,0.446649 0.692175,1.649315 1.039693,2.672591 0.347519,1.023276 0.708809,1.91747 0.80287,1.987097 0.09406,0.06963 0.734289,0.04522 1.422736,-0.05423 0.688445,-0.09945 2.236691,-0.278668 3.440545,-0.398248 z M 101.93285,62.21995 c -2.138362,-1.459627 -1.940862,-4.654146 0.35511,-5.743656 0.98308,-0.4665 2.50417,-0.346555 3.33629,0.263081 1.29398,0.948016 1.72669,3.042825 0.90643,4.388163 -0.95411,1.564872 -3.14357,2.085071 -4.59783,1.092412 z m 67.85371,-37.164354 c 9.87308,-1.515388 18.03376,-3.950046 22.31161,-6.656438 0.86454,-0.546961 0.93014,-0.643569 0.60061,-0.88453 -0.71688,-0.524194 -5.49767,-1.206024 -8.45314,-1.205577 -2.88602,4.38e-4 -10.01636,0.729486 -12.9269,1.321727 -4.88905,0.994827 -8.23931,1.885533 -11.27245,2.996908 -2.15802,0.790721 -5.08126,2.185112 -6.21486,2.964505 l -0.96168,0.661187 0.52391,0.270099 c 0.28815,0.148553 1.21339,0.380906 2.05609,0.516337 0.8427,0.135432 1.77842,0.288945 2.07939,0.34114 1.03906,0.180199 10.62062,-0.07413 12.25742,-0.325358 z"
       id="path847" />
    <path
       style="fill:#d2d2d2;fill-opacity:1;stroke-width:29.0142;paint-order:stroke fill markers"
       d="m 273.42734,582.01984 c -18.37826,-2.24242 -48.81799,-10.82186 -52.04125,-14.6678 -3.50025,-4.17645 -10.93633,-24.52487 -13.15811,-36.0064 -1.07865,-5.57414 -2.60066,-22.90283 -3.38225,-38.50821 -1.59169,-31.77993 -1.97073,-35.95657 -5.68845,-62.68072 -4.40326,-31.65212 -5.87627,-48.95735 -4.85974,-57.09334 0.85331,-6.82968 1.83464,-8.67556 8.19283,-15.41057 22.91694,-24.27515 59.64754,-38.8234 130.44964,-51.66848 19.43924,-3.52671 23.76973,-3.80962 58.11238,-3.79655 40.94488,0.0156 49.49086,1.04111 93.76467,11.25175 46.39021,10.69874 76.03035,24.26187 94.76027,43.36166 12.10098,12.33994 12.28545,15.11456 4.65443,70.00375 -2.25992,16.25537 -4.75508,41.77581 -5.5448,56.71208 -2.32712,44.01364 -5.05307,58.79569 -14.36401,77.89188 l -4.30605,8.83146 -11.40578,3.47898 c -25.41513,7.75208 -36.23002,9.36348 -62.33845,9.28827 -13.47787,-0.0388 -31.75176,-0.76751 -40.60865,-1.61928 -34.06623,-3.27617 -53.36181,-4.02621 -72.34376,-2.81208 -10.65667,0.68162 -29.45792,1.90316 -41.78054,2.71453 -38.21289,2.51609 -42.9766,2.57585 -58.11238,0.72907 z m 7.96158,-9.64035 c 8.20941,-3.82227 13.41586,-10.47439 16.67969,-21.31116 1.12432,-3.73302 4.56194,-21.79673 7.63915,-40.14156 3.07721,-18.34485 9.02105,-47.96116 13.20853,-65.81402 8.21696,-35.03204 10.52298,-49.82923 10.52298,-67.52339 0,-29.04348 -9.41585,-48.16498 -24.85778,-50.48064 -10.82357,-1.62309 -26.51855,1.49872 -43.19338,8.59139 -20.58992,8.75795 -28.5223,13.45629 -35.50078,21.02705 -11.89271,12.90206 -12.67471,19.25508 -7.1364,57.97617 2.50648,17.52405 5.46955,47.88515 7.10638,72.81551 3.47506,52.92815 4.6448,61.96728 8.96557,69.28096 3.90465,6.60933 10.91366,13.52223 16.89984,16.66812 6.66081,3.50043 20.93512,2.97672 29.6662,-1.08843 z m 249.55568,-2.29196 c 11.74101,-4.0631 21.04017,-12.92042 25.07533,-23.88393 5.15614,-14.00919 10.2795,-43.90217 10.53509,-61.46864 0.21556,-14.81439 -0.0589,-16.70786 -3.34895,-23.10492 -9.2343,-17.95477 -28.76801,-17.85621 -44.37723,0.22389 -13.888,16.08642 -34.18365,46.47499 -44.07493,65.99322 -13.73405,27.10103 -13.59371,31.75081 1.22034,40.4324 8.1255,4.76187 15.81154,6.07034 32.00305,5.44821 9.66371,-0.3713 16.78086,-1.49934 22.9673,-3.64023 z"
       id="path851"
       transform="scale(0.26458333)" />
    <path
       style="fill:#b4b4b4;fill-opacity:1;stroke-width:29.0142;paint-order:stroke fill markers"
       d="m 269.92659,580.72087 c -14.34935,-2.29446 -33.17631,-7.17838 -41.56717,-10.78296 -5.26223,-2.26057 -7.13773,-4.0476 -9.48193,-9.03469 -8.81501,-18.75312 -11.45075,-33.52145 -14.08783,-78.93548 -0.78263,-13.47787 -3.30307,-39.17267 -5.60099,-57.09955 -4.61642,-36.01431 -5.25427,-52.98218 -2.21279,-58.86375 2.39282,-4.6272 14.65631,-16.34086 23.24012,-22.19817 21.26871,-14.51306 51.34985,-24.8057 104.32223,-35.69518 l 22.40477,-4.60573 42.70909,0.0155 c 34.28075,0.0124 45.47249,0.49742 56.71208,2.45767 20.28073,3.53707 62.38196,14.02927 77.01641,19.19352 27.95281,9.8641 53.88418,26.55605 61.5338,39.60915 4.7684,8.13667 4.67862,15.11955 -0.73861,57.44523 -2.37527,18.55837 -4.07713,35.81143 -3.78192,38.34013 0.29521,2.5287 0.11412,4.59765 -0.40245,4.59765 -0.51655,0 -1.36291,7.71914 -1.88078,17.15365 -2.26927,41.34074 -5.60161,59.83173 -13.96345,77.48244 l -4.69858,9.91803 -15.23341,4.42778 c -33.84308,9.8369 -43.74278,10.16826 -129.35772,4.32973 -21.72676,-1.48166 -29.82397,-1.33044 -71.41521,1.33375 -52.65815,3.3731 -57.72692,3.43594 -73.51566,0.91132 z m 4.90105,-6.44271 c 0,-0.66172 0.88832,-0.86224 1.97406,-0.44561 2.86556,1.09961 9.56701,-2.76734 14.46667,-8.34774 5.90877,-6.72972 7.75351,-13.32116 15.11208,-53.99711 3.54155,-19.57666 9.2373,-48.24777 12.65721,-63.71357 8.94644,-40.45834 10.39212,-49.95651 10.39713,-68.30931 0.007,-24.96381 -4.30385,-39.65675 -14.03759,-47.84714 -5.73448,-4.82525 -9.17904,-5.56726 -22.10663,-4.76211 -19.91103,1.24008 -53.79224,15.53756 -66.18323,27.92855 -13.38532,13.38532 -14.25936,19.11969 -9.14061,59.96931 3.38709,27.03035 6.55091,60.80462 8.52627,91.01939 1.52849,23.37942 3.61733,40.51798 5.63548,46.23803 2.62749,7.44708 8.45901,14.61235 15.98502,19.64101 5.53556,3.6987 7.28196,4.12153 16.45351,3.98367 5.64334,-0.0848 10.26063,-0.69565 10.26063,-1.35737 z m 247.20112,-1.4185 c 16.25654,-3.00519 29.337,-12.94473 34.22381,-26.00589 8.26839,-22.09927 13.78082,-68.07394 9.64372,-80.43043 -6.92597,-20.68607 -27.78464,-24.45512 -44.46291,-8.03417 -18.60008,18.3131 -54.53508,76.86606 -56.91531,92.73854 -1.08651,7.24542 0.40815,10.62602 6.66928,15.08433 10.78235,7.67771 30.9819,10.31884 50.84141,6.64762 z"
       id="path855"
       transform="scale(0.26458333)" />
    <path
       style="fill:#b4b4b4;fill-opacity:1;stroke-width:29.0142;paint-order:stroke fill markers"
       d="m 270.62674,580.35285 c -5.00606,-0.95493 -14.77314,-3.06845 -21.70462,-4.69672 -6.93148,-1.62828 -13.23282,-3.05246 -14.00298,-3.16483 -0.77017,-0.11237 -1.71537,-0.51938 -2.10045,-0.90447 -0.38508,-0.38508 -2.96164,-1.74428 -5.72567,-3.02044 -11.35337,-5.24185 -18.72334,-33.04364 -21.65371,-81.6844 -0.46355,-7.69437 -1.50146,-14.78338 -2.30646,-15.75335 -0.98814,-1.19065 -0.99631,-1.76358 -0.0251,-1.76358 1.41197,0 0.92907,-9.59659 -0.70464,-14.00298 -0.42832,-1.15525 -0.63582,-4.23432 -0.46112,-6.84238 0.18391,-2.74538 -0.47143,-5.24208 -1.55647,-5.92983 -1.4363,-0.91039 -1.45898,-1.1929 -0.0971,-1.20934 2.11333,-0.0255 0.78036,-7.12772 -1.64258,-8.75186 -1.03357,-0.69282 -0.92683,-1.03578 0.32687,-1.05022 1.31924,-0.0152 1.60444,-1.19243 0.97887,-4.04063 -0.48552,-2.21055 -1.12849,-6.77902 -1.42882,-10.15216 -0.30033,-3.37314 -1.20909,-13.45837 -2.01947,-22.41163 -0.88164,-9.74066 -0.98748,-18.87967 -0.26353,-22.75484 0.66544,-3.56191 1.07727,-6.4762 0.91518,-6.4762 -0.16209,0 3.85761,-4.25341 8.93265,-9.45201 5.07505,-5.19861 9.46267,-9.32174 9.75026,-9.1625 0.66414,0.36772 10.33671,-6.80586 11.70827,-8.68334 0.56583,-0.77455 1.03843,-0.95306 1.05022,-0.3967 0.0118,0.55636 4.27485,-1.10587 9.47346,-3.69386 5.1986,-2.58799 14.17802,-6.36974 19.95425,-8.4039 5.77623,-2.03416 11.44744,-4.07805 12.60268,-4.54197 1.15525,-0.46392 3.75611,-1.06196 5.77971,-1.32896 2.02359,-0.26701 5.48933,-1.22761 7.70164,-2.13469 2.21231,-0.90707 4.65251,-1.77005 5.42268,-1.91773 0.77016,-0.14768 1.71536,-0.4079 2.10045,-0.57827 0.38508,-0.17038 2.27548,-0.52628 4.20089,-0.79091 1.92541,-0.26463 7.91169,-1.52863 13.30283,-2.80889 11.75133,-2.79065 14.13952,-3.31646 19.56807,-4.30837 2.29063,-0.41855 4.4961,-1.19972 4.90104,-1.73594 0.98785,-1.3081 3.85679,-1.38231 53.24745,-1.37748 44.86145,0.004 49.91187,0.14582 56.71208,1.58815 2.31049,0.49006 6.40636,1.15678 9.10194,1.48159 2.69557,0.32482 6.00378,1.02773 7.35156,1.56203 1.49708,0.59348 2.45052,0.32942 2.45052,-0.67869 0,-1.03317 0.82272,-0.82741 2.20047,0.55034 1.21025,1.21026 3.57326,2.29644 5.25112,2.41375 3.95604,0.27659 5.39502,0.56996 7.9517,1.62118 2.32096,0.9543 30.27117,8.15819 33.60715,8.66191 1.15525,0.17444 3.15398,0.76826 4.44162,1.31959 1.28765,0.55134 3.49312,1.22075 4.90105,1.48759 1.40793,0.26683 2.87494,0.60799 3.26002,0.75812 0.38508,0.15013 1.17275,0.19834 1.75037,0.10713 0.57762,-0.0912 1.05022,0.36457 1.05022,1.01283 0,1.08424 11.20705,5.10386 12.44614,4.46404 0.29896,-0.15439 0.92909,0.28113 1.40029,0.96782 1.22645,1.78736 19.76073,11.72861 19.76073,10.59908 0,-0.51771 0.92517,0.28188 2.05592,1.77687 1.13074,1.49499 2.07594,2.17575 2.10045,1.51281 0.0245,-0.66295 1.28383,0.28225 2.79854,2.10044 1.5147,1.81819 2.77497,2.87092 2.80059,2.3394 0.0741,-1.537 13.47468,13.20629 15.46312,17.01248 0.98939,1.89386 1.77237,7.56507 1.73994,12.60268 -0.0704,10.95298 -1.4888,30.7008 -2.29989,32.0228 -0.31773,0.51786 -0.9926,5.66758 -1.49975,11.44381 -0.50713,5.77623 -1.20323,12.39264 -1.5469,14.70313 -0.34366,2.31049 -0.91116,8.9269 -1.2611,14.70313 -0.34997,5.77623 -1.37783,15.45264 -2.28413,21.50312 -1.30642,8.72153 -1.28502,11.22511 0.1032,12.08311 1.14484,0.70754 1.23002,1.2621 0.24608,1.6018 -0.82775,0.28577 -1.83943,5.56065 -2.24817,11.72196 -0.40874,6.16132 -1.66305,16.82502 -2.78735,23.69714 -1.12428,6.87212 -1.74897,12.97238 -1.38817,13.55615 0.36079,0.58377 -0.0274,1.48375 -0.86262,1.99994 -0.83524,0.51621 -1.19599,1.77931 -0.80166,2.80689 0.39432,1.02759 0.12771,2.06659 -0.59262,2.30888 -0.72026,0.24231 -1.45243,2.17342 -1.62705,4.29137 -0.17462,2.11795 -0.74186,3.85082 -1.26056,3.85082 -0.99,0 -3.27223,6.94335 -2.87669,8.75186 0.12631,0.57763 -0.43762,1.05023 -1.25324,1.05023 -0.81562,0 -1.09349,0.63013 -0.6175,1.40029 0.47599,0.77017 0.16092,1.4003 -0.70015,1.4003 -0.86107,0 -1.22026,0.55874 -0.79821,1.24163 1.25008,2.02268 -2.12035,3.8065 -12.29259,6.50593 -5.27453,1.39971 -9.93069,3.43262 -10.34703,4.51758 -0.41854,1.0907 -1.13941,1.37728 -1.61233,0.64099 -0.52142,-0.81177 -5.77563,-0.30619 -13.45805,1.29498 -13.74686,2.86511 -43.71607,3.55556 -73.51565,1.69368 -8.85689,-0.55337 -20.9858,-1.04787 -26.95313,-1.0989 -5.96733,-0.051 -10.85087,-0.57019 -10.85231,-1.15372 -10e-4,-0.58353 -12.34164,-0.85261 -27.42266,-0.59797 -20.40142,0.34449 -27.70443,0.92315 -28.53107,2.26068 -0.84626,1.36929 -1.35688,1.39992 -2.14263,0.12855 -0.70802,-1.14561 -3.50797,-1.40161 -8.9269,-0.81619 -25.08041,2.70948 -63.1503,3.29798 -74.40947,1.15027 z m 11.939,-7.91884 c 5.12725,-2.58906 12.72337,-10.25874 11.43568,-11.54642 -0.50951,-0.50951 -0.0237,-1.61882 1.07956,-2.46513 1.10327,-0.84632 2.19621,-3.42916 2.42876,-5.73965 0.23255,-2.3105 0.85696,-4.52938 1.38758,-4.93087 0.53062,-0.40148 1.27754,-2.45482 1.65983,-4.56299 0.38228,-2.10815 1.03397,-4.93032 1.4482,-6.27151 0.41423,-1.34118 1.03905,-4.64398 1.38849,-7.33955 0.34944,-2.69558 1.55251,-9.31199 2.67349,-14.70314 1.12098,-5.39114 2.07723,-10.74729 2.12499,-11.90253 0.0478,-1.15525 3.5946,-18.79901 7.88184,-39.20835 8.91415,-42.43563 8.92608,-42.49392 9.99611,-48.83781 0.43865,-2.60063 1.1193,-6.06637 1.51255,-7.70164 0.39325,-1.63528 1.04639,-11.49991 1.45143,-21.92141 0.55519,-14.28503 0.18553,-21.61201 -1.50207,-29.7724 -2.73057,-13.20361 -4.6493,-17.07396 -11.59803,-23.39478 -5.23847,-4.7651 -5.69879,-4.89879 -16.5958,-4.81967 -6.16433,0.0447 -13.22899,0.48402 -15.69924,0.97615 -8.06655,1.60705 -15.81296,4.26292 -15.81296,5.42152 0,0.62409 -0.95007,0.77013 -2.11126,0.32454 -1.1612,-0.4456 -3.68173,0.21884 -5.6012,1.47652 -1.91946,1.25768 -3.48993,1.94649 -3.48993,1.53068 0,-1.14279 -13.85794,6.09294 -21.00447,10.96718 -15.33535,10.45937 -20.01711,18.10794 -20.30877,33.17829 -0.11226,5.80086 0.29417,14.9378 0.90319,20.30433 0.60902,5.36652 1.44812,13.53812 1.86468,18.1591 0.41656,4.62099 1.14244,10.24596 1.61308,12.49994 0.47063,2.25398 1.03875,6.66492 1.26248,9.80208 0.22372,3.13717 0.74172,9.16969 1.15111,13.40559 1.06695,11.03973 2.04702,22.85371 2.95631,35.63609 0.4355,6.12196 1.48113,11.55687 2.32362,12.07757 1.10509,0.68298 1.09942,1.21392 -0.0203,1.90598 -1.94678,1.20317 -0.4037,16.4394 1.81523,17.92331 1.03065,0.68924 0.91058,1.03586 -0.36381,1.05022 -1.26326,0.0143 -1.64481,1.0797 -1.13593,3.17211 0.42143,1.73287 1.19021,6.93148 1.70839,11.55246 0.51818,4.62099 1.50587,8.61314 2.19488,8.87147 0.689,0.25833 0.86278,1.10063 0.38617,1.8718 -1.19838,1.93903 4.60207,12.82374 9.06921,17.01864 8.11365,7.61921 13.93873,9.59134 26.08721,8.83209 6.16132,-0.38506 13.1092,-1.66298 15.43974,-2.83981 z m 242.29169,0.15885 c 19.75572,-5.08026 32.25792,-19.57815 36.16824,-41.94165 0.36809,-2.10525 0.95389,-4.31072 1.30177,-4.90104 0.34787,-0.59034 1.08505,-4.53907 1.63817,-8.77497 0.55311,-4.2359 1.28218,-9.27697 1.62013,-11.20238 0.33796,-1.92541 0.90193,-10.9316 1.25329,-20.01374 0.47844,-12.36736 0.13443,-17.72023 -1.37037,-21.32166 -9.29564,-22.24761 -34.65666,-20.94423 -51.89017,2.6668 -1.54033,2.11035 -3.90333,4.88267 -5.25112,6.16071 -1.34778,1.27806 -2.45052,3.07637 -2.45052,3.99629 0,0.91989 -0.4726,1.88259 -1.05022,2.13932 -1.69976,0.75544 -8.75187,10.64714 -8.75187,12.27586 0,0.82156 -0.4726,1.49772 -1.05022,1.50258 -0.57762,0.004 -2.23324,2.05281 -3.67913,4.55097 -6.71281,11.59808 -7.77668,13.64406 -7.09471,13.64406 0.40193,0 -0.53567,1.35937 -2.08355,3.02082 -4.54245,4.87575 -16.97826,31.41054 -17.76834,37.91299 -0.62418,5.13726 -0.17184,6.59307 3.22231,10.37071 4.08422,4.54567 13.80133,9.47489 15.99971,8.11621 0.68836,-0.42541 1.25155,-0.14999 1.25155,0.61206 0,0.76205 1.4178,1.68645 3.15067,2.05421 3.89857,0.82738 32.8989,0.14388 36.83438,-0.86815 z"
       id="path857"
       transform="scale(0.26458333)" />
    <path
       style="fill:#b4b4b4;fill-opacity:1;stroke-width:29.0142;paint-order:stroke fill markers"
       d="m 224.30624,662.03882 c -23.44582,-4.18699 -39.03258,-10.6243 -46.95338,-19.39168 -12.49764,-13.83339 -18.69379,-35.69653 -39.1687,-138.20699 -19.58329,-98.04646 -20.17726,-101.64719 -20.1843,-122.36042 -0.009,-25.11381 6.09073,-45.58485 19.31857,-64.83916 6.92785,-10.08411 25.66491,-28.59436 38.69089,-38.22254 8.32415,-6.15282 52.21936,-29.4998 55.46327,-29.4998 0.61477,0 2.43133,3.93834 4.0368,8.75187 5.98442,17.94254 11.70089,22.8595 25.18971,21.66663 10.27263,-0.90844 52.442,-7.27943 72.88502,-11.01154 12.7033,-2.31913 23.7966,-3.09165 51.86708,-3.61193 l 35.70761,-0.66184 35.7076,5.73768 c 19.63918,3.15573 43.61452,7.02638 53.27851,8.60145 17.14927,2.79505 19.56847,2.74982 26.30445,-0.49175 3.90316,-1.87833 8.83318,-10.12629 12.09121,-20.2287 1.31358,-4.07308 3.21494,-7.35157 4.26356,-7.35157 1.04095,0 10.11658,4.11635 20.16804,9.14744 52.97158,26.51405 81.89538,58.23241 90.32746,99.0547 4.41271,21.36324 2.62296,41.67223 -8.41961,95.54126 -3.47326,16.94361 -10.3232,50.65579 -15.22209,74.91596 -12.70728,62.9287 -19.01215,86.01435 -28.41537,104.04452 -5.83382,11.18606 -11.64575,16.4025 -23.61246,21.1931 -17.32853,6.93708 -33.7313,9.19101 -66.88683,9.19101 -33.70522,0 -86.90374,-3.29524 -103.03645,-6.38232 -13.57977,-2.59856 -38.69374,-2.58295 -54.30971,0.0337 -29.59482,4.95909 -119.92198,7.80408 -139.09088,4.38087 z m 108.63377,-52.06498 c 13.09279,-1.14042 31.58852,-3.32079 41.10163,-4.84526 16.10434,-2.58069 18.13127,-2.62731 29.40626,-0.67612 28.51993,4.9355 59.97101,7.73041 87.0608,7.73668 25.6549,0.006 28.41819,-0.25481 44.80955,-4.22848 25.14077,-6.09476 38.7757,-10.90501 44.05844,-15.54331 5.59101,-4.90896 14.70296,-22.0065 19.40537,-36.41196 4.37267,-13.39531 7.53195,-33.6391 8.60423,-55.13362 1.43678,-28.8008 3.54266,-50.97352 7.04874,-74.21581 4.53645,-30.0727 5.75219,-51.31902 3.49206,-61.02735 -4.20019,-18.0419 -16.78361,-33.22479 -40.17093,-48.46941 -21.45122,-13.98262 -46.67683,-23.57354 -85.88229,-32.65296 -79.02085,-18.30008 -133.20459,-17.5498 -214.79623,2.97429 -54.5248,13.71551 -94.81577,38.11255 -107.63236,65.17367 -4.48646,9.47277 -4.5402,9.83216 -4.46995,29.89237 0.0471,13.45111 1.10711,27.15754 3.14054,40.60865 4.24806,28.10092 5.66364,42.57791 7.26473,74.29589 1.93737,38.37978 5.78351,56.33779 16.77764,78.33662 5.32557,10.65625 10.00246,16.0559 17.04492,19.67898 11.91188,6.12821 49.24571,15.43322 69.12522,17.22861 7.5912,0.6856 26.06622,-0.23507 54.61163,-2.72148 z"
       id="path859"
       transform="scale(0.26458333)" />
    <path
       style="fill:#b4b4b4;fill-opacity:1;stroke-width:29.0142;paint-order:stroke fill markers"
       d="m 655.50341,710.13198 c -13.90253,-6.19457 -45.82314,-17.37465 -59.83552,-20.95717 -7.12635,-1.82199 -6.53194,-2.84947 4.02894,-6.96432 16.67366,-6.49657 29.12791,-17.51433 37.41124,-33.0962 9.62162,-18.09931 20.93462,-57.21503 29.10479,-100.63238 2.02899,-10.78229 4.18352,-20.10991 4.78785,-20.72803 0.60433,-0.61812 4.81495,0.51885 9.35692,2.52661 17.79497,7.86618 20.91282,15.36223 19.77009,47.53194 -0.98309,27.67572 -9.02405,69.30526 -21.92306,113.49991 -2.24787,7.70164 -4.47263,16.34387 -4.94391,19.20497 -0.47128,2.86111 -1.30507,5.43948 -1.85287,5.72973 -0.54779,0.29025 -7.7048,-2.46153 -15.90447,-6.11506 z"
       id="path861"
       transform="scale(0.26458333)" />
    <path
       style="fill:#b4b4b4;fill-opacity:1;stroke-width:29.0142;paint-order:stroke fill markers"
       d="m 108.77503,710.56644 c -1.86171,-8.23302 -4.79614,-18.94617 -12.961274,-47.31952 -8.946566,-31.08878 -10.335206,-37.96671 -12.785491,-63.32655 -3.612968,-37.39332 -1.410609,-55.57701 7.781315,-64.24611 5.034366,-4.74802 18.73362,-10.75891 20.56292,-9.0225 0.59395,0.56379 2.90124,10.43222 5.12731,21.92985 8.20021,42.35394 21.26066,88.72123 28.99124,102.92484 5.5654,10.22548 17.07705,19.86733 33.19173,27.80051 l 13.80421,6.79573 -4.68945,1.45711 c -2.57919,0.80142 -12.25105,3.76673 -21.49302,6.5896 -9.24197,2.82287 -25.14276,8.53794 -35.33511,12.70017 -10.19234,4.16223 -19.15974,7.56769 -19.92757,7.56769 -0.76782,0 -1.78789,-1.73287 -2.26681,-3.85082 z"
       id="path863"
       transform="scale(0.26458333)" />
    <path
       style="fill:#b4b4b4;fill-opacity:1;stroke-width:29.0142;paint-order:stroke fill markers"
       d="m 454.44986,715.78892 c -10.18598,-0.67137 -26.0465,-2.19984 -35.24559,-3.39661 -21.78892,-2.83467 -33.0518,-2.72686 -65.25978,0.62465 -33.15752,3.45032 -85.589,3.81372 -106.0149,0.73479 -17.92452,-2.70188 -23.07066,-4.93605 -25.66353,-11.14166 -4.4055,-10.54383 -7.04083,-9.89588 40.30917,-9.91088 41.14227,-0.013 88.33168,-2.37107 102.57164,-5.12547 11.62356,-2.24832 36.98638,-3.04246 42.68073,-1.33639 14.04537,4.2081 108.89606,9.64681 135.63158,7.77708 l 18.61452,-1.3018 -0.8962,4.90105 c -1.07084,5.85609 -3.91501,10.5821 -7.5341,12.51897 -9.74812,5.21704 -61.27715,8.15535 -99.19354,5.65627 z"
       id="path865"
       transform="scale(0.26458333)" />
    <path
       style="fill:#b4b4b4;fill-opacity:1;stroke-width:29.0142;paint-order:stroke fill markers"
       d="m 263.85277,246.97935 c -3.95486,-7.93892 -7.45142,-18.79048 -6.37532,-19.78578 0.68571,-0.63423 4.32906,-1.59383 8.09631,-2.13244 l 6.84956,-0.97929 -0.8634,4.31701 c -0.99918,4.9959 0.9273,10.99131 4.37299,13.60917 4.11789,3.12855 12.59208,2.34195 16.46211,-1.52808 4.42772,-4.42772 4.68771,-12.5549 0.54278,-16.96698 l -2.89431,-3.08086 9.02872,-1.57228 c 61.61808,-10.73033 113.22383,-11.12776 174.79463,-1.34617 l 19.1009,3.03451 -2.64215,4.33288 c -3.56472,5.8458 -3.33227,11.0882 0.69951,15.77542 2.67963,3.11526 4.53546,3.89708 9.25056,3.89708 4.77686,0 6.56496,-0.77489 9.40378,-4.07522 2.91346,-3.3871 3.38952,-5.10294 2.81935,-10.16159 -0.58031,-5.1485 -0.33421,-5.98362 1.59714,-5.41962 1.25573,0.3667 4.64616,1.08552 7.53428,1.59738 2.88811,0.51186 5.25111,1.63482 5.25111,2.49548 0,3.57211 -7.37811,20.52826 -8.93244,20.52826 -2.30282,0 -30.03134,-3.58364 -59.97433,-7.75109 -16.43863,-2.28793 -31.7791,-3.49386 -45.50969,-3.57758 -15.31843,-0.0934 -19.53174,-0.46731 -16.17896,-1.43577 9.14933,-2.64283 11.35115,-16.10693 3.62752,-22.18234 -7.23828,-5.69363 -17.10919,-2.71072 -19.99828,6.04331 -2.275,6.89331 1.33806,14.13433 8.33666,16.70767 1.15524,0.42477 -7.35157,0.84268 -18.90403,0.92868 -11.55246,0.086 -25.10035,0.7207 -30.10641,1.41043 -5.00607,0.68974 -21.70463,2.85514 -37.10791,4.81201 -15.40328,1.95687 -30.05301,3.8527 -32.55495,4.21296 -3.32443,0.47868 -4.86576,0.0191 -5.72573,-1.70716 z"
       id="path867"
       transform="scale(0.26458333)" />
    <path
       style="fill:#b4b4b4;fill-opacity:1;stroke-width:29.0142;paint-order:stroke fill markers"
       d="m 591.99519,94.894224 c -0.77016,-0.318861 -3.7633,-0.974973 -6.65141,-1.458025 -2.88812,-0.483051 -5.25112,-1.358648 -5.25112,-1.945769 0,-1.247408 14.19409,-8.471816 25.04125,-12.745318 27.29808,-10.754748 78.58117,-18.31272 104.51661,-15.403396 13.89319,1.558477 17.47346,2.384013 17.47346,4.029013 0,2.125618 -24.83927,12.616892 -39.85372,16.832874 -27.06341,7.599266 -42.865,10.030891 -69.36955,10.674921 -13.47787,0.327496 -25.13535,0.334562 -25.90552,0.0157 z"
       id="path869"
       transform="scale(0.26458333)" />
    <path
       style="fill:#b4b4b4;fill-opacity:1;stroke-width:29.0142;paint-order:stroke fill markers"
       d="m 632.85082,260.99352 c -1.29109,-1.42663 -2.34223,-4.43465 -2.33588,-6.6845 0.03,-10.62227 12.6136,-122.85609 13.95595,-124.47352 1.68724,-2.03301 7.02072,-3.81629 7.06492,-2.3622 0.13754,4.52528 -14.60884,134.20937 -15.35436,135.03078 -0.54077,0.59582 -2.03955,-0.0839 -3.33063,-1.51056 z"
       id="path871"
       transform="scale(0.26458333)" />
    <path
       style="fill:#ffffff;fill-opacity:1;stroke-width:29.0142;paint-order:stroke fill markers"
       d="m 259.01819,546.4033 c -4.86544,-5.37625 -5.96921,-19.55752 -8.07602,-65.83585 -1.45634,-31.99012 -4.01171,-52.56078 -6.48288,-69.2451 -4.58792,-30.9757 -1.47744,-33.6032 4.81202,-38.78751 6.53624,-5.38773 38.65089,-18.85383 46.28255,-19.757 7.1885,-0.85072 9.74984,9.02614 9.77616,30.49323 0.0213,17.38346 -4.67756,32.38793 -13.7682,70.83583 -3.43959,14.54735 -8.89092,36.30333 -11.56681,52.17745 -6.48327,38.46054 -5.36906,36.49689 -6.46473,39.03202 -3.57598,8.27396 -12.73806,3.04722 -14.51209,1.08693 z"
       id="path873"
       transform="scale(0.26458333)"
       sodipodi:nodetypes="ssssssssss" />
    <path
       style="fill:#757575;fill-opacity:1;stroke-width:26.0421;paint-order:stroke fill markers"
       d="m 286.78851,581.71332 c -22.101,-1.17479 -51.61033,-7.77037 -61.2212,-13.68343 -3.55269,-2.18579 -9.16468,-10.54376 -9.91065,-14.75999 -0.38571,-2.18003 -3.2427,-10.88183 -4.0064,-12.20266 -0.3594,-0.6216 -0.85988,-3.42182 -1.11217,-6.2227 -0.25229,-2.8009 -0.87374,-5.40305 -1.381,-5.78256 -0.50726,-0.37952 -1.01562,-2.95238 -1.1297,-5.71747 -0.11407,-2.76509 -0.47825,-7.57258 -0.8093,-10.6833 -0.33104,-3.11073 -0.9873,-11.87733 -1.45835,-19.48133 -0.47106,-7.60399 -1.26483,-13.97577 -1.76394,-14.15951 -0.49912,-0.18373 -0.67603,-2.31659 -0.39315,-4.7397 0.44917,-3.84745 -1.396,-26.80255 -3.02785,-37.66838 -0.72907,-4.8546 -1.29638,-10.28457 -2.29707,-21.98612 -0.44336,-5.18455 -1.08213,-10.70067 -1.41948,-12.25805 -1.32842,-6.13278 -1.77312,-25.29484 -0.71808,-30.94221 0.92278,-4.9394 2.60364,-7.55434 9.747,-15.16362 4.74756,-5.05721 9.12996,-9.26503 9.73868,-9.35073 0.60871,-0.0857 3.86214,-2.13535 7.22985,-4.55481 3.3677,-2.41945 6.68737,-4.39901 7.37705,-4.39901 0.68967,0 1.25395,-0.59896 1.25395,-1.33103 0,-0.73207 0.56558,-0.98149 1.25686,-0.55426 0.69127,0.42723 1.25686,0.14444 1.25686,-0.62843 0,-0.77286 0.56558,-1.05566 1.25685,-0.62843 0.69128,0.42723 1.25686,0.17782 1.25686,-0.55425 0,-0.73207 0.42419,-1.21623 0.94265,-1.07592 1.57386,0.42595 10.36909,-3.20287 10.36909,-4.27818 0,-0.55241 0.42419,-0.89663 0.94264,-0.76494 1.95511,0.49659 9.11223,-1.74428 9.11223,-2.85302 0,-0.63634 0.42419,-1.09001 0.94265,-1.00815 0.51845,0.0819 1.22544,0.0386 1.57107,-0.0962 0.34564,-0.13475 1.58447,-0.42952 2.75296,-0.65505 2.25437,-0.43511 10.43027,-2.88231 13.58622,-4.0666 1.03691,-0.38911 2.73367,-0.84743 3.77057,-1.01848 1.03691,-0.17105 7.82395,-1.80691 15.08232,-3.63524 7.25836,-1.82833 14.3282,-3.54812 15.71074,-3.82177 1.38255,-0.27364 3.92769,-0.81691 5.65587,-1.20727 25.10435,-5.67051 26.731,-5.80061 70.90995,-5.6714 23.5597,0.0689 44.81538,0.31642 47.23484,0.55005 12.26194,1.18405 28.75126,4.54621 51.44498,10.4896 10.66729,2.79372 19.81899,4.81749 20.33711,4.49727 0.51813,-0.32022 1.25769,-0.0715 1.64346,0.55266 0.38577,0.62418 2.82859,1.57933 5.42849,2.12256 5.24622,1.09615 4.99564,1.02691 8.49769,2.34773 2.95817,1.11569 4.76299,1.88884 15.93507,6.82623 4.61664,2.04028 8.71715,3.38636 9.11223,2.99128 0.39508,-0.39507 0.71832,-0.07 0.71832,0.72247 0,0.79244 2.26234,2.59496 5.02744,4.0056 2.76509,1.41065 5.02743,2.24849 5.02743,1.86187 0,-0.38661 1.23782,0.45028 2.75072,1.85975 1.51289,1.40947 3.24599,2.56268 3.85133,2.56268 0.60535,0 5.5211,4.39088 10.9239,9.7575 8.84893,8.7897 9.96278,10.44149 11.2297,16.65339 0.97524,4.7817 1.04801,10.93633 0.23739,20.07472 -0.64296,7.24836 -0.96129,13.38657 -0.70739,13.64047 0.2539,0.2539 -0.0138,1.71216 -0.59492,3.24058 -0.5811,1.52842 -1.39944,6.98901 -1.81853,12.13466 -0.41908,5.14564 -1.03434,10.7654 -1.36722,12.48836 -0.85928,4.44746 -2.49289,24.75069 -2.50214,31.09775 -0.004,2.93791 -0.30806,5.34166 -0.67504,5.34166 -0.36699,0 -0.80933,4.1005 -0.98297,9.11223 -0.17367,5.01172 -0.81938,13.35413 -1.43494,18.53867 -0.61554,5.18455 -1.09874,10.27483 -1.07377,11.31174 0.025,1.03691 -0.5309,5.5616 -1.23527,10.05487 -0.70436,4.49328 -1.29973,9.01797 -1.323,10.05488 -0.0689,3.06701 -2.62407,12.69319 -5.33797,20.10975 -1.39125,3.802 -2.76795,7.99348 -3.05933,9.3144 -0.29139,1.32092 -1.87914,4.43165 -3.52836,6.91272 -2.53005,3.80623 -4.35177,4.88902 -11.65919,6.93004 -4.76333,1.33042 -9.50898,2.84397 -10.54589,3.36342 -2.58191,1.29342 -21.71203,4.87828 -30.16463,5.65265 -9.96688,0.91309 -32.38612,0.91327 -48.38908,3.6e-4 -7.604,-0.43377 -21.17809,-1.20464 -30.16463,-1.71304 -19.92747,-1.12735 -66.41883,-1.11539 -86.09487,0.0221 -23.99102,1.387 -36.97475,2.27255 -38.96265,2.6574 -1.03691,0.20074 -9.52071,-0.0409 -18.85289,-0.53693 z m -16.63412,-7.03339 c 5.02232,-0.35788 9.84328,-1.3086 10.71323,-2.11273 0.86995,-0.80411 2.41665,-1.62308 3.4371,-1.81992 2.66982,-0.51499 10.26809,-8.91518 9.37346,-10.36273 -0.41455,-0.67075 -0.22337,-1.21954 0.42483,-1.21954 2.34257,0 6.47373,-14.14429 9.54446,-32.67835 0.28632,-1.72818 1.09917,-5.68729 1.80633,-8.79802 0.70716,-3.11072 1.58519,-7.91821 1.95118,-10.6833 0.36598,-2.76509 1.21455,-7.28979 1.88569,-10.05488 0.67114,-2.76509 1.56912,-7.57257 1.9955,-10.6833 0.95933,-6.99897 1.3025,-8.7126 3.71733,-18.56276 1.06243,-4.3337 2.20152,-9.70678 2.5313,-11.94017 0.32977,-2.23338 1.12263,-6.18166 1.76189,-8.77393 0.73885,-2.99609 0.71992,-4.71322 -0.0519,-4.71322 -0.66784,0 -0.32549,-0.88878 0.76079,-1.97507 1.08629,-1.08628 2.01834,-3.20723 2.07123,-4.71322 0.0529,-1.50598 0.26722,-3.58654 0.47629,-4.62345 0.20908,-1.03691 1.34387,-6.59874 2.52179,-12.35963 1.1779,-5.76089 1.81686,-10.79913 1.4199,-11.19609 -0.39697,-0.39696 -0.0775,-1.49795 0.70977,-2.44663 0.9245,-1.11395 1.47452,-8.72271 1.55292,-21.48226 0.12937,-21.05282 -0.833,-32.0205 -2.86923,-32.69924 -0.68896,-0.22966 -0.96913,-1.15647 -0.62256,-2.05959 0.34655,-0.90311 -0.10947,-2.42193 -1.01325,-3.37516 -0.90391,-0.95322 -1.81251,-2.8643 -2.01916,-4.24685 -0.52686,-3.5247 -11.21579,-13.59975 -13.4989,-12.72364 -1.00986,0.38752 -1.83611,0.15675 -1.83611,-0.51283 0,-3.16362 -33.12907,1.06525 -38.24819,4.88232 -0.73858,0.55072 -3.88802,1.73066 -6.99875,2.62208 -5.41743,1.55244 -21.17779,9.35247 -26.67005,13.1994 -10.12683,7.09311 -19.67409,19.91045 -18.0273,24.20193 0.34561,0.90063 0.0225,1.63752 -0.71801,1.63752 -0.9097,0 -1.11221,3.5669 -0.62438,10.99752 0.3971,6.04863 0.72021,12.83567 0.71803,15.08231 -0.002,2.47528 0.63059,4.09238 1.60647,4.10404 1.10547,0.0132 1.17634,0.30879 0.22602,0.94264 -1.00225,0.6685 -0.91731,4.73993 0.30772,14.74886 0.93067,7.604 1.98877,17.21897 2.35132,21.36661 0.36256,4.14763 1.2178,12.91423 1.90054,19.48132 0.68274,6.56709 1.49928,15.33368 1.81452,19.48132 0.31525,4.14764 0.94554,10.93468 1.40066,15.08231 0.45511,4.14764 0.74985,9.09652 0.65498,10.99752 -0.0949,1.901 0.47131,3.45637 1.25821,3.45637 1.03121,0 1.00779,0.5096 -0.0839,1.82497 -0.83303,1.00374 -1.18383,2.86712 -0.77956,4.14086 0.40427,1.27374 0.9939,5.68419 1.31029,9.80098 1.0097,13.13795 2.19453,20.69543 3.35719,21.41399 0.62175,0.38428 0.81705,1.20578 0.434,1.82558 -1.03724,1.6783 3.92494,10.70609 8.92937,16.24541 4.70716,5.21026 12.93225,9.92648 17.31708,9.9295 1.47859,10e-4 6.79752,-0.29096 11.81984,-0.64885 z m 252.9237,-2.11434 c 6.03451,-1.40483 8.79802,-2.48614 8.79802,-3.44251 0,-0.59465 0.80465,-0.77239 1.7881,-0.39501 0.98347,0.3774 2.91589,-0.44161 4.29428,-1.81999 1.37838,-1.37839 2.75053,-2.26178 3.04921,-1.9631 0.29868,0.29869 3.21376,-2.31212 6.47793,-5.80179 6.26815,-6.70116 11.44973,-16.54156 10.29486,-19.55109 -0.37856,-0.98654 -0.0745,-1.7937 0.6757,-1.7937 0.7502,0 1.0682,-1.13118 0.70665,-2.51372 -0.36155,-1.38255 -0.20112,-2.51372 0.35648,-2.51372 2.97212,0 6.92042,-30.17884 6.92042,-52.89628 0,-14.0506 -0.12913,-14.74836 -3.67673,-19.86686 -4.98048,-7.18588 -9.52291,-10.15947 -16.844,-11.02655 -11.20032,-1.32651 -20.56949,3.84488 -31.57239,17.42663 -8.48651,10.47557 -8.09366,9.95876 -10.82158,14.23606 -1.31116,2.05585 -2.73664,4.0207 -3.16771,4.36634 -2.23905,1.79523 -11.46237,17.59603 -10.27126,17.59603 0.43677,0 -0.30376,0.8304 -1.64561,1.84532 -1.34185,1.01492 -1.87414,1.87197 -1.18287,1.90453 0.82836,0.039 0.82435,0.37404 -0.0113,0.98262 -1.98629,1.44577 -8.30644,11.60444 -7.23301,11.62595 0.52827,0.01 0.32489,0.43477 -0.45195,0.94264 -1.58387,1.03518 -12.19266,21.66158 -11.14167,21.66158 0.36929,0 -0.1614,1.27257 -1.17931,2.82794 -1.01791,1.55536 -2.2206,5.14538 -2.67267,7.97783 -0.73765,4.62188 -0.3898,5.64205 3.39285,9.95029 4.32075,4.92113 13.94853,10.14377 16.16942,8.77119 0.6833,-0.4223 1.24237,-0.20644 1.24237,0.47972 0,0.68616 1.55536,1.52281 3.45636,1.85925 3.51923,0.62282 30.81574,-0.0703 34.24942,-0.8696 z"
       id="path875"
       transform="scale(0.26458333)" />
    <path
       style="fill:#5a5a5a;fill-opacity:1;stroke-width:26.0421;paint-order:stroke fill markers"
       d="m 276.76967,580.42901 c -13.24858,-1.48983 -34.75335,-6.30768 -44.41925,-9.9515 -9.05416,-3.41322 -13.29842,-8.81589 -17.59345,-22.39534 -4.84014,-15.30292 -5.80419,-20.80166 -7.8627,-44.84741 -1.06522,-12.44291 -2.39396,-25.7342 -2.95277,-29.5362 -0.55881,-3.802 -0.75632,-7.60504 -0.4389,-8.45121 0.57172,-1.52409 -3.68612,-44.72377 -6.00407,-60.91681 -1.78726,-12.48563 -1.50871,-31.80616 0.52713,-36.56275 2.94432,-6.87921 15.08546,-18.80027 26.22986,-25.75441 19.37583,-12.09059 45.44104,-21.11384 88.68852,-30.70221 10.15464,-2.25138 18.74578,-4.38815 19.09141,-4.74838 1.12977,-1.17746 8.79108,-1.36131 57.58978,-1.38197 53.76145,-0.0228 53.02836,-0.0984 93.55614,9.6488 12.96608,3.11841 24.13642,5.32268 24.82298,4.89836 0.68656,-0.42431 1.24828,-0.19432 1.24828,0.51111 0,0.70542 2.40375,1.89169 5.34166,2.63615 7.62902,1.93317 31.7842,12.25099 37.05533,15.82808 2.45168,1.66375 4.91591,3.025 5.47605,3.025 5.0921,0 26.31135,20.7417 28.73319,28.08654 1.65775,5.02754 1.52647,38.52037 -0.15599,39.7987 -1.31924,1.00235 -3.79026,26.16345 -2.85795,29.10091 0.47229,1.48806 0.33056,2.3108 -0.32797,1.9038 -1.41406,-0.87393 -4.16515,34.17571 -3.22656,41.1072 0.49495,3.65516 0.27392,4.64525 -0.87806,3.93331 -1.16293,-0.71874 -1.43204,0.77687 -1.10018,6.11447 0.24163,3.88626 0.0151,7.06515 -0.50332,7.06421 -0.51845,-9.4e-4 -0.94264,2.16219 -0.94264,4.80695 0,16.8533 -8.1393,50.91348 -14.52395,60.77776 -2.66524,4.11783 -4.3306,5.05218 -15.08747,8.4648 -25.3333,8.03701 -47.76247,9.6325 -100.47354,7.14708 -33.35721,-1.57285 -88.60878,-2.25651 -88.60762,-1.09641 5.3e-4,0.53105 -6.07953,0.96555 -13.51124,0.96555 -7.43171,0 -23.12718,0.3877 -34.87882,0.86156 -11.8251,0.47683 -26.12127,0.3269 -32.01388,-0.33574 z m 4.9914,-8.29702 c 4.19708,-2.24268 12.06625,-9.19641 10.40709,-9.19641 -0.43471,0 0.38932,-1.27257 1.83119,-2.82793 4.26911,-4.60516 7.22312,-16.35717 15.40141,-61.2719 1.44751,-7.94963 4.6005,-23.67738 7.00664,-34.95056 2.40614,-11.27316 4.00639,-21.09278 3.55611,-21.82134 -0.45029,-0.72858 -0.18763,-1.71469 0.58367,-2.19138 1.40482,-0.86823 3.6327,-11.69581 7.00497,-34.04432 3.14712,-20.85652 1.11056,-57.10377 -3.39481,-60.42162 -0.53833,-0.39644 -1.22924,-2.02133 -1.53536,-3.61085 -0.53365,-2.77102 -10.6759,-13.93031 -10.71553,-11.79006 -0.0106,0.57167 -0.53745,0.22029 -1.17081,-0.78085 -2.7245,-4.30651 -33.32242,-1.90329 -43.33502,3.40362 -2.1252,1.12641 -4.91274,2.22618 -6.19453,2.44393 -3.95316,0.67158 -27.37601,13.17859 -28.07064,14.98878 -0.36041,0.93921 -1.10464,1.42995 -1.65383,1.09053 -0.5492,-0.33943 -2.76694,1.50198 -4.9283,4.09201 -2.16137,2.59003 -4.68519,5.55752 -5.60849,6.59443 -0.9233,1.03691 -2.42345,3.29926 -3.33367,5.02744 -1.87597,3.5618 -3.30085,28.811 -1.82281,32.30065 0.52716,1.24464 1.07025,4.80813 1.20686,7.91885 0.4013,9.1379 7.1666,77.12047 7.87983,79.18215 0.35872,1.03691 0.53725,4.27529 0.39673,7.1964 -0.14051,2.92112 0.15585,5.97664 0.65858,6.79008 0.50272,0.81343 0.88901,4.36208 0.85841,7.8859 -0.13675,15.74888 3.93803,44.74117 6.28823,44.74117 0.58948,0 0.73498,0.54496 0.32333,1.21102 -0.41165,0.66605 0.40335,2.36281 1.81111,3.77058 1.40776,1.40776 2.16199,2.55956 1.67606,2.55956 -1.76653,0 9.17072,10.32862 13.4521,12.70351 3.70063,2.05276 6.19484,2.35419 15.71074,1.89867 7.79848,-0.3733 12.678,-1.27153 15.71074,-2.89206 z m 243.51867,-0.0906 c 0.23793,-0.71377 1.6251,-0.98592 3.08259,-0.60478 1.80717,0.47259 2.36403,0.23028 1.75084,-0.76186 -0.60691,-0.98202 0.36326,-1.45485 2.98507,-1.45485 2.29318,0 4.18053,-0.77224 4.60764,-1.88529 0.39791,-1.03691 1.43393,-1.88529 2.30229,-1.88529 3.68284,0 18.1824,-18.51351 16.11709,-20.57883 -0.43328,-0.43328 -0.0808,-0.78778 0.7833,-0.78778 0.86409,0 1.33896,-0.69632 1.05527,-1.54738 -0.28368,-0.85107 0.72374,-4.96476 2.23872,-9.14155 4.01915,-11.08072 6.04671,-27.5158 6.14794,-49.83405 l 0.0892,-19.67506 -3.84333,-4.75238 c -6.15812,-7.61467 -9.81436,-9.72448 -17.86104,-10.30652 -7.57343,-0.54781 -16.62983,2.05156 -16.62983,4.7731 0,0.76734 -0.50242,1.08466 -1.11648,0.70515 -3.10592,-1.91956 -36.56829,40.25844 -34.54138,43.53804 0.33778,0.54655 -0.0791,0.99371 -0.92637,0.99371 -0.84728,0 -1.20901,0.33151 -0.80384,0.73669 0.40518,0.40517 -1.33871,3.48598 -3.87531,6.84625 -2.53659,3.36026 -7.82293,12.50233 -11.7474,20.31571 -13.57187,27.02074 -13.95312,29.47666 -5.7474,37.02266 2.93791,2.70172 7.3212,5.65448 9.74066,6.56171 2.41945,0.90721 5.53018,2.16386 6.91273,2.79254 3.42829,1.55892 38.72319,0.5975 39.279,-1.06995 z"
       id="path877"
       transform="scale(0.26458333)" />
    <path
       style="fill:#5a5a5a;fill-opacity:1;stroke-width:26.0421;paint-order:stroke fill markers"
       d="m 272.96306,579.78783 c -41.03949,-7.73583 -49.21995,-11.28379 -54.69394,-23.7214 -7.32535,-16.64411 -10.53085,-37.23808 -14.48363,-93.05117 -0.6854,-9.67782 -2.71107,-30.60453 -4.50148,-46.5038 -3.60216,-31.98794 -3.39858,-44.76822 0.8219,-51.5971 1.318,-2.13256 5.70201,-7.03044 9.74224,-10.88417 19.10002,-18.21834 42.69541,-27.95599 103.33441,-42.64542 l 21.99504,-5.32816 43.27627,-0.47826 c 52.79715,-0.58347 64.18642,0.38231 100.63414,8.53349 45.40477,10.15435 75.85197,23.09376 92.76517,39.42322 14.10663,13.61976 14.28334,14.04301 14.36357,34.40117 0.0374,9.49492 -0.5615,20.37422 -1.33093,24.17622 -0.76942,3.802 -1.99864,13.41697 -2.73159,21.36661 -0.73295,7.94964 -1.92526,20.95813 -2.64957,28.90777 -0.72432,7.94963 -1.02647,16.29204 -0.67144,18.53868 0.35503,2.24663 0.1155,4.08479 -0.53233,4.08479 -0.64781,0 -1.18237,2.12095 -1.18789,4.71322 -0.0338,15.86693 -6.92561,52.606 -12.56163,66.96396 -3.84967,9.80715 -6.59429,12.16373 -18.33892,15.74607 -24.12827,7.35956 -25.90559,7.51643 -78.43618,6.92289 -73.38323,-0.82916 -107.33945,-0.79401 -151.45156,0.15678 -22.12073,0.47679 -41.63347,0.60037 -43.36165,0.27461 z m 3.04952,-5.48811 c 5.64251,-1.30862 14.53803,-7.14716 16.43578,-10.78755 0.70586,-1.35403 2.22465,-3.87584 3.3751,-5.60402 3.0133,-4.52654 5.13527,-13.66973 15.59078,-67.17788 5.13973,-26.30362 10.21085,-51.35602 11.26913,-55.67202 7.97827,-32.53733 8.86626,-74.70037 1.89552,-90.00208 -3.29388,-7.23054 -9.78426,-14.54175 -14.81232,-16.68567 -8.77944,-3.74345 -29.94729,-1.15677 -47.48682,5.80281 -8.95809,3.55452 -17.71674,8.05152 -19.48132,10.00239 -0.34564,0.38212 -1.41202,0.8617 -2.36974,1.06573 -3.42526,0.7297 -12.62934,7.90371 -16.86596,13.14598 -6.43955,7.9681 -7.35389,10.37683 -8.10637,21.35523 -0.69653,10.16214 -0.006,19.29568 5.48602,72.58931 1.67415,16.24491 3.62838,37.17162 4.34274,46.5038 2.60266,34.00056 4.79956,49.26785 8.04811,55.93025 3.32881,6.82698 11.63774,15.67224 17.63479,18.77308 4.22444,2.1843 17.20604,2.57856 25.04456,0.76064 z m 246.64834,-1.43828 c 4.37708,-0.76224 7.95833,-1.89342 7.95833,-2.51372 0,-0.62031 1.30106,-1.12784 2.89125,-1.12784 3.76496,0 16.28818,-11.16194 20.40525,-18.18718 3.57367,-6.09801 8.57105,-22.40345 10.6047,-34.60092 0.74915,-4.49327 1.70145,-18.06735 2.11623,-30.16462 l 0.75414,-21.99504 -5.44702,-6.14212 c -2.99585,-3.37817 -7.29218,-6.91308 -9.54739,-7.85538 -5.34868,-2.2348 -14.44922,-2.18305 -19.94554,0.1135 -9.37015,3.91509 -29.92015,27.52208 -40.53275,46.56237 -2.6971,4.83891 -7.35059,12.75712 -10.34112,17.59603 -8.06923,13.05671 -16.58641,31.72331 -17.27921,37.86983 -0.57518,5.1029 -0.27923,5.72855 5.25331,11.10555 5.35838,5.20776 7.15296,6.27287 9.85112,5.84684 0.51846,-0.0818 0.94265,0.36962 0.94265,1.00329 0,3.65509 26.62709,5.22155 42.31605,2.48944 z"
       id="path879"
       transform="scale(0.26458333)" />
    <path
       style="fill:#5a5a5a;fill-opacity:1;stroke-width:26.0421;paint-order:stroke fill markers"
       d="m 498.71721,543.0651 c -0.46008,-0.74442 1.51646,-5.2033 4.3923,-9.90861 6.71478,-10.98637 32.64762,-45.94098 33.47202,-45.11658 1.73481,1.73481 -7.17308,46.04571 -9.92267,49.35876 -0.83182,1.00228 -3.17485,2.68202 -5.20673,3.73274 -4.63601,2.39738 -21.55879,3.83672 -22.73492,1.93369 z"
       id="path881"
       transform="scale(0.26458333)" />
    <path
       style="fill:#dcdcdc;fill-opacity:1;stroke-width:26.0421;paint-order:stroke fill markers"
       d="m 480.34487,244.20376 c -16.93618,-2.34672 -36.01906,-4.41137 -42.40638,-4.58812 -6.38733,-0.17675 -11.61901,-0.74555 -11.62595,-1.26401 -0.007,-0.51845 -6.47337,-0.94264 -14.36983,-0.94264 h -14.3572 l 3.67389,-3.6739 c 5.8921,-5.89209 4.71781,-16.04177 -2.39169,-20.67217 -3.26163,-2.12429 -2.89702,-2.16599 12.34989,-1.41248 23.33957,1.15345 60.124,5.40631 76.96525,8.89838 3.40483,0.706 3.41918,0.75135 1.44539,4.56825 -5.1168,9.8948 0.15963,19.83307 10.52978,19.83307 4.42237,0 6.24655,-0.72915 9.1913,-3.67389 3.07566,-3.07566 3.67389,-4.69174 3.67389,-9.92466 v -6.25075 l 5.96862,1.52261 c 3.84768,0.98155 6.11626,2.28929 6.38412,3.68018 0.22854,1.18667 -1.29646,5.81597 -3.38885,10.28734 -3.39375,7.25226 -4.18457,8.11625 -7.32678,8.00465 -1.93732,-0.0688 -17.37927,-2.04515 -34.31545,-4.39186 z"
       id="path883"
       transform="scale(0.26458333)" />
    <path
       style="fill:#dcdcdc;fill-opacity:1;stroke-width:26.0421;paint-order:stroke fill markers"
       d="m 264.9509,246.81331 c -1.00381,-1.00381 -3.0733,-5.57594 -4.59888,-10.16029 -2.29739,-6.90367 -2.47797,-8.52256 -1.05145,-9.42623 0.94728,-0.60007 2.35861,-1.09971 3.13629,-1.11029 0.77768,-0.0106 3.15653,-0.36776 5.28633,-0.79372 3.82508,-0.76502 3.86369,-0.721 3.16169,3.60494 -1.76348,10.86701 7.59122,18.479 17.58036,14.30528 7.87344,-3.28973 10.49312,-13.80511 4.96699,-19.93748 -2.59899,-2.88411 -2.86999,-2.80862 23.52091,-6.55256 21.83032,-3.09696 51.03306,-5.7131 63.88205,-5.72291 l 6.69494,-0.005 -3.82427,3.21791 c -6.56472,5.52385 -6.40136,16.63749 0.3137,21.3409 2.3584,1.65189 1.08543,1.83524 -12.74181,1.83524 -8.44908,0 -15.36162,0.42419 -15.36119,0.94264 4.3e-4,0.51846 -2.741,0.7525 -6.09207,0.52009 -4.85227,-0.33652 -64.92899,6.57868 -79.64074,9.16713 -2.02224,0.35581 -4.14978,-0.14247 -5.23285,-1.22554 z"
       id="path885"
       transform="scale(0.26458333)" />
    <path
       style="fill:#8c8c8c;fill-opacity:1;stroke-width:26.0421;paint-order:stroke fill markers"
       d="m 235.25727,662.15809 c -22.21386,-1.43533 -43.39745,-8.07062 -53.7699,-16.84223 -15.31343,-12.95003 -21.26833,-33.39972 -46.13161,-158.42027 -16.42616,-82.59598 -16.23305,-81.34789 -16.14115,-104.31934 0.0939,-23.45969 2.22387,-33.70683 10.51246,-50.57337 8.85976,-18.02882 29.63047,-40.79095 48.97153,-53.66676 8.81853,-5.87071 38.70325,-22.23174 47.47955,-25.9937 l 5.39125,-2.31096 1.32733,3.42942 c 0.73004,1.88619 2.49495,6.54016 3.92202,10.34216 1.42708,3.80199 4.63992,8.96985 7.13965,11.48412 4.31338,4.33847 4.98722,4.57804 13.22475,4.70162 7.86476,0.11798 50.43029,-5.69611 77.36602,-10.56754 6.17726,-1.11719 24.99661,-2.42971 44.61851,-3.11185 18.66436,-0.64885 35.91476,-1.27105 38.33421,-1.38266 2.41946,-0.11161 5.24739,0.11483 6.2843,0.50318 3.84825,1.44128 97.81702,15.96916 103.29124,15.96916 10.10686,0 15.59076,-5.81532 22.80539,-24.18358 2.70081,-6.87623 1.29695,-7.08992 22.18761,3.37729 68.91441,34.52941 98.16512,78.17996 91.84928,137.06579 -2.37647,22.15711 -27.73017,150.26261 -37.31226,188.52891 -7.46835,29.82507 -14.87988,48.27231 -23.20285,57.75163 -7.60306,8.65941 -27.98515,15.91634 -51.23769,18.2429 -24.10126,2.41148 -79.39936,0.90367 -117.06898,-3.19211 -47.40604,-5.15441 -40.17871,-5.15735 -89.86545,0.0364 -15.13035,1.58159 -85.70605,4.81165 -93.0076,4.25669 -1.38255,-0.10507 -9.01797,-0.61131 -16.96761,-1.12498 z m 87.25521,-50.84216 c 12.84419,-1.04171 29.99767,-2.77124 38.11884,-3.84338 8.12118,-1.07214 18.4421,-2.4278 22.93537,-3.01258 6.35663,-0.82729 12.63225,-0.40722 28.27934,1.89291 36.43453,5.3559 60.53115,6.70659 103.6909,5.81217 7.28918,-0.15105 39.26999,-8.16205 51.80549,-12.97695 7.54079,-2.89643 10.80621,-4.98199 14.66589,-9.36681 9.62407,-10.93354 21.28159,-40.32143 21.88271,-55.16504 0.13998,-3.45637 0.63898,-6.57593 1.1089,-6.93236 0.46992,-0.35645 1.47492,-9.12304 2.23332,-19.48132 3.25295,-44.42865 4.17889,-54.16613 7.58741,-79.79095 6.56482,-49.35383 6.34619,-60.69409 -1.47797,-76.65937 -10.10432,-20.61794 -41.6,-42.92123 -78.95286,-55.90951 -31.22936,-10.85903 -103.33821,-25.47482 -113.09515,-22.92332 -1.39475,0.36474 -2.53592,0.1016 -2.53592,-0.58475 0,-0.81023 -11.79186,-1.03173 -33.62099,-0.63155 -28.17963,0.5166 -36.86109,1.14428 -53.64087,3.87828 -21.45239,3.49534 -52.30397,10.3408 -69.00259,15.31055 -46.59413,13.86708 -80.76057,36.28468 -93.20119,61.15202 l -4.28766,8.57052 -0.01,21.01576 c -0.006,13.71736 0.86185,27.78127 2.5,40.49708 1.38036,10.71472 3.04367,23.62776 3.69626,28.69562 0.65258,5.06787 2.10183,23.44944 3.22055,40.84793 1.11872,17.3985 2.45854,31.79476 2.97738,31.9917 0.51884,0.19692 0.69071,1.67968 0.38192,3.29498 -1.43932,7.52932 6.36422,34.61709 14.43939,50.12224 6.90873,13.26548 13.69065,18.55755 30.79002,24.02613 12.56534,4.01855 36.37068,9.69194 46.81968,11.15826 8.58956,1.2054 30.77458,0.7893 52.69157,-0.98826 z"
       id="path889"
       transform="scale(0.26458333)" />
    <path
       style="fill:#8c8c8c;fill-opacity:1;stroke-width:26.0421;paint-order:stroke fill markers"
       d="m 238.49356,662.5314 c -0.28071,-0.28097 -16.68952,-2.65211 -23.97447,-3.46439 -1.38254,-0.15416 -4.14752,-0.93591 -6.14439,-1.73722 -1.99687,-0.80131 -3.92439,-1.16322 -4.28337,-0.80424 -0.35898,0.35897 -1.41171,0.0228 -2.3394,-0.74717 -0.9277,-0.76991 -1.69538,-0.9064 -1.70597,-0.3033 -0.0105,0.60309 -0.43477,0.525 -0.94264,-0.17352 -0.50787,-0.69854 -3.86622,-2.62096 -7.463,-4.27206 -8.14033,-3.73679 -15.99684,-11.37685 -20.15025,-19.59508 -1.7468,-3.45636 -3.52602,-6.56709 -3.95382,-6.91272 -0.4278,-0.34564 -0.81424,-1.19402 -0.85875,-1.88529 -0.21169,-3.28725 -3.70561,-13.19703 -4.65293,-13.19703 -0.5887,0 -0.78201,-0.46654 -0.42959,-1.03677 0.7787,-1.25997 -2.78625,-15.38289 -4.36777,-17.30333 -0.62165,-0.75487 -0.82692,-1.67586 -0.45615,-2.04662 0.8274,-0.8274 -1.90828,-12.39491 -3.38015,-14.29255 -0.5855,-0.75487 -0.7612,-1.67586 -0.39043,-2.04662 0.63494,-0.63494 -1.32983,-10.69142 -2.89257,-14.80534 -0.39388,-1.03691 -0.62172,-2.3234 -0.50631,-2.85887 0.23045,-1.06912 -2.12714,-11.73372 -3.25789,-14.73717 -0.39038,-1.0369 -0.58665,-2.87892 -0.43616,-4.09336 0.15049,-1.21444 -0.65839,-2.56573 -1.79751,-3.00284 -1.52985,-0.58707 -1.66725,-1.04437 -0.52574,-1.74987 0.97391,-0.60191 1.17384,-1.81537 0.54065,-3.28146 -0.55261,-1.27949 -0.89076,-3.26602 -0.75144,-4.41451 0.13932,-1.14849 -0.31464,-2.43917 -1.0088,-2.86819 -0.69416,-0.429 -0.94074,-1.61749 -0.54796,-2.64106 0.39278,-1.02358 0.0902,-2.61286 -0.67242,-3.53175 -0.76261,-0.91891 -1.09617,-1.96112 -0.74125,-2.31604 0.35493,-0.35493 -0.24048,-4.26199 -1.32314,-8.68238 -1.08265,-4.42037 -2.22787,-9.45101 -2.54492,-11.17919 -0.73395,-4.00055 -1.64753,-8.56843 -2.51373,-12.5686 -0.37423,-1.72818 -0.66414,-4.38669 -0.64425,-5.90779 0.0199,-1.5211 -0.46768,-3.07703 -1.08348,-3.45762 -0.6158,-0.38058 -0.84066,-1.75875 -0.4997,-3.06259 0.34096,-1.30384 0.0298,-2.73536 -0.69153,-3.18115 -0.72131,-0.44578 -0.96148,-1.72258 -0.53371,-2.83731 0.46771,-1.21884 -0.15097,-2.70588 -1.55198,-3.73033 -1.28135,-0.93694 -1.65604,-1.70354 -0.83264,-1.70354 2.21593,0 1.81721,-3.72662 -0.49359,-4.61336 -1.30232,-0.49974 -1.51401,-1.05849 -0.61219,-1.61585 1.83077,-1.13147 -2.76038,-23.83591 -5.12264,-25.3328 -1.42539,-0.90323 -1.42268,-1.08097 0.0167,-1.09709 1.18494,-0.0133 1.4626,-0.89631 0.89527,-2.84718 -0.45231,-1.55536 -1.08998,-5.65587 -1.41703,-9.11223 -0.32705,-3.45636 -0.90902,-7.66416 -1.29327,-9.35067 -0.93177,-4.08957 -0.89857,-33.65638 0.0395,-35.1742 0.40597,-0.65688 0.70257,-2.78483 0.6591,-4.72877 -0.0715,-3.19624 0.36134,-6.26678 1.64975,-11.70404 0.2457,-1.03691 1.43373,-4.14764 2.64005,-6.91273 1.20633,-2.76509 2.27506,-6.01721 2.37498,-7.22694 0.0999,-1.20973 0.58877,-2.19951 1.08635,-2.19951 0.99081,0 2.97947,-5.08619 2.57997,-6.59851 -0.13696,-0.51845 0.23649,-0.94264 0.82989,-0.94264 0.59341,0 3.19386,-3.18534 5.7788,-7.07854 4.75923,-7.16792 30.28237,-34.54458 31.27775,-33.54919 0.29734,0.29733 1.78749,-1.04454 3.31145,-2.98195 1.52396,-1.9374 2.86101,-3.27445 2.97122,-2.97121 0.39058,1.07467 12.14055,-6.46758 12.14055,-7.79297 0,-0.7408 0.3663,-0.9806 0.81401,-0.53289 1.0473,1.0473 10.49772,-4.23116 10.49772,-5.86342 0,-0.6792 0.35113,-0.88377 0.7803,-0.4546 0.42916,0.42916 6.50921,-2.24804 13.51123,-5.94934 16.34934,-8.64232 18.35709,-9.25106 19.25003,-5.83643 0.37775,1.44452 1.21982,2.62641 1.87127,2.62641 0.65145,0 0.89841,0.46282 0.54881,1.02849 -1.14914,1.85933 5.53088,14.44401 9.93981,18.72591 l 4.3199,4.19543 11.50881,-0.67967 c 6.32985,-0.37382 14.11861,-1.00713 17.30834,-1.40736 3.18973,-0.40022 7.21348,-0.89622 8.94166,-1.1022 9.86739,-1.17612 16.14005,-2.06885 19.48132,-2.77261 2.07382,-0.4368 4.90176,-0.94517 6.2843,-1.12971 1.38255,-0.18454 4.21048,-0.62352 6.2843,-0.9755 7.95438,-1.35009 11.51869,-1.86833 17.59603,-2.55842 10.08778,-1.14549 45.16136,-3.33149 62.21454,-3.87759 8.64091,-0.27672 16.27633,-0.60414 16.96761,-0.72762 1.14179,-0.20395 6.82127,0.5473 16.02092,2.11915 1.89879,0.32442 5.00951,0.83586 6.91273,1.13653 1.90322,0.30067 6.08096,1.09345 9.28388,1.76173 3.20291,0.66828 8.85878,1.57165 12.56859,2.0075 7.32661,0.86077 9.50203,1.19866 19.94214,3.09749 3.802,0.6915 9.50623,1.52458 12.67605,1.85128 3.16984,0.3267 6.70476,0.95525 7.85538,1.39679 1.31502,0.50462 2.09919,0.16932 2.11128,-0.90276 0.0136,-1.20144 0.29217,-1.27837 0.94264,-0.26029 1.10935,1.73627 7.79496,2.92427 20.03936,3.56089 l 9.06108,0.4711 5.58868,-5.25234 c 5.67508,-5.33353 10.1411,-12.45781 8.7079,-13.891 -0.43327,-0.43328 -0.24154,-0.78778 0.42607,-0.78778 0.66762,0 1.92519,-1.96719 2.79462,-4.37154 1.21551,-3.36144 2.21769,-4.30528 4.33727,-4.08479 1.51609,0.15771 3.03932,0.6405 3.38495,1.07287 1.37691,1.72244 26.15111,13.49174 26.87537,12.76748 0.42655,-0.42655 0.77554,-0.1572 0.77554,0.59856 0,0.75575 3.14141,3.17142 6.98091,5.36816 10.2654,5.87327 26.24635,18.01966 36.59241,27.81224 4.99599,4.72872 8.83408,8.59768 8.52907,8.59768 -0.768,0 8.24797,11.76034 9.74333,12.70911 0.66657,0.42292 1.24019,1.2713 1.27472,1.88529 0.10847,1.92917 2.60097,6.77221 3.48538,6.77221 0.4651,0 0.87025,0.70698 0.90034,1.57107 0.03,0.86409 1.34807,4.39901 2.92886,7.85537 1.58079,3.45637 2.78816,6.68887 2.68303,7.18335 -0.10507,0.49447 0.45064,2.47403 1.23504,4.399 1.47589,3.62199 1.73673,4.943 2.10035,10.63713 0.11827,1.85163 1.10376,4.25537 2.19005,5.34165 1.10096,1.10097 1.35709,1.97507 0.57873,1.97507 -0.93775,0 -1.41515,4.64385 -1.45359,14.13967 -0.0623,15.40805 -0.45219,21.91295 -1.48755,24.82297 -1.54752,4.34948 -3.57146,18.78838 -2.807,20.02529 0.45594,0.73773 0.29423,1.34132 -0.35935,1.34132 -0.65358,0 -1.58263,2.68654 -2.06458,5.97009 -0.48194,3.28354 -3.13556,17.56461 -5.89692,31.7357 -2.76137,14.17109 -5.29433,27.46238 -5.62879,29.53619 -0.33447,2.07382 -0.86961,5.04163 -1.18922,6.59515 -0.3196,1.5535 -0.8639,4.23853 -1.20954,5.96671 l -1.25686,6.2843 c -0.34563,1.72818 -0.93295,4.69902 -1.30516,6.60188 -0.3722,1.90285 -0.84544,4.30811 -1.05164,5.34502 -0.2062,1.03691 -0.70303,2.73367 -1.10407,3.77058 -2.04572,5.28923 -4.34,20.77974 -3.18353,21.49448 0.7259,0.44864 0.41625,1.10322 -0.72994,1.54306 -2.31081,0.88674 -2.70953,4.61337 -0.4936,4.61337 0.84645,0 0.5924,0.68279 -0.58454,1.57107 -1.14489,0.86409 -2.30856,3.55063 -2.5859,5.97008 -0.27735,2.41946 -0.84154,5.24739 -1.25375,6.2843 -1.70486,4.28847 -6.93802,26.9411 -6.41819,27.7822 0.30963,0.50098 0.12705,1.10057 -0.40572,1.33243 -0.53275,0.23187 -2.0074,3.81509 -3.27698,7.96272 -3.6316,11.86414 -11.33826,27.41877 -16.31312,32.92535 -2.50237,2.76983 -7.24627,6.3925 -10.54201,8.0504 -3.29573,1.65788 -6.27503,3.29713 -6.62067,3.64276 -0.34563,0.34564 -1.33541,0.68499 -2.1995,0.75412 -0.86409,0.0691 -2.41946,0.21052 -3.45637,0.31422 -1.03691,0.10369 -1.89394,1.1783 -1.90453,2.38803 -0.0126,1.38746 -0.36016,1.67657 -0.94264,0.78308 -0.68034,-1.04357 -2.90849,-0.98858 -8.46456,0.20888 -4.14764,0.89392 -7.54116,1.69787 -7.54116,1.78655 0,1.47258 -66.9672,2.01412 -87.98016,0.71147 -20.41808,-1.26577 -29.63943,-2.00656 -38.96264,-3.13004 -25.06969,-3.02098 -52.0937,-3.92399 -65.98512,-2.20494 -2.41946,0.29941 -7.04515,0.62493 -10.27932,0.72338 -3.31779,0.10092 -6.69698,0.99566 -7.75437,2.05304 -1.08426,1.08427 -2.05455,1.33265 -2.3023,0.58937 -0.28947,-0.86839 -5.71886,-0.90064 -16.75439,-0.0996 -30.50172,2.21427 -91.69998,4.16908 -92.90044,2.96743 z m 87.25759,-51.17719 c 4.49328,-0.43133 10.14915,-0.98645 12.5686,-1.23362 2.41945,-0.24716 8.85457,-0.82582 14.30027,-1.28589 5.4457,-0.46009 11.1848,-1.32451 12.75358,-1.92096 1.56876,-0.59644 3.1227,-0.81406 3.4532,-0.48357 0.33047,0.33049 4.20634,-0.0132 8.61303,-0.76368 9.194,-1.56584 19.95572,-2.20858 19.9537,-1.19171 -7.7e-4,0.3802 6.64426,1.45702 14.76671,2.39296 8.12246,0.93593 16.18207,1.89248 17.91025,2.12566 22.76561,3.07178 78.80631,4.68159 90.49388,2.5995 2.41945,-0.43102 6.59242,-1.14779 9.27325,-1.59282 2.68083,-0.44504 8.61949,-1.90288 13.19702,-3.23964 4.57753,-1.33676 8.88837,-2.592 9.57965,-2.7894 0.69127,-0.19741 3.23641,-0.81088 5.65586,-1.36325 12.33793,-2.81685 28.90777,-14.48404 28.90777,-20.35458 0,-0.94688 0.46891,-1.72159 1.04201,-1.72159 1.11544,0 5.16876,-8.63646 9.733,-20.73818 0.52143,-1.38255 1.02102,-2.79652 1.11021,-3.14215 0.0892,-0.34564 0.86131,-2.66588 1.71585,-5.15607 0.85452,-2.4902 1.83764,-6.44931 2.18468,-8.79801 1.60589,-10.86827 2.34055,-17.11304 2.38761,-20.29534 0.0281,-1.901 0.41547,-3.45637 0.86078,-3.45637 0.44533,0 0.79814,-1.27257 0.784,-2.82793 -0.0295,-3.24654 0.73251,-13.14577 3.26524,-42.41901 0.98686,-11.406 1.84251,-21.58656 1.90145,-22.62347 0.059,-1.03691 0.66141,-5.27881 1.33882,-9.42644 0.67741,-4.14764 1.59517,-11.21747 2.03948,-15.71075 0.4443,-4.49327 1.01283,-9.58355 1.2634,-11.31173 2.48819,-17.16152 3.38814,-42.99337 1.72844,-49.61336 -1.69438,-6.75837 -6.37162,-17.00019 -7.76365,-17.00019 -0.61392,0 -0.78813,-0.53083 -0.38715,-1.17961 0.40096,-0.64879 -0.0324,-1.63857 -0.96326,-2.19951 -0.93076,-0.56094 -2.06402,-2.03034 -2.51833,-3.26533 -0.45433,-1.23499 -2.52906,-3.21454 -4.6105,-4.39901 -2.08145,-1.18446 -3.78803,-2.83487 -3.7924,-3.66758 -0.01,-1.84111 -15.04137,-14.19673 -17.27157,-14.19673 -0.8741,0 -1.58927,-0.56559 -1.58927,-1.25686 0,-0.69127 -0.80124,-1.25686 -1.78055,-1.25686 -0.9793,0 -1.96907,-0.47775 -2.1995,-1.06168 -0.23042,-0.58392 -1.89593,-1.85649 -3.70112,-2.82793 -13.95613,-7.51031 -21.22659,-11.12424 -21.22659,-10.5511 0,0.37026 -1.41397,-0.25326 -3.14215,-1.38561 -1.72818,-1.13235 -3.14215,-1.69793 -3.14215,-1.25686 0,0.44108 -1.29161,-0.0443 -2.87024,-1.0787 -1.57863,-1.03435 -4.26517,-2.13654 -5.97008,-2.44929 -1.70492,-0.31276 -3.24124,-0.61067 -3.41406,-0.66204 -0.17282,-0.0514 -0.51008,0.048 -0.74948,0.22082 -0.23938,0.17281 -1.22916,-0.34221 -2.1995,-1.1445 -1.46801,-1.21378 -10.30869,-3.91647 -20.30292,-6.20682 -1.20973,-0.27723 -3.33068,-0.78685 -4.71322,-1.13249 -1.38255,-0.34563 -3.78629,-0.94428 -5.34166,-1.33033 -1.55536,-0.38605 -3.39352,-0.86319 -4.08479,-1.06031 -3.82638,-1.09113 -7.90562,-2.04075 -10.6833,-2.48701 -1.72819,-0.27765 -5.4045,-1.11223 -8.16959,-1.85462 -2.76509,-0.7424 -7.00699,-1.645 -9.42645,-2.00577 -2.41945,-0.36078 -7.22694,-1.24573 -10.6833,-1.96656 -14.55225,-3.03489 -28.32548,-3.95093 -62.84297,-4.17958 -30.75218,-0.20371 -50.03939,0.86371 -64.09984,3.54751 -5.53018,1.05557 -11.9748,2.21552 -14.32137,2.57765 -2.34657,0.36214 -6.58847,1.23075 -9.42645,1.93025 -2.83797,0.6995 -6.8567,1.5705 -8.93052,1.93557 -2.07382,0.36506 -6.88131,1.49781 -10.68331,2.51722 -3.802,1.01942 -8.32669,2.13171 -10.05487,2.47178 -17.36049,3.41609 -62.84298,21.27586 -62.84298,24.67677 0,0.62777 -0.47993,0.84479 -1.06651,0.48226 -0.58659,-0.36253 -2.14195,0.31108 -3.45636,1.4969 -1.31442,1.18582 -3.94522,2.9586 -5.84622,3.9395 -1.901,0.9809 -3.45636,2.25347 -3.45636,2.82793 0,0.57447 -0.84059,1.04448 -1.86797,1.04448 -3.56293,0 -22.4317,20.78667 -27.44032,30.22947 l -4.77989,9.01155 0.31332,23.11271 c 0.17232,12.71199 0.63093,23.11525 1.01913,23.11834 0.3882,0.003 0.75424,3.72997 0.81342,8.28194 0.0737,5.67089 0.66723,8.63054 1.88529,9.40156 1.44482,0.91457 1.45799,1.12887 0.0704,1.14452 -2.04821,0.0231 -0.84259,6.35725 1.49276,7.84278 1.09417,0.69601 1.06862,0.94092 -0.0996,0.95524 -2.17287,0.0266 -1.97339,4.46482 0.30299,6.74119 1.08731,1.08731 1.33383,2.05415 0.58722,2.30302 -1.89801,0.63268 0.61775,21.18527 2.75934,22.54251 1.40363,0.88956 1.3945,1.07565 -0.0535,1.09162 -1.37166,0.0151 -1.59823,1.64489 -1.05758,7.60736 0.37844,4.17346 1.37463,8.41536 2.21375,9.42645 1.20064,1.44668 1.19053,1.83833 -0.0475,1.83833 -1.20685,0 -1.3405,2.12174 -0.57399,9.11223 0.54954,5.01173 0.92971,10.5262 0.84482,12.25438 -0.0849,1.72818 0.1853,3.99053 0.60041,5.02744 0.93657,2.33946 1.72234,10.03578 1.82917,17.91616 0.0446,3.28682 0.59751,6.29522 1.22878,6.68536 0.63127,0.39015 0.8078,1.25942 0.3923,1.93171 -0.71727,1.16057 3.00242,14.96592 5.99133,22.23636 0.76652,1.86454 1.52046,3.96724 1.67542,4.67266 0.15497,0.70544 2.14435,5.10267 4.42085,9.77164 4.00955,8.22336 14.84225,19.5661 19.31294,20.22226 0.95627,0.14035 2.50271,0.87583 3.43654,1.63439 1.75442,1.42514 11.32457,4.89719 16.40484,5.95167 1.58898,0.32981 4.30303,0.98087 6.03121,1.44677 1.72818,0.46591 4.41472,0.91909 5.97008,1.00707 1.55536,0.088 2.82793,0.58417 2.82793,1.10262 0,0.51845 0.42419,0.84272 0.94264,0.72061 0.51846,-0.12217 3.33276,0.4616 6.254,1.29715 2.92125,0.83555 7.64956,1.75179 10.50734,2.03609 2.8578,0.28431 5.53066,0.8516 5.93972,1.26064 0.87247,0.87249 44.89428,-0.0578 56.7953,-1.20016 z"
       id="path891"
       transform="scale(0.26458333)" />
    <path
       style="fill:#8c8c8c;fill-opacity:1;stroke-width:26.0421;paint-order:stroke fill markers"
       d="m 659.44734,711.08505 c -14.30234,-6.24308 -28.40963,-11.21962 -29.64341,-10.45709 -0.6323,0.39078 -1.14965,0.13242 -1.14965,-0.57414 0,-1.21152 -29.85396,-11.43229 -33.39271,-11.43229 -5.03862,0 -1.70406,-2.99432 8.96038,-8.04611 14.85422,-7.03652 26.43617,-17.94715 33.48586,-31.54496 9.15427,-17.65722 19.13216,-51.47767 27.99583,-94.89289 5.81767,-28.49564 5.03027,-26.40603 9.47046,-25.1326 6.22283,1.78469 15.89603,7.59797 18.49002,11.11192 4.56183,6.17968 5.66673,12.2996 5.56346,30.81546 -0.18159,32.5567 -7.68875,71.70925 -27.32546,142.51215 -0.63725,2.29771 -2.66626,1.91332 -12.45478,-2.35945 z"
       id="path893"
       transform="scale(0.26458333)" />
    <path
       style="fill:#8c8c8c;fill-opacity:1;stroke-width:26.0421;paint-order:stroke fill markers"
       d="m 451.4371,714.91214 c -7.25836,-0.55137 -21.39803,-1.86281 -31.42149,-2.91431 -22.29223,-2.33855 -31.91451,-2.28739 -60.95768,0.32414 -33.4044,3.00368 -102.92455,2.89063 -117.51636,-0.19109 -12.04209,-2.54323 -16.034,-4.85711 -19.0668,-11.05193 -3.62724,-7.40904 -3.13782,-7.51923 36.1573,-8.14008 19.28804,-0.30475 39.60322,-0.52629 45.14485,-0.49231 14.08022,0.0863 46.25183,-2.25156 63.4506,-4.61092 10.27835,-1.41001 18.81095,-1.75355 29.53619,-1.18921 8.29528,0.43648 17.62746,0.91804 20.73818,1.07014 3.11073,0.15209 5.93867,0.64421 6.2843,1.0936 1.56164,2.03041 60.58473,5.272 97.72036,5.36688 30.18384,0.0771 39.27651,0.45817 39.27686,1.64599 10e-4,3.96557 -4.37434,11.89929 -7.43566,13.48235 -10.75654,5.56243 -63.96082,8.48953 -101.91065,5.60675 z"
       id="path895"
       transform="scale(0.26458333)" />
    <path
       style="fill:#8c8c8c;fill-opacity:1;stroke-width:26.0421;paint-order:stroke fill markers"
       d="m 110.21927,712.31804 c -0.34655,-0.9358 -2.90237,-9.90248 -5.67958,-19.92593 -19.60007,-70.74005 -21.679838,-81.91334 -21.874197,-117.51636 -0.09516,-17.43155 0.293631,-22.54148 2.111056,-27.7459 3.180115,-9.10664 11.492575,-16.29223 22.498811,-19.44878 4.15209,-1.1908 3.86834,-1.96932 9.87168,27.08493 8.49149,41.09608 18.73641,77.25211 26.40625,93.19201 6.39719,13.295 15.1599,21.37856 33.55987,30.95882 7.98754,4.15885 12.74294,7.29426 11.63279,7.66992 -1.03277,0.34947 -9.51319,2.99673 -18.84537,5.88279 -13.81769,4.27325 -28.7686,9.71893 -57.49072,20.94032 -0.85827,0.33532 -1.84403,-0.156 -2.19059,-1.09182 z"
       id="path897"
       transform="scale(0.26458333)" />
    <path
       style="fill:#8c8c8c;fill-opacity:1;stroke-width:26.0421;paint-order:stroke fill markers"
       d="m 633.11112,259.66867 c -2.73297,-4.17103 -2.6675,-5.18875 4.42358,-68.76348 6.16358,-55.25926 6.91961,-60.46956 8.96241,-61.76524 3.32982,-2.112 4.6323,-1.14913 4.06768,3.00706 -0.30521,2.24663 -1.42139,12.56859 -2.48039,22.93768 -2.36764,23.18244 -11.83464,105.11387 -12.34136,106.80738 -0.20262,0.67716 -1.38698,-0.32338 -2.63192,-2.2234 z"
       id="path899"
       transform="scale(0.26458333)" />
  </g>
</svg>
