<?xml version="1.0" encoding="UTF-8" standalone="no"?>
<svg
   xmlns:dc="http://purl.org/dc/elements/1.1/"
   xmlns:cc="http://creativecommons.org/ns#"
   xmlns:rdf="http://www.w3.org/1999/02/22-rdf-syntax-ns#"
   xmlns:svg="http://www.w3.org/2000/svg"
   xmlns="http://www.w3.org/2000/svg"
   xmlns:sodipodi="http://sodipodi.sourceforge.net/DTD/sodipodi-0.dtd"
   xmlns:inkscape="http://www.inkscape.org/namespaces/inkscape"
   width="210mm"
   height="220mm"
   viewBox="0 0 210 220"
   version="1.1"
   id="svg8"
   inkscape:version="1.0.2 (e86c8708, 2021-01-15)">
  <defs
     id="defs2" />
  <sodipodi:namedview
     id="base"
     pagecolor="#000000"
     bordercolor="#666666"
     borderopacity="1.0"
     inkscape:pageopacity="1"
     inkscape:pageshadow="2"
     inkscape:zoom="0.46395205"
     inkscape:cx="386.85012"
     inkscape:cy="549.89983"
     inkscape:document-units="mm"
     inkscape:current-layer="layer1"
     inkscape:document-rotation="0"
     showgrid="false"
     inkscape:window-width="1252"
     inkscape:window-height="872"
     inkscape:window-x="0"
     inkscape:window-y="0"
     inkscape:window-maximized="0" />
  <metadata
     id="metadata5">
    <rdf:RDF>
      <cc:Work
         rdf:about="">
        <dc:format>image/svg+xml</dc:format>
        <dc:type
           rdf:resource="http://purl.org/dc/dcmitype/StillImage" />
        <dc:title></dc:title>
      </cc:Work>
    </rdf:RDF>
  </metadata>
  <g
     inkscape:label="Layer 1"
     inkscape:groupmode="layer"
     id="layer1">
    <path
       style="fill:#ffffff;fill-opacity:1;stroke-width:0.236798"
       d="m 116.495,215.93411 c -3.6561,-0.78196 -6.49213,-2.06261 -10.49431,-4.73881 l -2.50487,-1.67498 -1.83247,1.23101 c -4.112507,2.76272 -7.997309,3.89845 -12.623062,3.69035 -3.27148,-0.14716 -5.857408,-0.95664 -8.893763,-2.78404 -16.257798,-9.78454 -26.867989,-42.9714 -26.874549,-84.05896 -9.47e-4,-6.11938 0.48273,-17.33972 0.918659,-21.30948 0.157887,-1.43785 0.08824,-2.41298 -0.363865,-5.09348 -3.706529,-21.976469 -4.376592,-41.830412 -1.966369,-58.262843 1.949854,-13.293698 5.777993,-22.97517 11.442485,-28.938404 2.904668,-3.057858 6.320491,-5.1072469 9.804439,-5.8823514 2.393303,-0.5324612 7.009099,-0.3528398 9.525573,0.3706816 3.363055,0.9669224 7.616188,3.2562248 11.065212,5.9559808 0.811203,0.63497 1.55712,1.153261 1.657586,1.15175 0.100538,-0.0015 0.981887,-0.813644 1.958673,-1.804741 5.596411,-5.6783883 11.741001,-9.1585226 17.969981,-10.1777035 6.68682,-1.0940963 13.6601,1.3509012 19.14282,6.7119295 10.50395,10.270803 17.0084,31.078172 17.80411,56.954408 0.26826,8.722859 -0.16237,20.092276 -1.03363,27.290946 -1.47522,12.188727 -3.62816,23.424587 -6.09774,31.823047 -0.56375,1.91722 -0.58943,1.31031 0.40195,9.49819 2.13942,17.66986 2.00246,34.85291 -0.38506,48.3068 -2.11996,11.94632 -5.98283,20.91527 -11.32942,26.30509 -4.93783,4.97773 -10.80713,6.82267 -17.29238,5.43561 z m 7.57754,-4.9007 c 9.06863,-2.48059 15.55454,-16.07399 17.49523,-36.66714 0.83649,-8.87601 0.73679,-21.58775 -0.24947,-31.80897 -0.31877,-3.30372 -0.31159,-3.3042 -1.5866,0.10537 -2.77047,7.40859 -6.94596,15.82343 -11.09023,22.35013 -1.51416,2.38459 -1.87945,3.19424 -2.93795,6.51193 -4.54742,14.25323 -10.26811,25.33701 -17.07043,33.07387 l -1.38892,1.57974 1.32844,0.95126 c 1.57248,1.12602 4.95384,2.89703 6.61999,3.46726 3.07315,1.05174 6.08895,1.20002 8.87994,0.43658 z m -31.545016,-1.64249 c 2.247242,-0.46418 4.048919,-1.1826 5.841527,-2.32933 l 1.371282,-0.87719 -2.23743,-2.29318 C 92.42168,198.6834 87.356052,191.82648 82.513604,183.60141 c -1.15016,-1.95359 -2.646733,-4.24462 -3.325694,-5.09116 -5.251675,-6.54788 -8.930392,-14.59148 -11.804552,-25.81098 -0.583859,-2.27918 -1.491466,-5.34019 -2.016885,-6.80225 -1.997774,-5.55915 -4.857045,-14.93338 -6.520155,-21.3767 l -0.519537,-2.01279 -0.146109,1.4208 c -0.180998,1.75993 -0.02289,9.86591 0.309546,15.86545 1.536926,27.74169 8.105788,50.42574 18.083398,62.44683 3.309105,3.98684 7.819685,6.79002 11.740646,7.29643 2.034724,0.26279 2.273696,0.2545 4.213262,-0.14612 z m 12.540756,-8.08887 c 3.07798,-3.49131 5.90166,-7.74363 8.60906,-12.96469 1.75496,-3.38433 4.32044,-9.2365 4.19778,-9.5756 -0.0427,-0.11814 -0.87692,0.47162 -1.85372,1.3107 -3.90213,3.35202 -8.22107,5.81476 -12.50864,7.13263 -1.86404,0.57297 -2.40555,0.63122 -5.8432,0.62868 -3.062255,-0.002 -4.119922,-0.0942 -5.515782,-0.47985 -1.463017,-0.40411 -1.70595,-0.42216 -1.589239,-0.11801 0.242995,0.63323 3.624878,5.33661 5.696599,7.92257 2.056692,2.56723 6.876852,7.74193 7.211472,7.74193 0.10258,0 0.82064,-0.71926 1.59567,-1.59837 z m -2.47079,-18.92086 c 5.92715,-1.86879 11.55562,-6.25194 17.4231,-13.56821 1.09165,-1.36121 2.14174,-2.85047 2.33353,-3.30946 0.70683,-1.69172 2.61891,-9.61666 3.71776,-15.40902 1.09283,-5.7605 1.23086,-6.62048 2.26138,-14.08949 1.92568,-13.95677 2.23589,-36.487226 0.6912,-50.201149 -0.1906,-1.692135 -0.59124,-3.314145 -1.40372,-5.683143 -6.53655,-19.058897 -15.29881,-36.521966 -24.35719,-48.54358 -2.01653,-2.676209 -4.664065,-5.842287 -5.08004,-6.07501 -0.152434,-0.08527 -1.21838,-0.01564 -2.368773,0.154778 -1.52761,0.226288 -2.23938,0.448649 -2.639584,0.824618 -0.933289,0.876776 -5.197941,8.020198 -7.283198,12.199552 -7.806161,15.645453 -13.539346,35.87649 -16.038111,56.5947 -1.067167,8.848334 -1.295247,12.744644 -1.296071,22.140594 -9.48e-4,12.15674 0.721208,20.85902 2.397745,28.88936 0.967967,4.63637 7.316195,19.55835 11.980269,28.16044 1.267115,2.33697 1.695968,2.90034 3.154652,4.14396 2.381021,2.03 4.810191,3.35052 7.455397,4.0528 1.932958,0.5132 2.553945,0.57445 4.670898,0.46078 1.66105,-0.0892 3.061476,-0.32657 4.380756,-0.74252 z m 30.19853,-35.60187 c 2.84243,-6.54936 6.66838,-17.33985 6.66838,-18.80722 0,-1.0082 -1.67068,-10.51976 -2.47798,-14.10769 -0.19048,-0.84656 -0.67868,-3.03092 -1.08487,-4.85415 -0.40622,-1.82322 -0.78306,-3.35947 -0.83744,-3.41384 -0.0544,-0.0544 -0.1004,2.02343 -0.10227,4.61735 -0.007,10.46141 -1.3331,25.38002 -3.20665,36.09196 -0.61077,3.49204 -0.63226,3.68707 -0.37826,3.43357 0.1305,-0.13024 0.76911,-1.46224 1.41914,-2.95998 z M 63.613602,117.47557 c 0.137052,-27.654051 6.102402,-55.568954 16.787596,-78.557695 2.165063,-4.658044 2.025143,-4.726594 -0.962283,-0.471442 -8.495914,12.101209 -15.443038,32.492826 -18.81381,55.223443 -1.322196,8.916244 -1.414147,10.392224 -0.827174,13.278174 1.20833,5.94104 3.578127,16.15147 3.748689,16.15147 0.02153,0 0.0517,-2.53076 0.06694,-5.62395 z m 79.856038,-5.15035 c 5.45042,-26.984257 5.40388,-53.935418 -0.12865,-74.472935 -2.58287,-9.587988 -6.724,-17.990549 -11.26059,-22.848285 -5.386,-5.7672761 -11.19907,-7.828039 -17.69136,-6.2716709 -4.40803,1.0567186 -8.83621,3.7790119 -13.33487,8.1978219 l -2.061759,2.025153 0.511556,0.691895 c 0.319401,0.432026 0.871423,0.7848 1.469733,0.939258 3.96805,1.02434 6.1644,1.96822 8.58044,3.687412 8.14439,5.795316 14.93794,17.742332 19.44978,34.203949 1.00301,3.659501 2.24291,8.985047 2.62454,11.272665 0.12587,0.754557 0.44646,2.650623 0.71239,4.213489 0.26593,1.562865 0.64377,4.068671 0.83964,5.568455 0.22848,1.74934 0.74462,3.956466 1.43978,6.156742 0.93973,2.974402 2.58699,8.699834 4.12075,14.322561 0.68135,2.49784 2.50476,10.31224 3.09422,13.26069 0.51203,2.56109 0.73125,3.28615 0.85559,2.82991 0.0338,-0.12383 0.38421,-1.82352 0.77881,-3.77711 z M 57.262704,84.383073 c 0.962244,-5.688353 3.663198,-16.184798 5.91049,-22.969393 2.725774,-8.229148 6.657379,-16.917268 10.320234,-22.805867 4.334776,-6.968814 9.696897,-12.559474 14.877847,-15.511962 1.235756,-0.704228 2.121102,-1.423185 2.781726,-2.258947 L 92.122053,19.61096 91.46224,19.018853 c -0.362894,-0.325658 -1.612362,-1.238446 -2.776582,-2.028417 -8.398363,-5.698627 -15.28674,-5.87265 -20.966344,-0.52968 -5.742329,5.401958 -9.675412,15.656476 -11.474272,29.916253 -1.225572,9.715185 -1.165567,25.92993 0.139143,37.603214 0.149927,1.341297 0.345827,2.353598 0.435354,2.249575 0.08947,-0.103992 0.288945,-0.935044 0.443165,-1.846725 z M 121.96886,52.168519 c -3.32811,-9.321949 -7.35611,-16.428909 -11.92391,-21.038403 -1.27747,-1.289138 -2.38236,-2.284209 -2.4553,-2.21127 -0.073,0.07294 0.71888,1.348842 1.75958,2.835346 3.79025,5.413845 8.36808,13.241416 11.91334,20.370444 0.82723,1.663445 1.53299,2.937637 1.56836,2.831535 0.0354,-0.106107 -0.35255,-1.360546 -0.86207,-2.787652 z"
       id="path1047" />
    <path
       style="fill:#ff9100;fill-opacity:1;stroke-width:9.94321;paint-order:stroke fill markers"
       d="m 141.10844,108.89833 c -0.73486,-3.36046 -2.68973,-10.860801 -4.34416,-16.667414 -1.74825,-6.13589 -3.44971,-13.371206 -4.06258,-17.275863 -2.68585,-17.111642 -7.96286,-32.318002 -14.51086,-41.814919 -4.4701,-6.483219 -9.30189,-10.31149 -15.62831,-12.382441 -1.38256,-0.452584 -2.663415,-1.065038 -2.846337,-1.361012 -0.598023,-0.967626 6.024637,-6.499594 10.362697,-8.656069 3.80035,-1.8891572 4.28972,-2.0097134 8.15805,-2.0097134 3.53407,0 4.50097,0.1894293 6.84681,1.3414094 11.21708,5.508367 19.19679,23.469541 21.53429,48.470562 0.82887,8.865164 0.32247,29.689258 -0.94758,38.966785 -0.94598,6.910245 -2.7304,17.003085 -3.06537,17.338055 -0.0883,0.0883 -0.76179,-2.58891 -1.49665,-5.94938 z"
       id="path1071" />
    <path
       style="fill:#ff9100;fill-opacity:1;stroke-width:9.94321;paint-order:stroke fill markers"
       d="m 117.31335,210.80779 c -2.66168,-0.58443 -5.83769,-2.02031 -8.28886,-3.74745 l -1.33055,-0.9375 1.8646,-2.23905 c 5.58106,-6.70187 11.28557,-17.57901 15.22041,-29.02161 1.442,-4.19339 3.23907,-8.24699 4.89315,-11.03736 3.45524,-5.8289 7.03124,-12.97283 9.24166,-18.46248 1.47075,-3.65268 1.85228,-4.25753 2.11887,-3.3592 0.65393,2.20345 0.89491,25.93883 0.32297,31.80826 -1.84634,18.94717 -7.46799,32.33571 -15.08733,35.93195 -3.16745,1.49501 -5.64996,1.79009 -8.95492,1.06444 z"
       id="path1073" />
    <path
       style="fill:#ff9100;fill-opacity:1;stroke-width:9.94321;paint-order:stroke fill markers"
       d="m 99.453089,198.39142 c -3.048239,-3.42607 -8.053531,-9.94214 -8.053531,-10.48435 0,-0.0984 2.753342,-0.179 6.11853,-0.179 h 6.118552 l 4.07902,-2.017 c 2.24346,-1.10934 5.23512,-2.90454 6.64814,-3.98931 1.413,-1.08478 2.64731,-1.89412 2.7429,-1.79854 0.33336,0.33336 -5.48461,11.83759 -7.50913,14.84825 -2.49754,3.71409 -5.66994,7.5931 -6.20994,7.5931 -0.21978,0 -1.99032,-1.78792 -3.934541,-3.97315 z"
       id="path1075" />
    <path
       style="fill:#ff9100;fill-opacity:1;stroke-width:9.94321;paint-order:stroke fill markers"
       d="m 131.87759,147.11315 c 1.14652,-4.78877 3.0902,-25.24456 3.32252,-34.967 l 0.10894,-4.5589 1.14824,5.27873 c 0.63153,2.90331 1.53201,7.52547 2.00108,10.27148 0.83836,4.90812 0.83632,5.04638 -0.12101,8.15805 -1.11596,3.62733 -6.04603,16.43436 -6.47602,16.82304 -0.15755,0.14242 -0.15024,-0.31002 0.0162,-1.0054 z"
       id="path1077" />
    <path
       style="fill:#ff9100;fill-opacity:1;stroke-width:9.94321;paint-order:stroke fill markers"
       d="M 86.223593,208.67918 C 77.807565,205.69299 71.014699,196.23713 65.729702,180.15111 61.25439,166.52952 58.220977,145.30252 58.310063,128.2305 l 0.02259,-4.32716 1.66862,5.75861 c 0.917745,3.16726 2.623962,8.67393 3.791599,12.23709 1.167634,3.56314 2.790339,8.85387 3.606005,11.75717 2.974503,10.58753 5.671656,16.60205 10.686259,23.82986 1.710798,2.46585 4.367824,6.52627 5.904499,9.02315 3.272252,5.31694 8.602476,12.47376 12.40098,16.65065 1.477917,1.62514 2.687116,3.05331 2.687116,3.17368 0,0.1204 -1.241697,0.77481 -2.759339,1.45425 -3.876687,1.73556 -6.950647,2.00699 -10.09479,0.89138 z"
       id="path1079" />
    <path
       style="fill:#ff9100;fill-opacity:1;stroke-width:9.94321;paint-order:stroke fill markers"
       d="m 61.725565,114.54557 c -2.142966,-9.31553 -2.256203,-10.87655 -1.291872,-17.808909 1.907283,-13.711014 5.789039,-29.55379 9.628556,-39.297416 3.017784,-7.658309 9.038652,-19.177015 9.685681,-18.529982 0.133003,0.133 -0.666764,2.359134 -1.777255,4.946963 C 69.486895,63.62632 64.39144,87.731252 63.636546,111.66627 l -0.310272,9.83764 z"
       id="path1081" />
    <path
       style="fill:#ff9100;fill-opacity:1;stroke-width:9.94321;paint-order:stroke fill markers"
       d="m 56.367942,83.183458 c 0,-0.357214 -0.225662,-5.015281 -0.501466,-10.351265 -0.874275,-16.914421 0.555817,-31.497416 4.142169,-42.238747 2.027409,-6.072211 3.927481,-9.513744 7.13008,-12.914476 3.460252,-3.674325 5.451883,-4.604364 9.889167,-4.617983 3.225128,-0.01 4.017445,0.184024 7.198276,1.76179 1.965839,0.975105 4.501977,2.45875 5.635862,3.296993 2.011869,1.487305 2.040814,1.547329 1.199712,2.487679 -0.474043,0.529982 -2.292542,1.909375 -4.041107,3.065315 -3.958298,2.616756 -9.517172,8.396575 -12.629444,13.131416 -3.248181,4.941611 -8.431604,15.860551 -10.820995,22.794546 -2.049809,5.948533 -6.242485,21.580659 -6.242485,23.274704 0,0.527725 -0.21595,0.959499 -0.479885,0.959499 -0.263935,0 -0.479884,-0.292265 -0.479884,-0.649471 z"
       id="path1083" />
    <path
       style="fill:#ff9100;fill-opacity:1;stroke-width:9.94321;paint-order:stroke fill markers"
       d="m 117.87208,45.257871 c -1.33761,-2.503439 -3.64131,-6.42625 -5.11932,-8.717354 -1.47801,-2.291107 -2.58575,-4.267188 -2.46165,-4.391295 0.12411,-0.124108 1.22123,1.034447 2.43804,2.574568 2.22707,2.818808 8.31681,14.343962 7.83418,14.826597 -0.14257,0.142557 -1.35362,-1.789075 -2.69125,-4.292516 z"
       id="path1085" />
  </g>
</svg>
