<?xml version="1.0" encoding="UTF-8" standalone="no"?>
<svg
   xmlns:dc="http://purl.org/dc/elements/1.1/"
   xmlns:cc="http://creativecommons.org/ns#"
   xmlns:rdf="http://www.w3.org/1999/02/22-rdf-syntax-ns#"
   xmlns:svg="http://www.w3.org/2000/svg"
   xmlns="http://www.w3.org/2000/svg"
   xmlns:sodipodi="http://sodipodi.sourceforge.net/DTD/sodipodi-0.dtd"
   xmlns:inkscape="http://www.inkscape.org/namespaces/inkscape"
   width="210mm"
   height="220mm"
   viewBox="0 0 210 220"
   version="1.1"
   id="svg8"
   inkscape:version="1.0.2 (e86c8708, 2021-01-15)">
  <defs
     id="defs2" />
  <sodipodi:namedview
     id="base"
     pagecolor="#000000"
     bordercolor="#666666"
     borderopacity="1.0"
     inkscape:pageopacity="1"
     inkscape:pageshadow="2"
     inkscape:zoom="0.34255186"
     inkscape:cx="436.42542"
     inkscape:cy="345.16552"
     inkscape:document-units="mm"
     inkscape:current-layer="layer1"
     inkscape:document-rotation="0"
     showgrid="false"
     inkscape:window-width="1252"
     inkscape:window-height="872"
     inkscape:window-x="0"
     inkscape:window-y="0"
     inkscape:window-maximized="0" />
  <metadata
     id="metadata5">
    <rdf:RDF>
      <cc:Work
         rdf:about="">
        <dc:format>image/svg+xml</dc:format>
        <dc:type
           rdf:resource="http://purl.org/dc/dcmitype/StillImage" />
        <dc:title></dc:title>
      </cc:Work>
    </rdf:RDF>
  </metadata>
  <g
     inkscape:label="Layer 1"
     inkscape:groupmode="layer"
     id="layer1">
    <path
       style="fill:#ffffff;fill-opacity:1;stroke-width:0.235352"
       d="m 121.80501,216.31915 c -3.63379,-0.77718 -6.45251,-2.05003 -10.43027,-4.70989 l -2.48958,-1.66476 -1.82127,1.22352 c -4.08741,2.74585 -7.948506,3.87464 -12.546024,3.66781 -3.251513,-0.14627 -5.821657,-0.95081 -8.839479,-2.76705 -16.158566,-9.72482 -26.703996,-42.70912 -26.710516,-83.54589 -9.42e-4,-6.08202 0.479783,-17.23388 0.913051,-21.17942 0.156922,-1.42907 0.0877,-2.39825 -0.361644,-5.06239 -3.683905,-21.842326 -4.349879,-41.575087 -1.954367,-57.907221 1.937953,-13.212558 5.742727,-22.834936 11.372645,-28.761775 2.886938,-3.039192 6.281913,-5.076073 9.744597,-5.8464465 2.378694,-0.5292113 6.966317,-0.3506863 9.467431,0.3684185 3.342528,0.961021 7.569701,3.236351 10.997674,5.919628 0.806251,0.631096 1.547612,1.146221 1.647472,1.14472 0.0999,-0.0015 0.97589,-0.808677 1.94672,-1.793727 5.56224,-5.6437276 11.66934,-9.1026204 17.8603,-10.1155806 6.646,-1.0874183 13.57672,1.3426557 19.02598,6.6709626 10.43983,10.208114 16.90457,30.888481 17.69543,56.606778 0.26662,8.669617 -0.16138,19.969639 -1.02732,27.124371 -1.46622,12.114322 -3.60602,23.281612 -6.06052,31.628812 -0.5603,1.90551 -0.58583,1.30231 0.39949,9.44022 2.12637,17.562 1.99025,34.64017 -0.38269,48.01193 -2.10703,11.87342 -5.94634,20.78763 -11.26029,26.14455 -4.90768,4.94735 -10.74116,6.78101 -17.18682,5.40243 z m 7.53127,-4.87079 c 9.01329,-2.46545 15.45961,-15.97587 17.38846,-36.44333 0.83139,-8.82184 0.73229,-21.45598 -0.24795,-31.61482 -0.31682,-3.28356 -0.30969,-3.28403 -1.57691,0.10471 -2.75356,7.36338 -6.90357,15.72686 -11.02254,22.21371 -1.50492,2.37005 -1.86798,3.17476 -2.92002,6.4722 -4.51966,14.16623 -10.20543,25.18235 -16.96624,32.87199 l -1.38044,1.57009 1.32034,0.94545 c 1.56287,1.11916 4.9236,2.87936 6.57958,3.44611 3.05439,1.04532 6.05178,1.19269 8.82572,0.43391 z M 97.983817,209.8159 c 2.233523,-0.46135 4.024203,-1.17539 5.805873,-2.31511 l 1.36292,-0.87185 -2.22378,-2.27917 c -5.050212,-5.17604 -10.08492,-11.99111 -14.897812,-20.16598 -1.143139,-1.94165 -2.630579,-4.2187 -3.305396,-5.06008 -5.219619,-6.50791 -8.875882,-14.50241 -11.7325,-25.65344 -0.580296,-2.26527 -1.482364,-5.30759 -2.004575,-6.76073 -1.98558,-5.5252 -4.827398,-14.84223 -6.480358,-21.24622 l -0.516365,-2.00051 -0.145218,1.41213 c -0.179892,1.74921 -0.02275,9.8057 0.307656,15.76862 1.527545,27.57235 8.056313,50.11795 17.973024,62.06569 3.288907,3.96249 7.771957,6.74857 11.668985,7.25187 2.022305,0.2612 2.259817,0.25296 4.187546,-0.14522 z m 12.464213,-8.0395 c 3.05919,-3.47001 5.86565,-7.69636 8.55651,-12.88556 1.74424,-3.36367 4.29407,-9.18012 4.17216,-9.51715 -0.0425,-0.11742 -0.87157,0.46874 -1.8424,1.3027 -3.87832,3.33156 -8.17091,5.77926 -12.4323,7.0891 -1.85266,0.56947 -2.39086,0.62737 -5.80753,0.62484 -3.04357,-0.002 -4.094778,-0.0937 -5.482119,-0.47692 -1.454085,-0.40165 -1.695536,-0.41959 -1.579539,-0.1173 0.241513,0.62937 3.602754,5.30404 5.661828,7.87422 2.04415,2.55156 6.83488,7.69468 7.16745,7.69468 0.10206,0 0.81564,-0.71489 1.58594,-1.58862 z m -2.45571,-18.80538 c 5.89097,-1.85737 11.48509,-6.21377 17.31675,-13.48538 1.08499,-1.3529 2.12867,-2.83307 2.31929,-3.28928 0.70252,-1.68138 2.60292,-9.55795 3.69508,-15.31496 1.08615,-5.72533 1.22333,-6.58006 2.24757,-14.00347 1.91392,-13.8716 2.22223,-36.26453 0.68697,-49.894756 -0.18943,-1.681808 -0.58763,-3.293917 -1.39514,-5.648455 C 126.36617,62.39215 117.6574,45.03567 108.65432,33.087432 c -2.00424,-2.659875 -4.6356,-5.806628 -5.04904,-6.037931 -0.1515,-0.08476 -1.21094,-0.01554 -2.35432,0.153833 -1.518281,0.224909 -2.225706,0.445911 -2.623467,0.819586 -0.927593,0.871423 -5.166214,7.971244 -7.238745,12.12509 -7.758514,15.549959 -13.456706,35.657512 -15.940219,56.249265 -1.060654,8.794325 -1.287341,12.666855 -1.288161,22.005465 -9.42e-4,12.08253 0.716805,20.7317 2.383109,28.71302 0.962061,4.60809 7.271541,19.43897 11.907147,27.98856 1.259381,2.32271 1.685617,2.88263 3.135397,4.11866 2.366488,2.01761 4.78083,3.33008 7.409892,4.02807 1.921157,0.51006 2.538357,0.57094 4.642387,0.45797 1.65091,-0.0887 3.04279,-0.32458 4.35402,-0.738 z m 30.01421,-35.38455 c 2.82508,-6.50938 6.62767,-17.23403 6.62767,-18.69244 0,-1.00204 -1.66048,-10.45555 -2.46285,-14.02158 -0.18932,-0.84139 -0.67453,-3.01242 -1.07825,-4.82453 -0.40373,-1.81209 -0.77828,-3.33894 -0.83232,-3.393 -0.0541,-0.0541 -0.0998,2.01108 -0.10164,4.58918 -0.007,10.39756 -1.32496,25.2251 -3.18708,35.87166 -0.60704,3.47073 -0.6284,3.66456 -0.37595,3.41261 0.12971,-0.12944 0.76441,-1.45331 1.41047,-2.9419 z M 69.246375,118.46158 C 69.38259,90.97631 75.31153,63.23179 85.931507,40.383363 c 2.151847,-4.629612 2.012781,-4.697744 -0.95641,-0.468564 -8.444058,12.027347 -15.348781,32.294502 -18.698977,54.886377 -1.314128,8.861814 -1.405517,10.328794 -0.822126,13.197124 1.200954,5.90479 3.556287,16.0529 3.725808,16.0529 0.02141,0 0.05137,-2.51533 0.06653,-5.58962 z m 79.368615,-5.11892 c 5.41716,-26.819559 5.37089,-53.606219 -0.12785,-74.018384 -2.5671,-9.529465 -6.68296,-17.88074 -11.19187,-22.708826 -5.35312,-5.732075 -11.13071,-7.7802592 -17.58337,-6.23339 -4.38112,1.050268 -8.78229,3.755945 -13.25348,8.147784 l -2.04917,2.012792 0.50843,0.687673 c 0.31745,0.429389 0.8661,0.78001 1.46077,0.933524 3.94381,1.01809 6.12677,1.956206 8.52806,3.664906 8.09467,5.759944 14.84676,17.63404 19.33107,33.99518 0.99688,3.637164 2.22922,8.930206 2.60852,11.203862 0.12511,0.749951 0.44372,2.634443 0.70803,4.18777 0.26431,1.553327 0.63985,4.043837 0.83452,5.534468 0.22709,1.738662 0.74008,3.932316 1.43099,6.119163 0.934,2.956247 2.57121,8.646733 4.0956,14.235138 0.6772,2.4826 2.48946,10.24929 3.07534,13.17975 0.5089,2.54545 0.72678,3.26609 0.85036,2.81264 0.0336,-0.12308 0.38187,-1.8124 0.77405,-3.75405 z M 62.934239,85.571058 c 0.956373,-5.653634 3.640841,-16.086013 5.874416,-22.829196 2.709137,-8.17892 6.616745,-16.814011 10.257243,-22.666668 4.308317,-6.926279 9.63771,-12.482815 14.787039,-15.417282 1.228213,-0.69993 2.108154,-1.414499 2.764746,-2.245159 L 97.580819,21.19429 96.925035,20.605798 C 96.564356,20.282128 95.322515,19.374911 94.1654,18.589762 85.818297,12.925917 78.971965,12.752956 73.327026,18.063315 67.619748,23.432301 63.710671,33.624228 61.922789,47.79697 c -1.218089,9.655887 -1.158452,25.771662 0.138295,37.373697 0.149012,1.333109 0.343716,2.339232 0.432696,2.235843 0.08892,-0.103352 0.287182,-0.929337 0.440459,-1.835452 z M 127.24546,53.55313 c -3.3078,-9.26505 -7.31123,-16.328633 -11.85113,-20.909991 -1.26968,-1.28127 -2.36783,-2.270269 -2.44032,-2.197775 -0.0725,0.07249 0.71449,1.340611 1.74884,2.818042 3.76712,5.3808 8.31701,13.160594 11.84062,20.246108 0.82219,1.653293 1.52363,2.919707 1.55879,2.814253 0.0351,-0.105455 -0.35041,-1.352242 -0.8568,-2.770637 z"
       id="path1047" />
    <path
       style="fill:#00ffff;fill-opacity:1;stroke-width:5.5666;paint-order:stroke fill markers"
       d="m 147.63279,116.41872 c -0.0854,-0.14668 -0.24073,-0.75029 -0.34524,-1.34134 -0.89341,-5.0523 -3.84613,-16.515573 -6.88549,-26.731493 -0.72536,-2.438072 -1.57163,-6.004512 -1.88062,-7.925418 -1.77081,-11.008776 -2.59052,-14.998643 -4.4157,-21.49266 -3.49261,-12.426779 -8.66683,-22.819555 -14.45324,-29.030317 -3.60447,-3.868804 -6.51959,-5.77574 -11.04735,-7.226657 -1.76628,-0.566003 -3.25819,-1.21066 -3.54839,-1.53327 -0.49634,-0.551752 -0.47846,-0.577799 2.02972,-2.95869 6.2813,-5.962525 12.90475,-8.8144883 18.59626,-8.007289 3.85469,0.546697 7.08749,2.308316 10.59032,5.770898 8.37591,8.279665 13.69821,23.578197 15.74887,45.26892 0.51205,5.416157 0.42809,21.96494 -0.14359,28.302398 -0.56678,6.282995 -1.29011,11.806548 -2.34498,17.906818 -1.12397,6.49985 -1.71793,9.31195 -1.90057,8.9981 z"
       id="path1143" />
    <path
       style="fill:#00ffff;fill-opacity:1;stroke-width:5.5666;paint-order:stroke fill markers"
       d="M 62.140938,84.669149 C 60.913153,71.76889 60.906975,56.769839 62.125567,47.316387 64.249508,30.839336 69.713408,19.305402 77.122749,15.658309 c 1.93789,-0.953884 2.344466,-1.052148 4.753913,-1.148924 3.165315,-0.127137 5.264372,0.413434 8.922856,2.297899 2.70263,1.392114 6.368408,3.975407 6.368408,4.487853 0,0.541354 -2.672218,2.853521 -4.836365,4.184718 -2.57741,1.585401 -7.219266,6.046224 -9.813811,9.431068 -5.983487,7.806059 -11.527585,19.606479 -15.296115,32.557253 -1.435879,4.934484 -3.423893,12.8634 -4.055844,16.176191 -0.253688,1.329859 -0.548852,2.51639 -0.655924,2.636731 -0.10707,0.120345 -0.273086,-0.605033 -0.368919,-1.611949 z"
       id="path1145" />
    <path
       style="fill:#00ffff;fill-opacity:1;stroke-width:5.5666;paint-order:stroke fill markers"
       d="m 68.645053,121.65951 c -0.08357,-0.3694 -0.859288,-3.75449 -1.723818,-7.52243 -1.437265,-6.26409 -1.569308,-7.10386 -1.541836,-9.80603 0.04302,-4.23167 1.657805,-14.570366 3.713251,-23.774112 3.715711,-16.637969 9.685506,-31.700793 16.159567,-40.773376 0.672377,-0.942251 1.273081,-1.66261 1.334894,-1.600798 0.06182,0.06182 -0.504686,1.490538 -1.258888,3.174944 -5.55052,12.396314 -9.489952,24.883573 -12.323369,39.062761 -2.333988,11.679904 -3.742124,24.810291 -3.788724,35.328571 -0.02033,4.59076 -0.274511,7.2214 -0.571077,5.91047 z"
       id="path1147" />
    <path
       style="fill:#00ffff;fill-opacity:1;stroke-width:5.5666;paint-order:stroke fill markers"
       d="m 124.59809,49.475505 c -2.54497,-4.817865 -6.21493,-11.003016 -8.93217,-15.053808 -1.01266,-1.509633 -1.84119,-2.832985 -1.84119,-2.940778 0,-0.718168 4.47332,4.569991 6.40033,7.566179 2.23972,3.482404 6.96461,13.636834 6.70611,14.412332 -0.0486,0.145942 -1.09853,-1.646824 -2.33308,-3.983925 z"
       id="path1149" />
    <path
       style="fill:#00ffff;fill-opacity:1;stroke-width:5.5666;paint-order:stroke fill markers"
       d="m 136.78371,149.19699 c 1.79568,-10.2972 2.98238,-22.06172 3.37395,-33.44795 0.13974,-4.06346 0.26674,-7.44856 0.28221,-7.52244 0.0155,-0.0739 0.49632,1.92091 1.06855,4.43286 1.19881,5.26254 2.94725,14.88962 2.94493,16.21508 -0.003,1.6217 -5.73148,17.45128 -7.35457,20.32245 l -0.45563,0.80597 z"
       id="path1151" />
    <path
       style="fill:#00ffff;fill-opacity:1;stroke-width:5.5666;paint-order:stroke fill markers"
       d="m 121.48149,211.15109 c -2.44283,-0.71327 -8.48167,-3.97458 -8.45551,-4.56643 0.004,-0.09 0.37146,-0.5866 0.81665,-1.10377 6.83803,-7.94376 12.3192,-18.40688 16.94766,-32.35178 1.24352,-3.74653 1.74834,-4.82946 4.07018,-8.73139 3.35849,-5.64406 7.13429,-13.23969 9.34315,-18.79527 1.14311,-2.87506 1.77524,-4.16489 1.88953,-3.85551 0.95285,2.57941 1.25551,26.75848 0.42676,34.09191 -2.26143,20.01074 -8.27539,32.63972 -16.80547,35.29058 -2.18551,0.67917 -5.94717,0.68908 -8.23295,0.0217 z"
       id="path1153" />
    <path
       style="fill:#00ffff;fill-opacity:1;stroke-width:5.5666;paint-order:stroke fill markers"
       d="m 105.49345,199.77191 c -3.86944,-4.26648 -9.43224,-11.54262 -9.087887,-11.88698 0.06946,-0.0695 0.541425,0.002 1.048807,0.15952 0.507381,0.15719 2.61716,0.35219 4.68841,0.43332 3.25798,0.1276 4.06674,0.0715 5.99647,-0.41656 3.94275,-0.99705 8.65847,-3.51952 12.79466,-6.84397 1.02869,-0.82681 1.90328,-1.47035 1.94354,-1.43008 0.28537,0.28535 -4.1111,9.46245 -6.32584,13.20444 -2.50064,4.22502 -6.99272,10.06001 -7.75088,10.06797 -0.17736,0.002 -1.66563,-1.47758 -3.30728,-3.28766 z"
       id="path1155" />
    <path
       style="fill:#00ffff;fill-opacity:1;stroke-width:5.5666;paint-order:stroke fill markers"
       d="M 92.936685,209.64064 C 86.65348,208.27572 80.889157,202.51176 75.981676,192.68669 69.71802,180.14647 65.8788,163.49254 64.407679,142.48053 c -0.430524,-6.14916 -0.6594,-17.77125 -0.343899,-17.46279 0.151135,0.14777 0.59835,1.47762 0.993811,2.95524 1.148392,4.2909 2.724517,9.48883 4.847055,15.98517 1.086251,3.32464 2.694217,8.58363 3.57325,11.68663 2.932219,10.35077 5.628812,16.15977 10.663022,22.97028 0.928398,1.25598 2.684738,3.9157 3.902981,5.91049 4.995866,8.18038 9.229362,13.93899 14.191481,19.30397 2.46484,2.66496 2.55047,2.79814 2.04365,3.17846 -1.91564,1.43756 -6.605602,3.0651 -8.698873,3.01874 -0.530471,-0.0118 -1.720034,-0.18548 -2.643472,-0.38608 z"
       id="path1157" />
  </g>
</svg>
